<?xml version="1.0" encoding="UTF-8"?><svg id="b" xmlns="http://www.w3.org/2000/svg" viewBox="0 0 260.08 260.08"><g id="c"><path d="m260.08,130.04c0,71.82-58.22,130.04-130.04,130.04S0,201.86,0,130.04,58.22,0,130.04,0s130.04,58.22,130.04,130.04Z" style="fill:#f6bb32; fill-rule:evenodd; stroke-width:0px;"/><path d="m80.85,129.03c-6.32,1.44-13.05,4.02-18.26,7.94-1.28.96-2.5,2.05-3.57,3.24-2.6,2.91-4.36,6.56-3.45,10.53,1.3,5.67,7.11,8.33,12.31,9.36,6.39,1.27,13.58.66,19.9-.78,6.32-1.44,13.05-4.02,18.26-7.94,1.28-.96,2.5-2.05,3.57-3.24,2.6-2.91,4.36-6.56,3.45-10.53-1.3-5.67-7.11-8.33-12.31-9.36-6.39-1.27-13.58-.66-19.9.78" style="fill:#26292c; fill-rule:evenodd; stroke-width:0px;"/><path d="m81.8,133.19c13.57-3.1,25.71-.7,27.09,5.37,1.39,6.07-8.5,13.5-22.07,16.61-13.57,3.1-25.71.7-27.09-5.37-1.39-6.07,8.5-13.5,22.07-16.61" style="fill:#fff; fill-rule:evenodd; stroke-width:0px;"/><path d="m59.73,149.79c-.61-2.69.98-5.64,4.12-8.37,1.49,8.63,10.74,12.77,27.74,12.42-1.53.49-3.12.93-4.77,1.31-13.57,3.1-25.71.7-27.09-5.37" style="fill:#cbcbcb; fill-rule:evenodd; stroke-width:0px;"/><path d="m78.58,91.68c-9.35-3.08-20.04-4.96-29.88-3.92-7.38.78-15.97,3.53-19.48,10.69-.38.78-.69,1.59-.92,2.42-.53,1.92-.65,3.9-.4,5.88.78,6.11,5.03,11.72,9.38,15.84,7.64,7.22,17.99,12.51,27.92,15.78,9.35,3.08,20.04,4.96,29.88,3.92,7.38-.78,15.97-3.53,19.48-10.69.38-.78.69-1.59.92-2.42.53-1.92.65-3.9.4-5.88-.78-6.11-5.03-11.73-9.38-15.84-7.64-7.22-17.99-12.51-27.92-15.78" style="fill:#26292c; fill-rule:evenodd; stroke-width:0px;"/><path d="m77.21,95.83c21.75,7.17,37,21.59,34.06,32.2-2.94,10.61-22.95,13.39-44.7,6.22-21.75-7.17-37-21.59-34.06-32.2,2.94-10.61,22.95-13.39,44.7-6.22" style="fill:#fff; fill-rule:evenodd; stroke-width:0px;"/><path d="m63.89,92.61c-16.34,8.41-11.52,21.04,14.48,37.89,1.3.84,2.64,1.69,4.04,2.55.62.38,1.26.77,1.9,1.15-.82,1.11-1.55,2.29-2.07,3.57-3.02-.36-6.17-.93-9.39-1.72-1.67-.41-3.35-.88-5.05-1.42-.41-.13-.82-.26-1.23-.4-21.75-7.17-37-21.59-34.06-32.2,2.32-8.38,15.31-11.88,31.38-9.44" style="fill:#cbcbcb; fill-rule:evenodd; stroke-width:0px;"/><path d="m179.23,129.03c6.32,1.44,13.05,4.02,18.26,7.94,1.28.96,2.5,2.05,3.57,3.24,2.6,2.91,4.36,6.56,3.45,10.53-1.3,5.67-7.11,8.33-12.31,9.36-6.39,1.27-13.58.66-19.9-.78-6.32-1.44-13.05-4.02-18.26-7.94-1.28-.96-2.5-2.05-3.57-3.24-2.6-2.91-4.36-6.56-3.45-10.53,1.3-5.67,7.11-8.33,12.31-9.36,6.39-1.27,13.58-.66,19.9.78" style="fill:#26292c; fill-rule:evenodd; stroke-width:0px;"/><path d="m181.5,91.68c9.35-3.08,20.04-4.96,29.88-3.92,7.38.78,15.97,3.53,19.48,10.69.38.78.69,1.59.92,2.42.53,1.92.65,3.9.4,5.88-.78,6.11-5.03,11.72-9.38,15.84-7.64,7.22-17.99,12.51-27.92,15.78-9.35,3.08-20.04,4.96-29.88,3.92-7.38-.78-15.97-3.53-19.48-10.69-.38-.78-.69-1.59-.92-2.42-.53-1.92-.65-3.9-.4-5.88.78-6.11,5.03-11.73,9.38-15.84,7.64-7.22,17.99-12.51,27.92-15.78" style="fill:#26292c; fill-rule:evenodd; stroke-width:0px;"/><path d="m130.12,99.2c19.46,0,35.24,19.37,35.24,43.26s-15.78,43.26-35.24,43.26-35.24-19.37-35.24-43.26,15.78-43.26,35.24-43.26" style="fill:#26292c; fill-rule:evenodd; stroke-width:0px;"/><path d="m151.25,170.77c-5.52,6.54-12.95,10.55-21.13,10.55s-15.68-4.05-21.21-10.65c13.91,3.54,28.27,3.62,42.33.1m-21.13-67.17c17.03,0,30.85,17.4,30.85,38.86,0,7.95-1.9,15.34-5.15,21.5l-25.79,3.47-25.59-3.44c-3.26-6.16-5.17-13.57-5.17-21.53,0-21.46,13.81-38.86,30.84-38.86Z" style="fill:#f6bb32; fill-rule:evenodd; stroke-width:0px;"/><path d="m124.03,69.48c2.21-.27,4.47-.38,6.7-.36,2.32.02,4.69.19,6.98.59,6.85,1.2,12.61,4.78,16.41,10.64,4.42,6.8,5.45,15.54,3.6,23.35-1.55,6.54-5.12,12.52-10.56,16.55-3.77,2.79-8.07,4.64-12.75,5.17-2.95.33-6.21.33-9.15-.07-4.47-.61-8.58-2.42-12.2-5.1-2.99-2.21-5.44-5.04-7.3-8.26-1.49-2.58-2.58-5.39-3.26-8.29-1.85-7.81-.81-16.55,3.6-23.35,4.12-6.34,10.48-9.95,17.93-10.86" style="fill:#26292c; fill-rule:evenodd; stroke-width:0px;"/><path d="m124.7,73.85c-6.2.76-11.45,3.7-14.88,8.97-6.78,10.43-4.21,26.39,5.88,33.86,3.03,2.24,6.46,3.77,10.21,4.28,2.55.35,5.4.35,7.96.06,3.92-.44,7.51-2,10.66-4.34,2.51-1.86,4.56-4.23,6.12-6.93,1.27-2.2,2.2-4.6,2.78-7.07,1.57-6.62.73-14.09-3.02-19.86-3.16-4.86-7.91-7.79-13.59-8.78-3.81-.67-8.28-.66-12.12-.19" style="fill:#f6bb32; fill-rule:evenodd; stroke-width:0px;"/><path d="m117.55,84.92c6.88,0,12.45,5.58,12.45,12.45s-5.58,12.45-12.45,12.45-12.45-5.58-12.45-12.45,5.58-12.45,12.45-12.45" style="fill:#26292c; fill-rule:evenodd; stroke-width:0px;"/><path d="m117.55,87.25c5.59,0,10.13,4.54,10.13,10.13s-4.54,10.13-10.13,10.13-10.13-4.54-10.13-10.13,4.54-10.13,10.13-10.13" style="fill:#fff; fill-rule:evenodd; stroke-width:0px;"/><path d="m117.55,90.3c3.91,0,7.07,3.17,7.07,7.07s-3.17,7.07-7.07,7.07-7.07-3.17-7.07-7.07,3.17-7.07,7.07-7.07" style="fill:#26292c; fill-rule:evenodd; stroke-width:0px;"/><path d="m117.55,90.07c1.04,0,1.89.84,1.89,1.89s-.84,1.89-1.89,1.89-1.89-.84-1.89-1.89.84-1.89,1.89-1.89" style="fill:#fff; fill-rule:evenodd; stroke-width:0px;"/><path d="m142.66,84.92c6.88,0,12.45,5.58,12.45,12.45s-5.58,12.45-12.45,12.45-12.45-5.58-12.45-12.45,5.58-12.45,12.45-12.45" style="fill:#26292c; fill-rule:evenodd; stroke-width:0px;"/><path d="m142.66,87.25c5.59,0,10.13,4.54,10.13,10.13s-4.54,10.13-10.13,10.13-10.13-4.54-10.13-10.13,4.54-10.13,10.13-10.13" style="fill:#fff; fill-rule:evenodd; stroke-width:0px;"/><path d="m142.66,90.3c3.91,0,7.07,3.17,7.07,7.07s-3.17,7.07-7.07,7.07-7.07-3.17-7.07-7.07,3.17-7.07,7.07-7.07" style="fill:#26292c; fill-rule:evenodd; stroke-width:0px;"/><path d="m142.66,90.07c1.04,0,1.89.84,1.89,1.89s-.84,1.89-1.89,1.89-1.89-.84-1.89-1.89.84-1.89,1.89-1.89" style="fill:#fff; fill-rule:evenodd; stroke-width:0px;"/><path d="m125.93,74.58c-2.96-4.56-6.09-8.17-9.39-10.83-2.91-2.34-5.96-3.96-9.15-4.84-.31-2.81-2.7-5-5.6-5-3.11,0-5.63,2.52-5.63,5.63s2.52,5.63,5.63,5.63c1.73,0,3.27-.78,4.3-2,2.64.71,5.19,2.06,7.65,4.04,2.82,2.27,5.53,5.36,8.12,9.28,1.73,2.61,5.46.25,4.06-1.92m32.49-20.67c-2.9,0-5.28,2.19-5.6,5-3.18.88-6.23,2.49-9.15,4.84-3.31,2.66-6.44,6.27-9.39,10.83-1.41,2.17,2.33,4.53,4.06,1.92,2.59-3.92,5.3-7.01,8.12-9.28,2.46-1.98,5.01-3.33,7.65-4.04,1.03,1.22,2.58,2,4.3,2,3.11,0,5.63-2.52,5.63-5.63s-2.52-5.63-5.63-5.63Z" style="fill:#26292c; fill-rule:evenodd; stroke-width:0px;"/><path d="m117.21,117.72l7.88-1.39c-.87-2.59-1.58-5.17-2.13-7.73-1.63.79-3.46,1.23-5.4,1.23-1.23,0-2.42-.18-3.54-.51-1.28-.38-2.47-.96-3.55-1.7-1.25-.87-2.33-1.95-3.19-3.21.48,1.54,1.08,3.03,1.83,4.45.56,1.08,1.21,2.12,1.92,3.09,1.31,1.8,2.87,3.4,4.68,4.74.49.36,1,.71,1.51,1.04m-10.81-25.87c2.04-4.1,6.27-6.92,11.16-6.92,1.64,0,3.2.32,4.63.89.43-2.75,1.07-5.48,1.89-8.18-.78.07-1.61-.24-2.2-1.14-.41-.62-.82-1.22-1.24-1.79-4.42,1.36-8.17,4.04-10.82,8.12-1.76,2.71-2.89,5.8-3.42,9.02Z" style="fill:#facd59; fill-rule:evenodd; stroke-width:0px;"/><path d="m182.87,95.83c-11.74,3.87-21.58,9.85-27.7,16.21,5.49,6.81,9.15,15.84,10,25.89,7.93.89,17.93-.26,28.33-3.69,21.75-7.17,37-21.59,34.06-32.2-2.94-10.61-22.95-13.39-44.7-6.22" style="fill:#fff; fill-rule:evenodd; stroke-width:0px;"/><path d="m196.19,92.61c16.34,8.41,11.52,21.04-14.48,37.89-1.3.84-2.64,1.69-4.04,2.55-.62.38-1.25.77-1.9,1.15.82,1.11,1.55,2.29,2.07,3.57,3.02-.36,6.17-.93,9.39-1.72,1.67-.41,3.35-.88,5.05-1.42.41-.13.82-.26,1.23-.4,21.75-7.17,37-21.59,34.06-32.2-2.32-8.38-15.31-11.88-31.38-9.44" style="fill:#cbcbcb; fill-rule:evenodd; stroke-width:0px;"/><path d="m168.49,153.85c1.53.49,3.12.94,4.77,1.31,13.57,3.1,25.71.7,27.09-5.37.8-3.51-2.16-7.47-7.43-10.79-4.59,1.4-9.45,2.49-14.34,3.09-.07,1.72-.56,3.4-1.33,5.05-1.58,3.67-4.49,5.91-8.41,6.66h-.06s-.07.02-.07.02l-.22.03Z" style="fill:#fff; fill-rule:evenodd; stroke-width:0px;"/><path d="m200.35,149.79c.61-2.68-.98-5.64-4.12-8.37-1.49,8.63-10.74,12.77-27.74,12.42,1.53.49,3.12.93,4.77,1.31,13.57,3.1,25.71.7,27.09-5.37" style="fill:#cbcbcb; fill-rule:evenodd; stroke-width:0px;"/><polygon points="92.15 121.31 130.03 114.62 167.91 121.31 167.91 162.71 130.03 169.4 92.15 162.71 92.15 121.31" style="fill:#26292c; fill-rule:evenodd; stroke-width:0px;"/><polygon points="131.62 165.3 164.14 159.55 164.14 142.01 164.14 124.47 131.62 118.72 131.62 165.3" style="fill:#a7956a; fill-rule:evenodd; stroke-width:0px;"/><polygon points="95.91 124.47 95.91 142.01 95.91 159.55 128.43 165.3 128.43 118.72 95.91 124.47" style="fill:#b4ac99; fill-rule:evenodd; stroke-width:0px;"/><rect x="127.88" y="117.48" width="4.3" height="49.82" style="fill:#26292c; stroke-width:0px;"/><path d="m166.5,136.6c-.35-.52-.68-1-.9-1.7-.21-.64-.27-1.3-.17-1.97.26-1.91,1.62-3.63,3.52-4.14,1.22-.33,2.47-.17,3.48.62.68.52,1.12,1.22,1.45,1.99.11.26.21.58.33.84,1.57,1.89,3.11,3.86,3.87,6.23.97,2.99.48,5.87-.84,8.66-1.58,3.67-4.5,5.91-8.41,6.66h-.06s-.07.02-.07.02c-2.71.37-6.22.41-7.98-2.1-.4-.57-.65-1.2-.77-1.85-1.93-1.37-2.52-3.4-1.71-5.56-1.69-2.74-.25-5.82,3.25-7.08.96-.35,1.88-.49,2.89-.52.87-.03,1.5-.03,2.12-.1" style="fill:#26292c; fill-rule:evenodd; stroke-width:0px;"/><path d="m174.96,146.11c2.59-5.48.28-8.71-2.77-12.36-.61-.73-.66-3.03-2.59-2.51-.94.25-1.55,1.18-1.67,2.05-.24,1.71,1.87,2.41,1.76,4.97-3.57,1.6-4.94.47-7.34,1.34-2.25.81-3.04,2.42-1.43,4.05.83.22,2.31.2,3.82.02,1.35-.16,2.69-.46,3.56-.83,1.39-.59,2.55.66,1.2,1.37-1.08.57-2.83,1-4.56,1.21-1.63.2-3.3.2-4.41-.06-.37,1.17.1,2.1,1.4,2.77l.04-.08c.33.16,2.6-.02,4.72-.42.79-.15,1.53-.32,2.1-.52,1.3-.44,3.21.44,1.26,1.36-.8.38-1.89.67-3.03.89-1.56.3-3.29.44-4.47.43.56,1.48,2.5,1.99,5.82,1.54,3.16-.61,5.36-2.34,6.59-5.22" style="fill:#fff; fill-rule:evenodd; stroke-width:0px;"/><path d="m176.08,141.82c-1.03,2.36-4.02,3.83-8.99,4.42-.84.1-1.74.17-2.69.22-.08,0-.17,0-.25.01-1.05.05-2.16.07-3.35.05-.11,0-.22,0-.34,0,.05.22.15.43.28.63.25.37.65.69,1.2.97.02-.05,3.42.1,6.85-1.02,1.3-.43,3.21.44,1.26,1.36l-.04.02h0s-.04.02-.04.02h0s-.04.02-.04.02h0s-.04.02-.04.02h0s-.04.02-.04.02h0s-.04.02-.04.02h0s-.03.02-.03.02h0s-.03.02-.03.02h0s-.03.02-.03.02h0s-.03.02-.03.02h0s-.03.02-.03.02h0s-.03.02-.03.02h-.01s-.03.02-.03.02h-.01s-.03.02-.03.02h-.01s-.03.02-.03.02h-.01s-.03.02-.03.02h-.01s-.03.02-.03.02h-.02s-.03.02-.03.02h-.02s-.03.02-.03.02h-.02s-.03.02-.03.02h-.02s-.03.01-.03.01h-.02s-.03.01-.03.01h-.02s-.02.01-.02.01h-.02s-.02.01-.02.01h-.02s-.02.01-.02.01h-.02s-.02.01-.02.01h-.03s-.02.01-.02.01h-.03s-.02.01-.02.01h-.03s-.02.01-.02.01h-.03s-.02.01-.02.01h-.03s-.02.01-.02.01h-.03s-.02.01-.02.01h-.03s-.02.01-.02.01h-.03s-.01.01-.01.01h-.03s-.01.01-.01.01h-.03s-.01.01-.01.01h-.04s-.01.01-.01.01h-.04s-.01.01-.01.01h-.04s0,.01,0,.01h-.04s0,.01,0,.01h-.04s0,.01,0,.01h-.04s0,.01,0,.01h-.04s0,.01,0,.01h-.04s0,.01,0,.01h-.05s0,.01,0,.01h-.05s0,.01,0,.01h-.05s0,.01,0,.01h-.05s0,.01,0,.01h-.05s0,.01,0,.01h-.05s0,.01,0,.01h-.05s0,.01,0,.01h-.05s0,.01,0,.01h-.05s0,.01,0,.01h-.05s0,.01,0,.01h-.05s0,.01,0,.01h-.04s0,.01,0,.01h-.04s0,.01,0,.01h-.04s0,.01,0,.01h-.04s-.01.01-.01.01h-.04s-.01.01-.01.01h-.04s-.01.01-.01.01h-.04s-.01.01-.01.01h-.04s-.02.01-.02.01h-.04s0,0,0,0h0s0,0,0,0h0s0,0,0,0h0s0,0,0,0h0s0,0,0,0h0s0,0,0,0h0s0,0,0,0h0s0,0,0,0h0s0,0,0,0h-.04s-.04.02-.04.02h-.02s-.02,0-.02,0h-.04s-.04.02-.04.02h0s-.04,0-.04,0h-.04s-.03.01-.03.01h-.02s-.09.02-.09.02h0s-.04,0-.04,0h-.05s-.03.01-.03.01h-.01s-.05,0-.05,0h-.05s-.01,0-.01,0h-.03s-.05.01-.05.01h-.04s0,0,0,0h-.05s-.05.01-.05.01h-.02s-.03,0-.03,0h-.05s-.04.01-.04.01h0s-.05,0-.05,0h-.05s-.02,0-.02,0h-.02s-.05,0-.05,0h-.05s0,0,0,0h-.04s-.05.01-.05.01h-.03s-.02,0-.02,0h-.05s-.05.01-.05.01h0s-.04,0-.04,0h-.05s-.03,0-.03,0h-.01s-.05,0-.05,0h-.05s-.01,0-.01,0h-.03s-.05,0-.05,0h-.04s0,0,0,0h-.05s-.04.01-.04.01h-.02s-.03,0-.03,0h-.04s-.16.02-.16.02h-.02s-.09.01-.09.01h-.04s-.04,0-.04,0h-.03s-.02,0-.02,0h-.04s-.04,0-.04,0h0s-.08,0-.08,0h-.03s-.01,0-.01,0h-.09s-.01,0-.01,0h-.03s-.04,0-.04,0h-.03s0,0,0,0h0s0,0,0,0h0s0,0,0,0h0s0,0,0,0h0s0,0,0,0h0s0,0,0,0h0s0,0,0,0h0s0,0,0,0h0s0,0,0,0h0s0,0,0,0h0s0,0,0,0h0s0,0,0,0h0s0,0,0,0h0s-.03,0-.03,0h-.03s-.03,0-.03,0h-.03s-.03,0-.03,0h-.03s-.03,0-.03,0h-.03s0,0,0,0h-.02s-.03,0-.03,0h-.03s-.03,0-.03,0h-.01s-.01,0-.01,0h-.02s-.02,0-.02,0h-.03s-.01,0-.01,0h0s-.02,0-.02,0h-.02s-.02,0-.02,0h-.02s0,0,0,0h-.02s-.02,0-.02,0h-.02s-.02,0-.02,0h0s-.02,0-.02,0h-.02s-.02,0-.02,0h-.02s0,0,0,0h-.02s-.02,0-.02,0h-.02s-.02,0-.02,0h-.01s-.01,0-.01,0h-.02s-.02,0-.02,0h-.02s-.02,0-.02,0h0s-.02,0-.02,0h-.02s-.02,0-.02,0h-.02s0,0,0,0h-.02s-.02,0-.02,0h-.02s-.02,0-.02,0h-.02s-.02,0-.02,0h-.02s-.02,0-.02,0h-.04s-.02,0-.02,0h-.04s-.02,0-.02,0h-.17c.22.58.65,1.01,1.29,1.29.1.04.2.08.31.12.74.25,1.73.34,2.94.25.4-.03.83-.07,1.28-.13,3.16-.61,5.36-2.34,6.59-5.22.76-1.6,1.1-3,1.12-4.29" style="fill:#cbcbcb; fill-rule:evenodd; stroke-width:0px;"/><path d="m93.58,136.6c.35-.52.68-1,.9-1.7.21-.64.27-1.3.17-1.97-.27-1.91-1.62-3.63-3.52-4.14-1.22-.33-2.47-.17-3.48.62-.68.52-1.12,1.22-1.45,1.99-.11.26-.21.58-.33.84-1.57,1.89-3.11,3.86-3.87,6.23-.97,2.99-.48,5.87.84,8.66,1.58,3.67,4.5,5.91,8.41,6.66h.06s.07.02.07.02c2.71.37,6.22.41,7.98-2.1.4-.57.65-1.2.77-1.85,1.93-1.37,2.52-3.4,1.71-5.56,1.69-2.74.25-5.82-3.25-7.08-.96-.35-1.88-.49-2.89-.52-.87-.03-1.5-.03-2.12-.1" style="fill:#26292c; fill-rule:evenodd; stroke-width:0px;"/><path d="m85.12,146.11c-2.59-5.48-.28-8.71,2.77-12.36.61-.73.66-3.03,2.59-2.51.94.25,1.55,1.18,1.67,2.05.24,1.71-1.87,2.41-1.76,4.97,3.57,1.6,4.94.47,7.34,1.34,2.4.87,3.14,2.64,1.07,4.38,1.45,2,1.08,3.45-1.12,4.36.27,2.58-1.72,3.57-5.96,2.99-3.16-.61-5.36-2.34-6.59-5.22" style="fill:#fff; fill-rule:evenodd; stroke-width:0px;"/><path d="m99.48,143.54c-.73.33-2.41.34-4.13.13-1.35-.16-2.69-.46-3.56-.83-1.39-.59-2.55.66-1.2,1.37,1.08.57,2.83,1,4.56,1.21,2,.24,4.04.19,5.06-.27l-.73-1.61Z" style="fill:#26292c; stroke-width:0px;"/><path d="m98.1,148.05c-.33.16-2.6-.02-4.72-.42-.79-.15-1.53-.32-2.1-.52-1.3-.44-3.21.44-1.26,1.36.8.38,1.89.67,3.03.89,2.42.46,5.24.56,5.81.28l-.77-1.59Z" style="fill:#26292c; stroke-width:0px;"/><path d="m84,141.82c1.03,2.36,4.02,3.83,8.99,4.42.84.1,1.74.17,2.69.22.08,0,.17,0,.25.01,1.05.05,2.16.07,3.35.05.11,0,.22,0,.34,0-.05.22-.15.43-.28.63-.25.37-.65.69-1.2.97l-.04-.08c-.19.09-1.06.07-2.17-.05-.04,0-.07,0-.11-.01-.75-.08-1.61-.21-2.44-.36-.13-.02-.26-.05-.39-.08-.64-.13-1.23-.28-1.7-.44-1.3-.44-3.21.44-1.26,1.36.79.37,1.85.66,2.96.88.02,0,.05,0,.07.01.95.18,1.96.3,2.87.37.04,0,.07,0,.1,0,.55.04,1.06.06,1.49.05-.22.58-.65,1.01-1.29,1.29-.1.04-.2.08-.31.12-.75.25-1.73.33-2.94.25-.4-.03-.83-.07-1.28-.13-3.16-.61-5.36-2.34-6.59-5.22-.76-1.6-1.1-3-1.12-4.29" style="fill:#cbcbcb; fill-rule:evenodd; stroke-width:0px;"/><path d="m121.3,181.72l8.82,24.45c.01-.44.03-.86,0-1.3-.03.44-.01.86,0,1.3l8.82-24.45c-2.72,1.69-5.7,2.62-8.82,2.62s-6.1-.93-8.82-2.62" style="fill:#26292c; fill-rule:evenodd; stroke-width:0px;"/></g></svg>