<?xml version="1.0" encoding="UTF-8"?><svg id="b" xmlns="http://www.w3.org/2000/svg" viewBox="0 0 426.37 120.25"><g id="c"><path d="m176.75,50.37h-8.97v32.65-18.33c0-5.85,3.55-11.11,8.97-13.3v-1.02" style="fill:#26292c; stroke-width:0px;"/><path d="m182.12,50.35c-1.84,0-3.67.35-5.37,1.04v13.3c0-2.97,2.41-5.37,5.37-5.37s5.37,2.41,5.37,5.37v18.33-18.33c0-3.94,1.62-7.71,4.49-10.41-2.66-2.53-6.19-3.94-9.86-3.93" style="fill:#26292c; stroke-width:0px;"/><path d="m176.75,51.39c-5.42,2.2-8.97,7.46-8.97,13.3v18.33h8.97v-31.63" style="fill:#26292c; stroke-width:0px;"/><path d="m201.84,50.35c-3.67,0-7.2,1.41-9.86,3.93,2.87,2.7,4.49,6.47,4.49,10.41h0c0-2.97,2.41-5.37,5.37-5.37s5.37,2.41,5.37,5.37v18.33h8.97v-18.33c0-7.92-6.43-14.34-14.35-14.35" style="fill:#26292c; stroke-width:0px;"/><path d="m191.98,54.28c-2.87,2.7-4.49,6.47-4.49,10.41v18.33h8.97v-18.33c0-3.94-1.62-7.71-4.49-10.41" style="fill:#26292c; stroke-width:0px;"/><path d="m234.67,50.35c-6.6,0-12.56,3.98-15.08,10.08-2.53,6.1-1.13,13.12,3.54,17.79,4.67,4.67,11.69,6.07,17.79,3.54s10.08-8.48,10.08-15.08c-.01-9.01-7.31-16.32-16.33-16.33m0,23.68c-2.97,0-5.66-1.79-6.79-4.54s-.51-5.91,1.59-8.01c2.1-2.1,5.27-2.73,8.01-1.59,2.75,1.14,4.54,3.82,4.54,6.79,0,4.06-3.29,7.35-7.35,7.35" style="fill:#26292c; stroke-width:0px;"/><polyline points="286.71 50.35 276.99 50.35 268.33 71.29 273.19 83.03 263.48 83.03 273.19 83.03 286.71 50.35" style="fill:#26292c; stroke-width:0px;"/><polyline points="259.67 50.35 249.96 50.35 263.48 83.03 268.33 71.29 259.67 50.35" style="fill:#26292c; stroke-width:0px;"/><polyline points="268.33 71.29 263.48 83.03 273.19 83.03 268.33 71.29" style="fill:#26292c; stroke-width:0px;"/><path d="m300.98,50.37c-9.01,0-16.32,7.31-16.33,16.33,0,9.16,7.39,16.33,16.83,16.33,4.87,0,8.77-1.55,13.05-5.19l-5.82-6.83c-2.65,2.25-4.72,2.88-7.41,2.88-1.33.05-2.65-.3-3.78-1l-.3.12-9.09,3.75c-1.7-2.13-2.82-4.67-3.26-7.36l9.21-3.8h0c.27-2.51,1.85-4.68,4.15-5.7.8-.35,1.67-.54,2.55-.53,1.57,0,3.1.53,4.35,1.49.05.04.09.08.14.12l9.02-3.72c.62.87,1.15,1.8,1.59,2.78-2.63-5.88-8.47-9.66-14.91-9.65m14.91,9.67l.02.04-.02-.04m.03.08h0s0,0,0,0m.03.08h0s0,0,0,0m.03.07h0s0,0,0,0m1.79,4.25l-9.05,3.74,9.05-3.74" style="fill:#26292c; stroke-width:0px;"/><path d="m315.88,60.02v.02s0-.02,0-.02m.02.05l.02.04-.02-.04m.03.06l.03.06-.03-.06m.03.08l.02.05-.02-.05m.03.07l.03.07,1.76,4.17-1.76-4.17-.03-.07m-10.72.7l-5.55,2.29-5.32,2.2-.33.13c-.45,3.82,1.53,5.91,3.16,7.09.09.07.18.13.28.19l9.98-4.12,1.23-.51s-1.07-5.09-3.46-7.28" style="fill:#26292c; stroke-width:0px;"/><path d="m314.29,57.24l-9.02,3.72c2.39,2.19,3.46,7.26,3.46,7.28l9.05-3.74-1.76-4.17-.03-.07h0s-.02-.07-.02-.07h0s-.03-.08-.03-.08h0s-.02-.06-.02-.06l-.02-.04v-.02c-.44-.98-.98-1.91-1.6-2.78m-20.21,8.35l-9.21,3.8c.44,2.69,1.56,5.22,3.26,7.36l9.09-3.75.3-.12c-.09-.06-.19-.12-.28-.19-1.62-1.19-3.6-3.28-3.16-7.09" style="fill:#26292c; stroke-width:0px;"/><path d="m330.24,31.12h-8.97v51.9h8.97v-1.75c-5.5-2.78-8.97-8.41-8.97-14.58s3.47-11.8,8.97-14.58v-21" style="fill:#f6bb32; stroke-width:0px;"/><path d="m337.6,50.37c-2.55,0-5.07.6-7.35,1.75v29.15c6.03,3.04,13.3,2.06,18.31-2.47s6.71-11.67,4.28-17.97c-2.43-6.3-8.48-10.45-15.23-10.46m0,23.68c-4.06,0-7.35-3.29-7.35-7.35s3.29-7.35,7.35-7.35,7.35,3.29,7.35,7.35c0,4.06-3.29,7.35-7.35,7.35" style="fill:#f6bb32; stroke-width:0px;"/><path d="m330.24,52.12c-5.5,2.78-8.97,8.41-8.97,14.58s3.47,11.8,8.97,14.58v-29.15" style="fill:#f6bb32; stroke-width:0px;"/><path d="m373.7,50.37c-9.01,0-16.32,7.31-16.33,16.33,0,9.16,7.39,16.33,16.83,16.33,4.87,0,8.77-1.55,13.05-5.19l-5.82-6.83c-2.65,2.25-4.72,2.88-7.41,2.88-1.33.05-2.65-.3-3.78-1l-.3.12-9.09,3.75c-1.7-2.13-2.82-4.67-3.26-7.36l9.21-3.8h0c.27-2.51,1.85-4.68,4.15-5.7.8-.35,1.67-.54,2.55-.53,1.57,0,3.1.53,4.35,1.49.05.04.09.08.14.12l9.02-3.72c.62.87,1.15,1.8,1.59,2.78-2.63-5.88-8.47-9.66-14.91-9.65m14.91,9.67l.02.04-.02-.04m.03.08h0s0,0,0,0m.03.08h0s0,0,0,0m.03.07h0s0,0,0,0m1.79,4.25l-9.05,3.74,9.05-3.74" style="fill:#f6bb32; stroke-width:0px;"/><path d="m388.6,60.02v.02s0-.02,0-.02m.02.05l.02.04-.02-.04m.03.06l.03.06-.03-.06m.03.08l.02.05-.02-.05m.03.07l.03.07,1.76,4.17-1.76-4.17-.03-.07m-10.72.7l-5.55,2.29-5.32,2.2-.33.13c-.45,3.82,1.53,5.91,3.16,7.09.09.07.18.13.28.19l9.98-4.12,1.23-.51s-1.07-5.09-3.46-7.28" style="fill:#f6bb32; stroke-width:0px;"/><path d="m387.01,57.24l-9.02,3.72c2.39,2.19,3.46,7.26,3.46,7.28l9.05-3.74-1.76-4.17-.03-.07h0s-.02-.07-.02-.07h0s-.03-.08-.03-.08h0s-.02-.06-.02-.06l-.02-.04v-.02c-.44-.98-.98-1.91-1.6-2.78m-20.21,8.35l-9.21,3.8c.44,2.69,1.56,5.22,3.26,7.36l9.09-3.75.3-.12c-.09-.06-.19-.12-.28-.19-1.62-1.19-3.6-3.28-3.16-7.09" style="fill:#f6bb32; stroke-width:0px;"/><path d="m409.57,50.37c-9.01,0-16.32,7.31-16.33,16.33,0,9.16,7.39,16.33,16.83,16.33,4.87,0,8.77-1.55,13.05-5.19l-5.82-6.83c-2.65,2.25-4.72,2.88-7.41,2.88-1.33.05-2.65-.3-3.78-1l-.3.12-9.09,3.75c-1.7-2.13-2.82-4.67-3.26-7.36l9.21-3.8h0c.27-2.51,1.85-4.68,4.15-5.7.8-.35,1.67-.54,2.55-.53,1.57,0,3.1.53,4.35,1.49.05.04.09.08.14.12l9.02-3.72c.62.87,1.15,1.8,1.59,2.78-2.63-5.88-8.47-9.66-14.91-9.65m14.91,9.67l.02.04-.02-.04m.03.08h0s0,0,0,0m.03.08h0s0,0,0,0m.03.07h0s0,0,0,0m1.79,4.25l-9.05,3.74,9.05-3.74" style="fill:#f6bb32; stroke-width:0px;"/><path d="m424.47,60.02v.02s0-.02,0-.02m.02.05l.02.04-.02-.04m.03.06l.03.06-.03-.06m.03.08l.02.05-.02-.05m.03.07l.03.07,1.76,4.17-1.76-4.17-.03-.07m-10.72.7l-5.55,2.29-5.32,2.2-.33.13c-.45,3.82,1.53,5.91,3.16,7.09.09.07.18.13.28.19l9.98-4.12,1.23-.51s-1.07-5.09-3.46-7.28" style="fill:#f6bb32; stroke-width:0px;"/><path d="m422.88,57.24l-9.02,3.72c2.39,2.19,3.46,7.26,3.46,7.28l9.05-3.74-1.76-4.17-.03-.07h0s-.02-.07-.02-.07h0s-.03-.08-.03-.08h0s-.02-.06-.02-.06l-.02-.04v-.02c-.44-.98-.98-1.91-1.6-2.78m-20.21,8.35l-9.21,3.8c.44,2.69,1.56,5.22,3.26,7.36l9.09-3.75.3-.12c-.09-.06-.19-.12-.28-.19-1.62-1.19-3.6-3.28-3.16-7.09" style="fill:#f6bb32; stroke-width:0px;"/><path d="m41.91,59.33c-4.99,1.14-10.31,3.18-14.42,6.27-1.01.76-1.97,1.62-2.82,2.56-2.06,2.3-3.44,5.18-2.73,8.32,1.02,4.48,5.61,6.58,9.72,7.39,5.05,1,10.72.52,15.71-.62,4.99-1.14,10.31-3.18,14.42-6.27,1.01-.76,1.97-1.62,2.82-2.56,2.06-2.3,3.44-5.18,2.73-8.32-1.02-4.48-5.61-6.58-9.72-7.39-5.05-1-10.72-.52-15.71.62" style="fill:#26292c; fill-rule:evenodd; stroke-width:0px;"/><path d="m42.66,62.61c10.72-2.45,20.3-.55,21.4,4.24,1.1,4.79-6.71,10.66-17.43,13.11-10.72,2.45-20.3.55-21.4-4.24-1.1-4.79,6.71-10.66,17.43-13.11" style="fill:#fff; fill-rule:evenodd; stroke-width:0px;"/><path d="m25.23,75.72c-.48-2.12.77-4.45,3.26-6.61,1.18,6.81,8.48,10.08,21.9,9.81-1.2.39-2.46.74-3.76,1.04-10.72,2.45-20.3.55-21.4-4.24" style="fill:#cbcbcb; fill-rule:evenodd; stroke-width:0px;"/><path d="m40.12,29.83c-7.38-2.44-15.82-3.92-23.6-3.09-5.83.62-12.62,2.79-15.38,8.44-.3.61-.54,1.26-.73,1.91-.42,1.52-.52,3.08-.32,4.64.61,4.82,3.97,9.26,7.41,12.51,6.03,5.7,14.2,9.88,22.05,12.46,7.38,2.44,15.82,3.92,23.6,3.09,5.83-.62,12.61-2.79,15.38-8.44.3-.61.54-1.26.73-1.91.42-1.52.52-3.08.32-4.64-.61-4.82-3.97-9.26-7.41-12.51-6.03-5.7-14.2-9.88-22.05-12.46" style="fill:#26292c; fill-rule:evenodd; stroke-width:0px;"/><path d="m39.04,33.11c17.17,5.66,29.22,17.05,26.9,25.43-2.32,8.38-18.13,10.57-35.3,4.91C13.46,57.78,1.42,46.39,3.74,38.02c2.32-8.38,18.13-10.57,35.3-4.91" style="fill:#fff; fill-rule:evenodd; stroke-width:0px;"/><path d="m28.52,30.56c-12.9,6.64-9.09,16.61,11.43,29.92,1.02.66,2.09,1.33,3.19,2.01.49.3.99.61,1.5.91-.65.88-1.23,1.81-1.63,2.82-2.39-.28-4.87-.73-7.42-1.36-1.32-.33-2.65-.7-3.99-1.12-.32-.1-.65-.21-.97-.31C13.46,57.78,1.42,46.39,3.74,38.02c1.83-6.62,12.09-9.38,24.78-7.45" style="fill:#cbcbcb; fill-rule:evenodd; stroke-width:0px;"/><path d="m119.61,59.33c4.99,1.14,10.31,3.18,14.42,6.27,1.01.76,1.97,1.62,2.82,2.56,2.06,2.3,3.44,5.18,2.73,8.32-1.02,4.48-5.61,6.58-9.72,7.39-5.05,1-10.72.52-15.71-.62-4.99-1.14-10.31-3.18-14.42-6.27-1.01-.76-1.97-1.62-2.82-2.56-2.06-2.3-3.44-5.18-2.73-8.32,1.02-4.48,5.61-6.58,9.72-7.39,5.05-1,10.72-.52,15.71.62" style="fill:#26292c; fill-rule:evenodd; stroke-width:0px;"/><path d="m121.4,29.83c7.38-2.44,15.82-3.92,23.6-3.09,5.83.62,12.61,2.79,15.38,8.44.3.61.54,1.26.73,1.91.42,1.52.52,3.08.32,4.64-.62,4.82-3.97,9.26-7.41,12.51-6.03,5.7-14.2,9.88-22.05,12.46-7.38,2.44-15.82,3.92-23.6,3.09-5.83-.62-12.62-2.79-15.38-8.44-.3-.61-.54-1.26-.73-1.91-.42-1.52-.52-3.08-.32-4.64.61-4.82,3.97-9.26,7.41-12.51,6.03-5.7,14.2-9.88,22.05-12.46" style="fill:#26292c; fill-rule:evenodd; stroke-width:0px;"/><path d="m80.82,35.77c15.37,0,27.83,15.3,27.83,34.16s-12.46,34.16-27.83,34.16-27.83-15.3-27.83-34.16,12.46-34.16,27.83-34.16" style="fill:#26292c; fill-rule:evenodd; stroke-width:0px;"/><path d="m97.51,92.29c-4.36,5.17-10.23,8.33-16.68,8.33s-12.38-3.2-16.75-8.41c10.99,2.79,22.33,2.86,33.43.08m-16.68-53.05c13.45,0,24.36,13.74,24.36,30.69,0,6.28-1.5,12.11-4.07,16.98l-20.37,2.74-20.21-2.71c-2.58-4.87-4.08-10.71-4.08-17,0-16.95,10.91-30.69,24.36-30.69Z" style="fill:#f6bb32; fill-rule:evenodd; stroke-width:0px;"/><path d="m76.01,12.3c1.75-.21,3.53-.3,5.29-.29,1.84.02,3.7.15,5.51.46,5.41.95,9.96,3.78,12.96,8.4,3.49,5.37,4.3,12.27,2.84,18.44-1.22,5.16-4.04,9.89-8.34,13.07-2.98,2.2-6.37,3.66-10.07,4.08-2.33.26-4.91.26-7.23-.05-3.53-.48-6.78-1.91-9.64-4.03-2.36-1.75-4.3-3.98-5.76-6.52-1.18-2.04-2.04-4.26-2.58-6.55-1.46-6.17-.64-13.07,2.84-18.44,3.25-5.01,8.27-7.86,14.16-8.58" style="fill:#26292c; fill-rule:evenodd; stroke-width:0px;"/><path d="m76.54,15.75c-4.89.6-9.04,2.92-11.75,7.09-5.35,8.24-3.33,20.84,4.64,26.74,2.39,1.77,5.1,2.98,8.06,3.38,2.01.27,4.27.27,6.28.04,3.09-.35,5.93-1.58,8.42-3.43,1.98-1.47,3.6-3.34,4.83-5.47,1-1.74,1.73-3.63,2.2-5.58,1.24-5.23.58-11.13-2.38-15.68-2.49-3.84-6.24-6.15-10.73-6.94-3.01-.53-6.54-.52-9.57-.15" style="fill:#f6bb32; fill-rule:evenodd; stroke-width:0px;"/><path d="m70.9,24.5c5.43,0,9.83,4.4,9.83,9.83s-4.4,9.83-9.83,9.83-9.83-4.4-9.83-9.83,4.4-9.83,9.83-9.83" style="fill:#26292c; fill-rule:evenodd; stroke-width:0px;"/><path d="m70.9,26.33c4.42,0,8,3.58,8,8s-3.58,8-8,8-8-3.58-8-8,3.58-8,8-8" style="fill:#fff; fill-rule:evenodd; stroke-width:0px;"/><path d="m70.9,28.74c3.09,0,5.59,2.5,5.59,5.59s-2.5,5.59-5.59,5.59-5.59-2.5-5.59-5.59,2.5-5.59,5.59-5.59" style="fill:#26292c; fill-rule:evenodd; stroke-width:0px;"/><path d="m70.9,28.56c.82,0,1.49.67,1.49,1.49s-.67,1.49-1.49,1.49-1.49-.67-1.49-1.49.67-1.49,1.49-1.49" style="fill:#fff; fill-rule:evenodd; stroke-width:0px;"/><path d="m90.73,24.5c5.43,0,9.83,4.4,9.83,9.83s-4.4,9.83-9.83,9.83-9.83-4.4-9.83-9.83,4.4-9.83,9.83-9.83" style="fill:#26292c; fill-rule:evenodd; stroke-width:0px;"/><path d="m90.73,26.33c4.42,0,8,3.58,8,8s-3.58,8-8,8-8-3.58-8-8,3.58-8,8-8" style="fill:#fff; fill-rule:evenodd; stroke-width:0px;"/><path d="m90.73,28.74c3.09,0,5.59,2.5,5.59,5.59s-2.5,5.59-5.59,5.59-5.59-2.5-5.59-5.59,2.5-5.59,5.59-5.59" style="fill:#26292c; fill-rule:evenodd; stroke-width:0px;"/><path d="m90.73,28.56c.82,0,1.49.67,1.49,1.49s-.67,1.49-1.49,1.49-1.49-.67-1.49-1.49.67-1.49,1.49-1.49" style="fill:#fff; fill-rule:evenodd; stroke-width:0px;"/><path d="m77.51,16.33c-2.33-3.6-4.81-6.45-7.42-8.55-2.3-1.85-4.71-3.13-7.22-3.82-.25-2.22-2.13-3.95-4.42-3.95-2.46,0-4.45,1.99-4.45,4.45s1.99,4.45,4.45,4.45c1.36,0,2.58-.61,3.4-1.58,2.08.56,4.1,1.63,6.04,3.19,2.23,1.79,4.37,4.24,6.41,7.33,1.36,2.06,4.32.2,3.21-1.52M103.17,0c-2.29,0-4.17,1.73-4.42,3.95-2.51.7-4.92,1.97-7.22,3.82-2.61,2.1-5.08,4.95-7.42,8.55-1.11,1.71,1.84,3.57,3.21,1.52,2.05-3.09,4.19-5.54,6.41-7.33,1.95-1.57,3.96-2.63,6.04-3.19.82.97,2.04,1.58,3.4,1.58,2.46,0,4.45-1.99,4.45-4.45s-1.99-4.45-4.45-4.45Z" style="fill:#26292c; fill-rule:evenodd; stroke-width:0px;"/><path d="m70.63,50.39l6.22-1.1c-.68-2.05-1.25-4.08-1.69-6.1-1.29.62-2.74.97-4.26.97-.97,0-1.91-.14-2.79-.4-1.01-.3-1.95-.76-2.8-1.34-.99-.68-1.84-1.54-2.52-2.53.38,1.21.86,2.39,1.44,3.51.45.85.95,1.67,1.52,2.44,1.04,1.42,2.27,2.69,3.69,3.74.39.29.79.56,1.19.82m-8.54-20.43c1.61-3.24,4.95-5.46,8.81-5.46,1.29,0,2.53.25,3.66.7.34-2.17.84-4.32,1.5-6.46-.61.05-1.27-.19-1.74-.9-.32-.49-.65-.96-.98-1.42-3.49,1.07-6.45,3.19-8.54,6.41-1.39,2.14-2.29,4.58-2.7,7.12Z" style="fill:#facd59; fill-rule:evenodd; stroke-width:0px;"/><path d="m122.48,33.11c-9.27,3.06-17.04,7.78-21.87,12.8,4.33,5.38,7.23,12.51,7.9,20.45,6.26.7,14.16-.21,22.38-2.91,17.17-5.66,29.22-17.05,26.9-25.43-2.32-8.38-18.13-10.57-35.3-4.91" style="fill:#fff; fill-rule:evenodd; stroke-width:0px;"/><path d="m133,30.56c12.9,6.64,9.09,16.61-11.43,29.92-1.02.66-2.09,1.33-3.19,2.01-.49.3-.99.61-1.5.91.65.88,1.23,1.81,1.63,2.82,2.39-.28,4.87-.73,7.42-1.36,1.32-.33,2.65-.7,3.99-1.12.32-.1.65-.21.97-.31,17.17-5.66,29.22-17.05,26.9-25.43-1.83-6.62-12.09-9.38-24.78-7.45" style="fill:#cbcbcb; fill-rule:evenodd; stroke-width:0px;"/><path d="m111.13,78.93c1.2.39,2.46.74,3.76,1.04,10.72,2.45,20.3.55,21.4-4.24.63-2.77-1.71-5.9-5.86-8.52-3.62,1.11-7.46,1.97-11.33,2.44-.06,1.36-.44,2.68-1.05,3.99-1.25,2.89-3.55,4.66-6.64,5.26h-.05s-.05.02-.05.02l-.17.02Z" style="fill:#fff; fill-rule:evenodd; stroke-width:0px;"/><path d="m136.29,75.72c.49-2.12-.77-4.45-3.26-6.61-1.18,6.81-8.48,10.08-21.9,9.81,1.2.39,2.46.74,3.76,1.04,10.72,2.45,20.3.55,21.4-4.24" style="fill:#cbcbcb; fill-rule:evenodd; stroke-width:0px;"/><polygon points="50.83 53.23 80.75 47.95 110.66 53.23 110.66 85.92 80.75 91.21 50.83 85.92 50.83 53.23" style="fill:#26292c; fill-rule:evenodd; stroke-width:0px;"/><polygon points="82.01 87.97 107.69 83.43 107.69 69.58 107.69 55.73 82.01 51.19 82.01 87.97" style="fill:#a7956a; fill-rule:evenodd; stroke-width:0px;"/><polygon points="53.81 55.73 53.81 69.58 53.81 83.43 79.49 87.97 79.49 51.19 53.81 55.73" style="fill:#b4ac99; fill-rule:evenodd; stroke-width:0px;"/><rect x="79.05" y="50.2" width="3.4" height="39.34" style="fill:#26292c; stroke-width:0px;"/><path d="m109.56,65.31c-.28-.41-.53-.79-.71-1.34-.16-.5-.21-1.03-.14-1.55.21-1.51,1.28-2.87,2.78-3.27.96-.26,1.95-.13,2.75.49.54.41.88.96,1.15,1.57.09.2.17.46.26.66,1.24,1.49,2.45,3.05,3.06,4.92.76,2.36.38,4.64-.66,6.84-1.25,2.89-3.55,4.66-6.64,5.26h-.05s-.05.02-.05.02c-2.14.3-4.91.32-6.3-1.66-.32-.45-.51-.95-.61-1.46-1.53-1.08-1.99-2.69-1.35-4.39-1.33-2.16-.2-4.59,2.56-5.59.76-.27,1.48-.39,2.29-.41.68-.02,1.18-.02,1.67-.08" style="fill:#26292c; fill-rule:evenodd; stroke-width:0px;"/><path d="m116.23,72.81c2.05-4.33.22-6.88-2.19-9.76-.48-.57-.52-2.39-2.04-1.98-.74.2-1.22.93-1.32,1.62-.19,1.35,1.48,1.9,1.39,3.93-2.82,1.26-3.9.37-5.8,1.06-1.78.64-2.4,1.91-1.13,3.2.66.17,1.82.16,3.02.02,1.07-.13,2.12-.36,2.81-.65,1.1-.47,2.01.52.95,1.08-.85.45-2.24.79-3.6.96-1.29.16-2.6.16-3.48-.05-.29.93.08,1.65,1.11,2.18l.03-.06c.26.13,2.05-.02,3.72-.33.62-.12,1.21-.26,1.66-.41,1.03-.35,2.54.35.99,1.08-.64.3-1.5.53-2.39.7-1.23.23-2.6.35-3.53.34.44,1.17,1.97,1.57,4.6,1.21,2.5-.48,4.23-1.85,5.2-4.12" style="fill:#fff; fill-rule:evenodd; stroke-width:0px;"/><path d="m117.12,69.43c-.81,1.86-3.18,3.03-7.1,3.49-.66.08-1.37.14-2.13.18-.06,0-.13,0-.2,0-.83.04-1.71.05-2.64.04-.09,0-.18,0-.27,0,.04.18.12.34.22.5.2.29.51.54.95.76.02-.04,2.7.08,5.41-.8,1.03-.34,2.54.35.99,1.08h-.03s0,.01,0,.01h-.03s0,.01,0,.01h-.03s0,.01,0,.01h-.03s0,.01,0,.01h-.03s0,.01,0,.01h-.03s0,.01,0,.01h-.03s0,.01,0,.01h-.03s0,.01,0,.01h-.03s0,.01,0,.01h-.03s0,.01,0,.01h-.03s0,.01,0,.01h-.03s0,.01,0,.01h-.02s0,.01,0,.01h-.02s0,.01,0,.01h-.02s-.01.01-.01.01h-.02s-.01.01-.01.01h-.02s-.01.01-.01.01h-.02s-.01.01-.01.01h-.02s-.01.01-.01.01h-.02s-.01.01-.01.01h-.02s-.02.01-.02.01h-.02s-.02.01-.02.01h-.02s-.02.01-.02.01h-.02s-.02.01-.02.01h-.02s-.02.01-.02.01h-.02s-.02.01-.02.01h-.02s-.02.01-.02.01h-.02s-.02.01-.02.01h-.02s-.02.01-.02.01h-.01s-.02.01-.02.01h-.01s-.02.01-.02.01h-.01s-.02.01-.02.01h-.01s-.03.01-.03.01h-.01s-.03.01-.03.01h-.01s-.03.01-.03.01h-.01s-.03.01-.03.01h0s-.03.01-.03.01h0s-.03.01-.03.01h0s-.03.01-.03.01h0s-.03.01-.03.01h0s-.03.01-.03.01h0s-.03,0-.03,0h0s-.03.01-.03.01h0s-.04,0-.04,0h0s-.04,0-.04,0h0s-.04,0-.04,0h0s-.04,0-.04,0h0s-.04,0-.04,0h-.04s0,0,0,0h-.04s0,0,0,0h-.04s0,0,0,0h-.04s0,0,0,0h-.04s0,0,0,0h-.04s0,0,0,0h-.04s0,0,0,0h-.03s0,0,0,0h-.03s0,0,0,0h-.03s0,0,0,0h-.03s0,0,0,0h-.03s-.01,0-.01,0h-.03s-.01,0-.01,0h-.03s-.01,0-.01,0h-.03s0,0,0,0h0s0,0,0,0h0s0,0,0,0h0s0,0,0,0h0s0,0,0,0h0s0,0,0,0h0s0,0,0,0h0s0,0,0,0h0s0,0,0,0h-.04s-.04.01-.04.01h-.02s-.02,0-.02,0h-.04s-.04.01-.04.01h0s-.03,0-.03,0h-.04s-.02.01-.02.01h-.01s-.07.01-.07.01h0s-.03,0-.03,0h-.04s-.03.01-.03.01h0s-.04,0-.04,0h-.04s-.01,0-.01,0h-.03s-.04,0-.04,0h-.03s0,0,0,0h-.04s-.04.01-.04.01h-.01s-.02,0-.02,0h-.04s-.03.01-.03.01h0s-.04,0-.04,0h-.04s-.02,0-.02,0h-.02s-.04,0-.04,0h-.04s0,0,0,0h-.03s-.04,0-.04,0h-.02s-.01,0-.01,0h-.04s-.04,0-.04,0h0s-.03,0-.03,0h-.04s-.03,0-.03,0h-.01s-.04,0-.04,0h-.04s0,0,0,0h-.03s-.04,0-.04,0h-.03s0,0,0,0h-.04s-.04,0-.04,0h-.01s-.02,0-.02,0h-.04s-.12.02-.12.02h-.02s-.07,0-.07,0h-.04s-.03,0-.03,0h-.02s-.01,0-.01,0h-.03s-.03,0-.03,0h0s-.06,0-.06,0h-.02s-.01,0-.01,0h-.07s0,0,0,0h-.03s-.03,0-.03,0h-.03s0,0,0,0h0s0,0,0,0h0s0,0,0,0h0s0,0,0,0h0s0,0,0,0h0s0,0,0,0h0s0,0,0,0h0s0,0,0,0h0s0,0,0,0h0s0,0,0,0h0s0,0,0,0h0s0,0,0,0h0s0,0,0,0h0s-.02,0-.02,0h-.02s-.02,0-.02,0h-.02s-.02,0-.02,0h-.02s-.02,0-.02,0h-.02s0,0,0,0h-.02s-.02,0-.02,0h-.02s-.02,0-.02,0h0s-.01,0-.01,0h-.02s-.02,0-.02,0h-.02s-.01,0-.01,0h0s-.02,0-.02,0h-.02s-.02,0-.02,0h-.02s0,0,0,0h-.02s-.02,0-.02,0h-.02s-.02,0-.02,0h0s-.02,0-.02,0h-.02s-.02,0-.02,0h-.02s0,0,0,0h-.01s-.02,0-.02,0h-.02s-.02,0-.02,0h0s-.01,0-.01,0h-.02s-.02,0-.02,0h-.02s-.01,0-.01,0h0s-.02,0-.02,0h-.02s-.02,0-.02,0h-.02s0,0,0,0h-.02s-.02,0-.02,0h-.02s-.02,0-.02,0h-.02s-.02,0-.02,0h-.02s-.02,0-.02,0h-.03s-.02,0-.02,0h-.03s-.02,0-.02,0h-.13c.17.46.51.8,1.02,1.02.08.03.16.07.25.09.59.2,1.36.26,2.32.2.32-.02.65-.06,1.01-.11,2.5-.48,4.23-1.85,5.2-4.12.6-1.26.86-2.37.88-3.39" style="fill:#cbcbcb; fill-rule:evenodd; stroke-width:0px;"/><path d="m51.96,65.31c.28-.41.53-.79.71-1.34.16-.5.21-1.03.14-1.55-.21-1.51-1.28-2.87-2.78-3.27-.96-.26-1.95-.13-2.75.49-.54.41-.88.96-1.15,1.57-.09.2-.17.46-.26.66-1.24,1.49-2.45,3.05-3.06,4.92-.76,2.36-.38,4.64.66,6.84,1.25,2.89,3.55,4.66,6.64,5.26h.05s.05.02.05.02c2.14.3,4.91.32,6.3-1.66.32-.45.51-.95.61-1.46,1.53-1.08,1.99-2.69,1.35-4.39,1.33-2.16.2-4.59-2.56-5.59-.76-.27-1.48-.39-2.29-.41-.68-.02-1.18-.02-1.67-.08" style="fill:#26292c; fill-rule:evenodd; stroke-width:0px;"/><path d="m45.29,72.81c-2.05-4.33-.22-6.88,2.19-9.76.48-.57.52-2.39,2.04-1.98.74.2,1.22.93,1.32,1.62.19,1.35-1.48,1.9-1.39,3.93,2.82,1.26,3.9.37,5.8,1.06,1.9.69,2.48,2.09.85,3.46,1.15,1.58.85,2.73-.89,3.44.21,2.04-1.36,2.82-4.71,2.36-2.5-.48-4.23-1.85-5.2-4.12" style="fill:#fff; fill-rule:evenodd; stroke-width:0px;"/><path d="m56.62,70.78c-.57.26-1.9.27-3.26.1-1.07-.13-2.12-.36-2.81-.65-1.1-.47-2.01.52-.95,1.08.85.45,2.24.79,3.6.96,1.58.19,3.19.15,4-.22l-.57-1.27Z" style="fill:#26292c; stroke-width:0px;"/><path d="m55.54,74.35c-.26.13-2.05-.02-3.72-.33-.62-.12-1.21-.26-1.66-.41-1.03-.35-2.54.35-.99,1.08.64.3,1.5.53,2.39.7,1.91.36,4.14.44,4.59.22l-.61-1.25Z" style="fill:#26292c; stroke-width:0px;"/><path d="m44.4,69.43c.81,1.86,3.18,3.03,7.1,3.49.66.08,1.37.14,2.13.18.06,0,.13,0,.2,0,.83.04,1.71.05,2.64.04.09,0,.18,0,.27,0-.04.18-.12.34-.22.5-.2.29-.52.54-.95.76l-.03-.06c-.15.07-.83.05-1.71-.04-.03,0-.06,0-.09,0-.59-.07-1.27-.16-1.93-.29-.11-.02-.21-.04-.31-.06-.5-.1-.97-.22-1.34-.35-1.03-.35-2.54.35-.99,1.08.62.29,1.46.52,2.34.69.02,0,.04,0,.06.01.75.14,1.55.24,2.27.29.03,0,.06,0,.08,0,.43.03.84.04,1.18.04-.17.46-.51.8-1.02,1.02-.08.03-.16.07-.25.1-.59.2-1.36.26-2.32.2-.32-.02-.65-.06-1.01-.11-2.5-.48-4.23-1.85-5.2-4.12-.6-1.26-.86-2.37-.88-3.38" style="fill:#cbcbcb; fill-rule:evenodd; stroke-width:0px;"/><path d="m73.85,100.94l6.97,19.31c.01-.34.02-.68,0-1.02-.02.34-.01.68,0,1.02l6.97-19.31c-2.15,1.33-4.5,2.07-6.97,2.07s-4.82-.74-6.97-2.07" style="fill:#26292c; fill-rule:evenodd; stroke-width:0px;"/></g></svg>