<?xml version="1.0" encoding="UTF-8"?><svg id="Layer_2" xmlns="http://www.w3.org/2000/svg" xmlns:xlink="http://www.w3.org/1999/xlink" viewBox="0 0 254.72 414.89"><defs><style>.cls-1{fill:url(#linear-gradient);}.cls-1,.cls-2,.cls-3,.cls-4,.cls-5,.cls-6,.cls-7,.cls-8,.cls-9,.cls-10,.cls-11,.cls-12,.cls-13,.cls-14,.cls-15{fill-rule:evenodd;}.cls-16,.cls-4{fill:#51342a;}.cls-17{fill:#68153e;opacity:.22;}.cls-2{fill:url(#Azul);}.cls-3{fill:#589f92;}.cls-5{fill:#77af8f;}.cls-6{fill:#1f9ad6;}.cls-7{fill:#ff95a0;}.cls-8{fill:#ff756f;}.cls-9{fill:#9d786d;}.cls-10{fill:#fff;}.cls-11{fill:#ffded4;}.cls-12{fill:#ffb8b3;}.cls-13{fill:url(#linear-gradient-3);}.cls-14{fill:url(#linear-gradient-2);}.cls-15{fill:url(#linear-gradient-4);}</style><linearGradient id="linear-gradient" x1="152.59" y1="275.94" x2="152.59" y2="270.05" gradientTransform="translate(-13.3 7.65) rotate(-2.86)" gradientUnits="userSpaceOnUse"><stop offset=".31" stop-color="#312781"/><stop offset="1" stop-color="#46396a"/></linearGradient><linearGradient id="Azul" x1="159.42" y1="270.05" x2="159.42" y2="264.16" gradientTransform="translate(-13.3 7.65) rotate(-2.86)" gradientUnits="userSpaceOnUse"><stop offset="0" stop-color="#47bfef"/><stop offset=".5" stop-color="#009fe2"/><stop offset="1" stop-color="#008ad1"/></linearGradient><linearGradient id="linear-gradient-2" x1="154.71" y1="271.02" x2="157.31" y2="268.42" gradientTransform="translate(-13.3 7.65) rotate(-2.86)" gradientUnits="userSpaceOnUse"><stop offset=".01" stop-color="#43adcb"/><stop offset=".5" stop-color="#008db2"/><stop offset=".99" stop-color="#00747e"/></linearGradient><linearGradient id="linear-gradient-3" x1="159.42" y1="275.94" x2="159.42" y2="270.05" gradientTransform="translate(-13.3 7.65) rotate(-2.86)" gradientUnits="userSpaceOnUse"><stop offset="0" stop-color="#b880b6"/><stop offset="1" stop-color="#782180"/></linearGradient><linearGradient id="linear-gradient-4" x1="157.31" y1="271.68" x2="154.71" y2="269.08" gradientTransform="translate(-13.3 7.65) rotate(-2.86)" gradientUnits="userSpaceOnUse"><stop offset="0" stop-color="#4a3489"/><stop offset=".5" stop-color="#6a5ba2"/><stop offset="1" stop-color="#8377b3"/></linearGradient></defs><g id="Layer_1-2"><path class="cls-3" d="m64.72,27.84c2.89-.84,4.35-2.63,5.58-5.04,3.04-5.93,7.34-10.94,12.52-15.14,3.04-2.47,6.33-4.48,10.66-4.45,1.55,2.24,1.01,4.48.1,6.67-1.45,3.5-3.84,6.34-6.5,8.97-.84.83-1.84,1.52-2.56,2.44-.3.38-.29,1.42.01,1.75.33.35,1.19.33,1.78.24.46-.07.93-.44,1.27-.79,1.96-2.05,4.5-2.86,7.16-3.54,3.11-.78,6.13-1.94,9.26-2.62,5.81-1.27,11.7-1.81,17.65-1.14,7.39.83,14.82,1.42,22.14,2.65,8.18,1.38,15.9,4.57,23.71,7.3,5.89,2.06,11.79,4.07,17.38,6.99,7.37,3.85,13.2,9.36,18.26,15.77,1.25,1.59,2.61,3.04,3.94,4.54,7.81,8.89,15.46,17.92,23.14,26.93,2.14,2.51,3.04,5.64,3.85,8.75.64,2.46-.93,5.2-3.42,6.08-2.91,1.03-5.86,1.3-8.96.52-5.82-1.48-10.98-4.31-16.06-7.39-1.29-.78-2.59-1.62-4-2.13-.63-.23-1.66.08-2.26.51-.37.26-.48,1.27-.31,1.82.4,1.28,1.09,2.47,1.56,3.73.22.6.22,1.28.36,2.25-1.08.26-2,.68-2.91.67-4.15-.05-8.06-1.35-11.6-3.32-5.75-3.21-11.43-6.59-16.87-10.29-7.97-5.42-15.7-11.19-22.78-17.77-.25-.23-.47-.56-.76-.65-.75-.24-1.64-.69-2.28-.47-.91.3-.88,1.36-.58,2.18.64,1.74,1.24,3.52,2.08,5.17,1.68,3.31,3.53,6.54,5.28,9.83,1.03,1.94,2.14,3.86,2.92,5.89.53,1.37.71,2.94.76,4.42.05,1.5-.89,2.59-2.34,2.94-1.47.35-3,.59-4.5.59-5.09.02-10.12-.47-15.05-1.84-17.04-4.73-32.35-12.73-45.83-24.18-1.39-1.18-2.47-2.72-3.76-4.04-.91-.94-1.92-1.78-3.02-2.78-.48.66-1,1.04-1,1.42.02,4.24-.68,8.4-1.68,12.49-1.78,7.25-4.45,14.17-8.12,20.7-1.11,1.97-2.46,3.46-4.61,4.46-3.2,1.49-6.2,3.42-9.51,5.3-1.19-.02-1.62-1.21-2.07-2.27-1.62-3.84-1.57-7.93-1.51-11.98.04-2.87.49-5.73.64-8.59.03-.54-.36-1.35-.81-1.62-.91-.57-1.63.14-2.04.89-.65,1.18-1.13,2.45-1.73,3.66-2.38,4.87-4.82,9.73-8.65,13.65-1.99,2.04-4.18,3.97-6.57,5.51-4.33,2.79-8.58.48-8.79-4.62-.17-4.07.32-8.1,1.31-12.06.41-1.63.95-3.24,1.37-4.87,1.47-5.79,3.77-11.16,7.24-16.08,4.47-6.35,8.68-12.9,13.08-19.3,1.53-2.22,3.27-4.31,5.01-6.38,1.32-1.58,2.82-2.89,5.15-2.73.42.03,1.19-.7,1.3-1.19.22-1-.59-1.47-1.47-1.65-.99-.19-2.06-.15-3-.47-1.58-.54-3.24-1.08-4.6-2.01-2.71-1.86-3.33-5.27-1.68-8.11,1.12-1.93,2.86-2.86,5.09-2.64,3.45.33,6.56,1.55,9.27,3.75,1.16.94,2.31,1.9,3.34,2.74Z"/><path class="cls-11" d="m23.2,107.65c5.3.6,8.78,3.45,12.44,5.75,4.7,2.95,9.52,5.84,12.44,9.93.51,5.2.69,9.77,1.47,14.24,1.14,6.58,4.66,11.88,9.78,16.14,8.06,6.69,17.25,9.71,27.76,8.74,11.63-1.07,21.4-9.09,24.47-20.44.92-3.41,1.47-6.93,2.26-10.68,3.98-2.4,8.66-3.04,13.34-3.51,2.21-.22,2.81.19,6.7,2.5.24,2.02.53,4.18.74,6.35.94,9.76,5.75,17.11,13.77,22.57,8.41,5.71,17.7,7.83,27.54,5.79,10.31-2.14,17.53-8.4,21.02-18.56,1.72-5.01,2.31-10.22,2.29-15.49,0-1.85.5-3.26,1.96-4.4,7.51-5.84,15.43-10.98,24.48-14.14.29-.1.66-.01,1.06-.01,1.13.56.76,1.69.78,2.62.12,7.16-1.42,14.11-2.68,21.1-.45,2.5-.54,5.23-1.69,7.38-2.07,3.91-1.63,8.56-4.2,12.28-2.49,3.61-4.72,7.41-6.98,11.18-2.96,4.93-6.08,9.76-9.85,14.12-4.2,4.85-8.24,9.92-12.92,14.27-8.41,7.82-18.05,13.63-29.59,15.76-1.48.27-2.93.82-4.34,1.4-3.49,1.42-7.12,2.18-10.86,2.3-5.07.17-10.14.24-15.21.27-1.51.01-3.06-.09-4.54-.42-7.27-1.63-14.64-2.54-22-3.58-6.4-.9-12.42-3.14-18.31-5.75-2.16-.96-4.36-1.81-6.53-2.76-4.17-1.82-8.34-3.66-12.5-5.51-.45-.2-.88-.52-1.25-.86-6.23-5.71-12.86-10.99-18.44-17.39-4.14-4.74-7.71-9.84-10.31-15.6-1.18-2.62-2.47-5.19-3.65-7.81-3.14-6.95-6.01-13.98-6.7-21.7-.6-6.73-1.33-13.45-1.9-20.18-.16-1.83.07-3.69.14-5.89Zm98.31,46.31c0,.13-.01.26-.02.39-2.86,0-5.72-.08-8.58.03-1.86.07-2.9,1.18-3.61,2.98-1.26,3.2-.27,6.3-.16,9.46.29,7.8,10.6,15.83,18.83,14.81,5.23-.65,8.84-3.06,10.66-7.97,1.54-4.14,1.9-8.54,2.24-12.89.22-2.82-1.13-4.4-3.81-5.21-.96-.29-1.97-.44-2.97-.53-4.19-.38-8.39-.72-12.58-1.07Z"/><path class="cls-11" d="m149.67,69.67c3.61,2.76,6.25,4.83,8.95,6.83,8.02,5.93,16.03,11.88,24.97,16.38,3.15,1.58,6.53,2.75,9.91,3.77,1.89.57,4,.64,6.01.59,2.98-.08,4.12-1.28,4.6-4.3.11-.66.11-1.33.19-2.34,3.82,1.86,7.33,3.89,11.08,5.3,3.59,1.36,7.43,2.07,11.64,3.2,1.07,2.59.45,5.74.45,8.81-5.13,2.46-10.12,4.55-14.8,7.17-4.55,2.55-8.8,5.64-13.21,8.52-1.55-.59-1.36-2.14-1.79-3.32-4.29-11.66-19.2-25.02-37.41-21.21-1.31.27-2.6.71-3.87,1.13-.8.26-1.57.96-2.32.91-2.92-.18-5.11,1.49-7.53,2.62-5.82,2.73-9,7.49-10.44,13.55-.66,2.77-1.16,5.59-1.79,8.65-.75-.08-1.42,0-1.95-.23-2.92-1.29-5.91-1.28-8.95-.63-3.12.67-6.23,1.41-9.53,2.17-1.07-4.81-1.19-9.81-3.83-14.11-2.6-4.22-5.84-7.85-9.72-10.92-3.92-3.09-8.38-4.96-13.21-6.13-4.88-1.18-9.7-.63-14.85.15.11-2.39,1.53-3.92,2.2-5.71.71-1.9,1.57-3.74,2.31-5.62.68-1.73,1.36-3.46,1.91-5.24.6-1.93,1.09-3.9,1.55-5.88.45-1.97.81-3.96,1.21-5.95,1.46-.76,2.16.52,2.97,1.21,6.22,5.25,12.91,9.82,20,13.8,9.64,5.4,19.87,9.28,30.63,11.81,4.31,1.02,8.69,1.19,13.09,1.2.84,0,1.68-.12,2.52-.25,5.23-.81,7.35-3.56,6.65-8.79-.18-1.32-.59-2.65-1.16-3.86-1.08-2.29-2.36-4.48-3.52-6.72-.91-1.76-2.22-3.34-2.96-6.57Z"/><path class="cls-8" d="m179.9,297.35c-.12.45-.38,1.24-.53,2.06-.53,2.79-.32,3.17,2.46,4.69.29.16.62.26.91.43.13.08.21.25.54.67-.19.88-.39,2-.69,3.1-.51,1.82-1.79,2.72-3.62,3.07-4.15.8-8.27,1.72-12.41,2.55-7.12,1.41-14.25,2.8-21.39,4.15-7.25,1.37-14.46,1.14-21.61-.66-1.31-.33-2.6-.73-3.87-1.19-1.7-.61-2.9-1.7-3.15-3.6-.18-1.31-.39-2.62-.61-4.09,1.39-.64,2.63-1.12,3.77-1.76,3.15-1.78,3.77-3.58,2.7-7.14-.23-.74-.58-1.79-.25-2.31,1.93-3.11.47-5.06-2.09-6.66,1.75-4.14,3.54-4.34-2.32-9.07.72-1.02,1.45-2.06,2.14-3.04.48.07.91,0,1.06.17,1.86,2.3,4.46,3.09,7.2,3.18,12.33.41,24.68.86,36.79-2.25.98-.25,1.96-.52,2.93-.83,2.09-.69,3.38-2.08,3.9-4.26,1-4.17.59-8.41.59-12.61,0-.62-.84-1.56-1.49-1.78-1.25-.43-2.64-.65-3.96-.62-8.95.23-17.89.53-26.84.86-2.87.11-5.73.36-8.6.55q-4.43.29-8.33-1.05c-1.45.55-1.89,1.9-2.09,3.2-.29,1.82-.29,3.69-.41,5.54-.12,1.82.28,3.7-.72,5.74-2.18-.76-4.34-1.51-6.37-2.22-.86-3.97-1.07-12.29-.49-18.67.87-.1,1.81-.33,2.75-.3,3.55.12,7.09.28,10.63.5,7.97.5,15.86-.19,23.73-1.48,2.66-.44,5.37-.52,8.06-.77,3.7-.34,7.4-.66,11.1-1.05,1-.1,1.99-.39,2.97-.65,4.64-1.21,5.22-1.71,7.32-6.53.42.77.83,1.26.97,1.82,1.74,6.93,2.15,13.99,2.2,21.27-1.19.95-2.36,1.88-3.52,2.83-.92.75-1.85,1.48-2.72,2.28-3.36,3.14-3.51,4.55-1.01,8.73-.09.3-.1.67-.29.9-3.38,4.29-3.33,4.74,1.32,8.67,0,1.29-.4,2.96.12,4.25.5,1.25,1.95,2.11,3.24,3.4Z"/><path class="cls-11" d="m196.29,131.87c-.18,4.79-.78,9.49-2.45,13.95-3.65,9.74-10.74,15.31-21.08,16.52-9.76,1.14-18.31-1.82-25.81-8.08-4.58-3.82-7.55-8.64-8.74-14.45-1.7-8.29-.84-16.45,1.77-24.45,1.09-3.32,3.03-6.01,6.11-7.78.44-.26.87-.71,1.32-.73,3.33-.16,5.89-2.29,8.86-3.39,10.87-4.01,20.63-1.84,29.31,5.41,4.56,3.82,8.46,8.34,9.66,14.47.55,2.8.72,5.68,1.06,8.52Zm-29.04-.23c.03-4.01-3.69-7.64-7.92-7.71-4.01-.07-7.4,3.35-7.39,7.45,0,4.21,3.5,7.36,8.08,7.29,3.98-.06,7.2-3.19,7.23-7.03Z"/><path class="cls-11" d="m55.91,108.9c3.15.01,5.94-1.06,8.41-2.93.92-.7,1.9-1.38,2.64-2.26,2.29-2.73,5.2-4.18,8.67-4.78,9.12-1.56,17.04,1.02,24.1,6.75.13.11.24.23.37.34,7.72,6.46,11.07,14.79,10.19,24.73-.34,3.85-.96,7.75-2.03,11.45-2.7,9.3-11.6,16.22-21.23,17.12-8.81.83-16.73-1.34-23.87-6.56-6.19-4.52-10.01-10.48-11.1-18.07-1.12-7.84-.34-15.52,2.42-22.96.35-.93.9-1.79,1.44-2.85Zm29.42,29.62c4.29-.11,8.1-4.01,7.95-8.13-.14-3.88-3.42-6.89-7.3-6.71-3.97.19-7.72,4-7.75,7.88-.02,3.81,3.3,7.07,7.1,6.97Z"/><path class="cls-9" d="m91.72,337.41c-.97-5.75,1.61-22.92,5.15-34.88,3.06-.9,5.09,2.21,7.91,2.28,2.88.07,4.75,2.44,7.54,3.1.37,1.7.85,3.31,1.07,4.95.47,3.44,2.47,5.45,5.65,6.44,2.41.75,4.85,1.41,7.6,2.2,0,1.33.22,2.67-.04,3.91-.94,4.63-1.98,9.24-3.09,13.84-.73,3.03-1.36,3.6-4.52,3.74-4.22.19-8.45.08-12.58-.98-4.9-1.26-9.8-2.55-14.69-4.6Z"/><path class="cls-9" d="m140.74,321.98c9.2-1.33,18.29-3.85,27.54-5.02,2.65,6.27,4.55,18.41,3.83,24.25-2.97,1.34-6.22.47-9.35.79-3.19.33-6.41.59-9.61.49-3.16-.11-6.4.08-9.37-.71-2.13-5.52-3.67-15.43-3.05-19.8Z"/><path class="cls-10" d="m124.16,264.63c14.87-1.07,29.6-2.68,44.72-1.81.7,3.65.57,7.11-.09,10.59-.33,1.76-1.6,2.51-3.2,2.8-4.98.9-9.93,2.18-14.95,2.54-6.55.47-13.16.26-19.74.19-1.83-.02-3.66-.46-5.47-.84-1.09-.23-1.76-1.15-1.76-2.22,0-3.68-.26-7.38.48-11.25Z"/><path class="cls-11" d="m19.66,106.21c.33,6.39.6,12.44.98,18.48.38,5.99,1.9,11.86,2.3,17.97-2.89.18-4.9-1.07-6.84-2.38-4.3-2.91-7.43-6.85-9.59-11.52-2.37-5.09-4-10.4-3.34-16.13.43-3.77,1.53-7.25,4.64-9.78,3.08-2.5,6.68-2.33,9.48.57.93.96,1.74,2.04,2.37,2.79Z"/><path class="cls-11" d="m226.45,145.09c.14-1.25.19-2.23.37-3.18.86-4.8,1.91-9.58,2.57-14.41.64-4.66.9-9.37,1.28-14.06.36-4.51,3.18-7.65,7.45-8.25,1.94-.27,3.66.14,5.16,1.45,2.23,1.93,3.84,4.22,4.41,7.17.63,3.21.63,6.44-.55,9.47-3.62,9.27-9.9,16.32-18.5,21.29-.53.31-1.24.31-2.19.53Z"/><path class="cls-11" d="m184.67,293.85c-1.89-.32-3.35-.56-5.2-.87.43-.98.61-1.78,1.07-2.33.79-.96,2.77-1.25,2.13-2.98-.62-1.68-2.4-.56-3.59-.98-.89-.32-1.74-.75-2.43-1.06-.19-1.64.74-2.15,1.6-2.65,1.45-.84,2.97-1.56,4.4-2.45.32-.2.53-.91.44-1.31-.09-.41-.56-.92-.96-1.03-.8-.21-1.7-.05-2.49-.29-.92-.27-1.75-.8-2.86-1.33,2.2-4.62,6.68-6.25,10.39-9.02-.46-1.57-1.07-3.09-1.31-4.66-.22-1.47-.05-3.01-.05-4.87.69.14,1.34.1,1.79.39,1.91,1.21,3.08,3.08,4.09,5.04,1.9,3.65,2.98,7.58,2.92,11.66-.08,5.87-.33,11.76-.85,17.6-.36,4.11-5.38,8.24-9.56,8.37-.95.03-1.93-1.14-1.61-2.12.53-1.56,1.22-3.06,2.06-5.11Z"/><path class="cls-11" d="m109.2,267.36q.4,3.32-1.18,6.91c2.62,1.34,5.93.63,8.69,2.7-.55.78-.9,1.51-1.45,2.02-.99.91-2.17,1.61-3.13,2.54-.42.41-.76,1.23-.64,1.76.11.5.81,1.07,1.36,1.22,1.12.31,2.35.24,3.47.55.71.2,1.3.81,1.94,1.23-.97,2.28-3.07,2.27-4.64,3.11-.38.21-.86.8-.81,1.15.09.57.43,1.34.9,1.58,1.03.53,2.22.74,3.31,1.17.86.34,1.68.81,2.51,1.22-1.09,2.6-4.07,1.07-5.31,3.25.89,1.56,2.97,1.5,4.34,2.52.49.37,1.14,1.08,1.07,1.53-.11.73-.59,1.64-1.21,2-2.76,1.65-6.53,1.26-8.94-.81-1.93-1.66-3.51-3.56-4.48-6-2.15-5.41-3.47-10.96-2.63-16.77.6-4.17,1.97-8.13,4.83-11.39.41-.46,1-.76,2-1.5Z"/><path class="cls-10" d="m112.65,247.15c1.79-1.46,3.52-1.45,5.19-1.51,2.7-.11,5.4-.11,8.11-.13,8.28-.07,16.57.04,24.84-.23,5.57-.18,11.11-.92,16.67-1.35,2.31-.18,4.67-.43,7.17,1.19-.94.58-1.57,1.23-2.28,1.35-4.16.68-8.33,1.34-12.52,1.8-5.88.63-11.79.94-17.65,1.65-6.41.77-12.81.81-19.22.24-2.19-.19-4.38-.3-6.57-.52-1.53-.15-2.96-.56-3.74-2.48Z"/><path class="cls-11" d="m32.38,107.26c6.37-3.96,10.99-9.2,14.85-15.88,1.55,3.31.74,6.33,1.72,8.95.93,2.5,2.18,4.87,3.45,7.63-.97,3.11-2.08,6.63-3.27,10.42-.52-.13-1.21-.13-1.67-.45-4.84-3.38-9.64-6.81-15.07-10.67Z"/><path class="cls-10" d="m175.37,241.07c-8.16-.94-15.96.69-23.84,1.07-7.26.34-14.53.29-21.8.38-4.06.05-8.11.03-12.17.02-.97,0-1.94-.11-2.98-.18.2-.56.22-1.02.43-1.13.58-.3,1.22-.58,1.86-.65,12.77-1.3,25.55-2.59,38.33-3.83,4.89-.47,9.79-.51,14.67.25q2.9.45,5.5,4.07Z"/><path class="cls-10" d="m111.91,235.48c7.17-1.02,14.3-2.21,21.47-3.02,7.2-.81,14.43-1.45,21.66-1.77,5.04-.22,10.11.17,15.03,1.51.64.17,1.26.47,1.85.78.27.14.44.48.67.75-.26.11-.54.34-.77.31-10.13-1.49-20.19-.24-30.25.79-9.22.95-18.43,2.01-27.64,2.99-1.34.14-1.54-.12-2.01-2.35Z"/><path class="cls-5" d="m114.32,382.38c-.99,2.31-2.56,3.1-4.04,3.79-4.2,1.93-8.68,2.59-13.26,2.2-2.9-.25-4.16-1.57-4.3-4-.15-2.8.98-4.51,3.62-5.32.8-.24,1.64-.43,2.46-.46,4.94-.19,9.71.53,14.14,2.86.44.23.82.55,1.38.93Z"/><path class="cls-5" d="m178.04,381.6c-3.34,4.93-8,6.88-13.1,5.61-1.29-.32-2.53-.88-3.8-1.33-2.99-1.06-4.75-2.98-4.49-6.34,6.39-3.46,15.65-2.66,21.38,2.05Z"/><path class="cls-10" d="m109.51,227.25c.34-3.96,1.23-7.59,3.15-10.94,2.33-.95,4.35.19,6.44.54,2.08.35,4.2.53,6.24,1.5-3.08,3.24-10.56,7.45-15.83,8.9Z"/><path class="cls-10" d="m137.24,218.45c5.29-.43,9.78-.79,14.53-1.17,1.2,2.91,1.01,6,.89,9.14-5-.56-9.79-3-15.42-7.97Z"/><path class="cls-6" d="m130.81,219.7c4.84,1.33,8.75,4.8,13.52,7.87-1.86.93-3.38.69-4.78.92-1.33.22-2.67.4-4.01.58-6.68.93-13.37,1.88-20.06,2.79-1.16.16-2.35.14-3.52.23-3.75.28-4.92,2.45-3.19,5.9.3.6.66,1.18,1.04,1.74.92,1.38.93,2.72.37,4.31-.49,1.37-.62,2.93-.64,4.41-.07,4.88-.03,9.76-.03,14.69-9.17,5.43-10.78,14.31-10.53,24.36-2.24-1.06-3.59-2.1-3.45-4.29.11-1.68.33-3.36.49-5.04,1.09-10.75,2.16-21.5,3.28-32.25.28-2.68.68-5.36,1.07-8.03,1.1-7.5,2.22-15,3.37-22.75,1.56-.64,3.15-.24,5.08.11-.24,1.24-.45,2.33-.66,3.42-.66,3.3-1.5,6.58-1.94,9.91-.29,2.24,1.43,3.39,3.62,2.69.79-.25,1.53-.68,2.27-1.09,6.03-3.37,12.05-6.75,18.7-10.49Z"/><path class="cls-6" d="m159,215.13c2.04,3.61,1.16,7.77,2.18,11.48-1.45,1.44-2.91.72-4.21.64-.32-.42-.66-.67-.68-.95-.23-2.99-.51-5.98-.57-8.98-.03-1.53.56-1.82,3.28-2.2Z"/><path class="cls-6" d="m102.64,300.03c-7.4-1.72-7.93-2.5-7.13-9.69,2.6.56,4.57,1.66,5.36,4.4.45,1.57,1.04,3.11,1.78,5.3Z"/><path class="cls-7" d="m113.08,157.45c2.03-.09,4.04-.33,6.04-.24,5.22.26,10.43.57,15.63,1.06,2.57.24,3.3,1.28,2.99,3.7-.36,2.84-.71,5.7-1.39,8.47-1.63,6.68-6.96,9.65-13.45,7.69-7.55-2.28-12.5-10.45-10.99-18.23.15-.78.7-1.48,1.16-2.44Z"/><path class="cls-12" d="m198.79,154.15c-.23-1.1-.71-2.07-1.28-2.99-.7-1.29-1.61-2.49-2.47-3.54-1.67-2.03-5.24-4.21-7.88-4.62-2.1-.32-3.76-.54-5.86.11-1.86.57-3.51,1.53-4.89,2.92-3.76,3.83-4.5,9.8-3.15,14.81.65,2.38,2.03,5.05,4,6.63,1.73,1.39,2.81,2.15,4.98,2.83,2.16.67,3.93.39,6.09.08,3.57-.51,7.26-3.58,9.11-6.5,1.87-2.94,2.04-6.44,1.35-9.74Z"/><path class="cls-12" d="m73.02,149.69c-1.48-5.01-5.78-8.03-10.38-9.9-3.01-1.22-7.34-1.12-10.01.89-2.92,2.2-4.31,4.71-5.03,7.92-2.38,1.98-2.77,5.71-2.16,8.5,1.4,6.39,5.93,11.08,12.54,11.69,4.2.39,8.89-2.04,11.49-5.25,3.16-3.91,5.04-8.79,3.55-13.84Z"/><path class="cls-4" d="m98.02,213.33c-2.65-.86-4.86-1.6-7.08-2.29-.8-.25-1.7-.27-2.45-.61-7.67-3.52-15.78-6-23.22-10.07-.44-.24-.88-.51-1.28-.82-10.52-8.04-20.53-16.6-27.68-27.96-4.06-6.46-6.81-13.58-9.92-20.52-.69-1.53-1.3-3.1-1.98-4.76-6.81-.31-11.83-3.88-15.91-8.81C2.7,130.48-.32,122.38.03,113.18c.12-3.08.89-6.03,2.4-8.73,3.4-6.07,8.58-7.8,15.02-5.08.58.24,1.15.5,2.13.92.23-1.56.49-2.66.54-3.77.37-8.22,2.67-15.97,5.61-23.56.85-2.19,1.98-4.31,3.27-6.27,4.64-7.06,9.37-14.06,14.15-21.03,2-2.92,4.22-5.69,6.54-8.79-1.16-.88-2.36-1.7-3.45-2.65-3.52-3.07-4.28-7.95-1.83-11.95,1.74-2.84,4.31-4.24,7.65-4.01,3.25.23,6.33,1.11,9.08,2.91,1.41.92,2.76,1.93,4.42,3.1.54-.78,1.16-1.49,1.59-2.31,3.13-5.89,7.24-11.02,12.2-15.44,2.92-2.6,6.09-4.85,9.96-5.87,1.14-.3,2.31-.58,3.48-.64,2.46-.13,4.24,1.33,4.59,3.79.33,2.36.23,4.72-.77,6.97-.52,1.18-.95,2.41-1.5,3.84.78.06,1.29.23,1.71.11,10.4-3.06,20.96-3.44,31.65-2.03,3.18.42,6.39.68,9.58,1.01,5.24.54,10.35,1.66,15.3,3.44,7.94,2.86,16.19,4.73,24,8,9.46,3.97,18.21,8.9,24.99,16.81,9.68,11.3,19.29,22.65,29.08,33.85,3.37,3.86,4.74,8.48,6.07,13.18.45,1.57-.19,3.1-1.17,4.27-1.62,1.92-3.46,3.65-5.65,5.91,0,.41-.05,1.4.02,2.39.06.82.25,1.64.45,2.86,1.25-.5,2.28-.91,3.3-1.33,5.19-2.11,9.06-1.25,12.73,3,4.7,5.43,4.87,11.68,2.94,18.16-1.17,3.93-3.31,7.44-5.83,10.63-4.87,6.17-10.47,11.51-18.1,14.23-.46.17-.87.48-1.42.79-.45,1.38-.87,2.84-1.38,4.25-.46,1.27-.76,2.7-1.56,3.72-4.49,5.74-7.09,12.67-11.85,18.25-4.71,5.53-8.82,11.58-13.65,16.99-6,6.72-13.17,12.08-21.39,15.93-1.93.91-3.99,1.6-6.14,3.03,1.18.98,2,1.77,2.93,2.4,9.5,6.45,17.19,14.77,23.89,23.95,4.93,6.76,8.39,14.27,8.68,22.9.23,6.87-.86,13.47-3.72,19.74-.42.91-.9,1.87-1.59,2.56-1.06,1.07-1.28,2.32-1.36,3.69-.07,1.18-.19,2.36-.27,3.54-.39,6.03-3.59,10.01-9.01,12.38-.31.14-.62.27-.91.44-.14.08-.23.24-.68.71-.19,1.43-.48,3.25-.65,5.08-.2,2.09-1.22,3.47-3.26,4.02-2.45.66-4.9,1.28-7.35,1.95-.95.26-1.88.58-3.07.95.16,1.29.26,2.43.45,3.55.86,5.16,1.82,10.32,2.57,15.49.27,1.82.22,3.72.04,5.56-.27,2.84-1.4,3.84-4.25,4-4.89.27-9.79.47-14.68.73-.81.04-1.61.24-2.63.39.59,9.79,1.16,19.34,1.76,29.28,1.61-.17,2.9-.26,4.18-.46,5.61-.87,11.12-.86,16.41,1.57.62.28,1.24.55,1.83.88,3.89,2.19,4.33,4.79,1.26,8.16-4.13,4.52-9.29,5.92-15.21,4.72-.99-.2-1.95-.56-2.9-.93-6.96-2.69-8.26-4.46-8.69-11.89-.48-8.27-.88-16.55-1.39-24.82-.13-2.16-.53-4.31-.79-6.39-1.85-1.01-3.56-.84-5.21-.98-3.56-.31-4.31-.79-5.17-4.37-.87-3.61-1.42-7.29-2.07-10.95-.41-2.32-.75-4.66-1.15-7.15-2-.63-3.9-1.05-6.17-.45-.92,3.91-1.85,7.83-2.75,11.75-.53,2.31-1.09,4.61-1.53,6.93-.59,3.12-2.53,4.62-5.56,4.96-1.16.13-2.32.32-3.63.5-1.07,1.67-1.13,3.55-1.18,5.36-.32,10.32.35,20.6,1.52,31.03-1.26,3.65-4.14,5.82-7.84,7.03-4.05,1.32-8.22,2.02-12.48,1.65-6.12-.53-8.92-4.9-7-10.67.63-1.88,1.77-3.37,3.56-4.05,1.71-.65,3.55-1.13,5.37-1.28,3.74-.32,7.41.38,11.02,1.35.96.26,1.93.44,3.15.71.72-5.44-.49-10.59-.44-15.77.04-5.04.01-10.09.01-15.47-.84-.15-1.79-.35-2.75-.48-6.4-.91-12.46-3.05-18.56-5.08-2.15-.72-3.38-2.33-3.34-4.59.04-2.86.11-5.76.58-8.58,1.29-7.66,2.79-15.29,4.24-22.93.47-2.5.61-4.83-.29-7.42-.8-2.3-.61-5-.52-7.52.08-2.33-.47-4.16-2.1-5.93-4.25-4.64-7.4-10.06-10.48-15.52-4.26-7.57-4.75-15.43-1.46-23.42,1.47-3.58,3.12-7.15,5.2-10.4,3.64-5.69,7.67-11.13,11.55-16.67.95-1.36,1.91-2.7,3.16-4.46ZM64.72,27.84c-1.02-.84-2.17-1.8-3.34-2.74-2.71-2.19-5.82-3.41-9.27-3.75-2.23-.22-3.97.71-5.09,2.64-1.65,2.84-1.03,6.25,1.68,8.11,1.35.93,3.01,1.47,4.6,2.01.94.32,2,.28,3,.47.88.17,1.69.65,1.47,1.65-.11.49-.88,1.22-1.3,1.19-2.34-.16-3.84,1.16-5.15,2.73-1.74,2.07-3.48,4.15-5.01,6.38-4.41,6.4-8.61,12.95-13.08,19.3-3.47,4.92-5.76,10.29-7.24,16.08-.42,1.63-.96,3.23-1.37,4.87-.99,3.96-1.48,7.99-1.31,12.06.22,5.1,4.46,7.42,8.79,4.62,2.39-1.53,4.58-3.47,6.57-5.51,3.83-3.92,6.27-8.78,8.65-13.65.59-1.21,1.08-2.48,1.73-3.66.41-.75,1.13-1.46,2.04-.89.45.28.83,1.08.81,1.62-.15,2.87-.6,5.73-.64,8.59-.06,4.05-.12,8.14,1.51,11.98.45,1.06.88,2.25,2.07,2.27,3.31-1.87,6.31-3.81,9.51-5.3,2.15-1,3.5-2.49,4.61-4.46,3.66-6.53,6.34-13.45,8.12-20.7,1-4.09,1.7-8.24,1.68-12.49,0-.38.52-.76,1-1.42,1.09,1,2.1,1.84,3.02,2.78,1.28,1.31,2.37,2.85,3.76,4.04,13.48,11.45,28.79,19.46,45.83,24.18,4.93,1.37,9.97,1.86,15.05,1.84,1.5,0,3.04-.24,4.5-.59,1.44-.35,2.39-1.44,2.34-2.94-.05-1.49-.23-3.05-.76-4.42-.78-2.04-1.9-3.96-2.92-5.89-1.75-3.29-3.59-6.51-5.28-9.83-.84-1.65-1.44-3.43-2.08-5.17-.3-.82-.33-1.88.58-2.18.64-.21,1.53.23,2.28.47.29.09.52.42.76.65,7.08,6.58,14.81,12.36,22.78,17.77,5.44,3.7,11.12,7.08,16.87,10.29,3.54,1.97,7.44,3.27,11.6,3.32.91.01,1.83-.41,2.91-.67-.15-.97-.14-1.66-.36-2.25-.47-1.26-1.16-2.45-1.56-3.73-.17-.55-.06-1.56.31-1.82.59-.43,1.62-.73,2.26-.51,1.41.52,2.71,1.35,4,2.13,5.08,3.07,10.24,5.9,16.06,7.39,3.09.78,6.05.52,8.96-.52,2.48-.88,4.05-3.62,3.42-6.08-.8-3.11-1.71-6.24-3.85-8.75-7.67-9.01-15.33-18.04-23.14-26.93-1.32-1.51-2.68-2.96-3.94-4.54-5.06-6.41-10.89-11.93-18.26-15.77-5.59-2.91-11.48-4.92-17.38-6.99-7.81-2.73-15.52-5.92-23.71-7.3-7.32-1.23-14.75-1.83-22.14-2.65-5.94-.67-11.84-.13-17.65,1.14-3.13.68-6.15,1.84-9.26,2.62-2.66.67-5.19,1.48-7.16,3.54-.34.36-.81.72-1.27.79-.59.09-1.46.11-1.78-.24-.31-.33-.31-1.36-.01-1.75.72-.92,1.72-1.61,2.56-2.44,2.67-2.63,5.06-5.48,6.5-8.97.91-2.19,1.45-4.43-.1-6.67-4.32-.03-7.62,1.99-10.66,4.45-5.18,4.2-9.48,9.21-12.52,15.14-1.23,2.4-2.68,4.2-5.58,5.04ZM23.2,107.65c-.07,2.21-.29,4.07-.14,5.89.57,6.73,1.3,13.45,1.9,20.18.68,7.72,3.56,14.75,6.7,21.7,1.18,2.62,2.47,5.19,3.65,7.81,2.6,5.76,6.16,10.86,10.31,15.6,5.59,6.39,12.22,11.67,18.44,17.39.37.34.79.66,1.25.86,4.16,1.86,8.32,3.7,12.5,5.51,2.17.94,4.37,1.8,6.53,2.76,5.89,2.61,11.91,4.85,18.31,5.75,7.36,1.04,14.74,1.95,22,3.58,1.47.33,3.02.43,4.54.42,5.07-.03,10.14-.1,15.21-.27,3.74-.12,7.37-.88,10.86-2.3,1.41-.57,2.85-1.12,4.34-1.4,11.54-2.13,21.18-7.94,29.59-15.76,4.68-4.35,8.72-9.42,12.92-14.27,3.77-4.35,6.89-9.18,9.85-14.12,2.26-3.77,4.49-7.57,6.98-11.18,2.56-3.72,2.12-8.37,4.2-12.28,1.15-2.15,1.24-4.89,1.69-7.38,1.26-6.98,2.8-13.94,2.68-21.1-.02-.93.36-2.06-.78-2.62-.4,0-.77-.09-1.06.01-9.06,3.16-16.97,8.29-24.48,14.14-1.47,1.14-1.97,2.55-1.96,4.4.02,5.26-.57,10.47-2.29,15.49-3.49,10.16-10.72,16.41-21.02,18.56-9.84,2.05-19.13-.08-27.54-5.79-8.03-5.46-12.83-12.81-13.77-22.57-.21-2.17-.5-4.34-.74-6.35-3.9-2.31-4.49-2.72-6.7-2.5-4.68.47-9.36,1.11-13.34,3.51-.78,3.75-1.33,7.26-2.26,10.68-3.06,11.35-12.84,19.37-24.47,20.44-10.51.97-19.7-2.05-27.76-8.74-5.13-4.25-8.64-9.56-9.78-16.14-.77-4.47-.96-9.04-1.47-14.24-2.91-4.09-7.74-6.98-12.44-9.93-3.66-2.3-7.14-5.16-12.44-5.75Zm126.47-37.98c.73,3.23,2.05,4.81,2.96,6.57,1.16,2.25,2.45,4.44,3.52,6.72.57,1.2.98,2.54,1.16,3.86.71,5.23-1.42,7.98-6.65,8.79-.83.13-1.68.26-2.52.25-4.4-.01-8.78-.19-13.09-1.2-10.75-2.53-20.99-6.41-30.63-11.81-7.09-3.97-13.78-8.55-20-13.8-.81-.68-1.51-1.97-2.97-1.21-.4,1.99-.75,3.98-1.21,5.95-.46,1.97-.95,3.94-1.55,5.88-.55,1.77-1.22,3.51-1.91,5.24-.74,1.88-1.6,3.72-2.31,5.62-.67,1.79-2.1,3.32-2.2,5.71,5.15-.78,9.98-1.33,14.85-.15,4.84,1.18,9.29,3.05,13.21,6.13,3.88,3.07,7.12,6.7,9.72,10.92,2.64,4.3,2.76,9.31,3.83,14.11,3.3-.75,6.41-1.5,9.53-2.17,3.03-.65,6.03-.66,8.95.63.53.23,1.2.15,1.95.23.63-3.06,1.13-5.88,1.79-8.65,1.44-6.06,4.62-10.82,10.44-13.55,2.42-1.13,4.61-2.81,7.53-2.62.75.05,1.53-.65,2.32-.91,1.28-.42,2.56-.86,3.87-1.13,18.21-3.81,33.12,9.55,37.41,21.21.43,1.18.24,2.73,1.79,3.32,4.41-2.88,8.66-5.97,13.21-8.52,4.69-2.62,9.67-4.71,14.8-7.17,0-3.07.62-6.22-.45-8.81-4.21-1.13-8.05-1.84-11.64-3.2-3.75-1.41-7.26-3.44-11.08-5.3-.08,1.02-.08,1.69-.19,2.34-.48,3.02-1.62,4.22-4.6,4.3-2,.06-4.11-.02-6.01-.59-3.38-1.02-6.77-2.19-9.91-3.77-8.94-4.49-16.95-10.45-24.97-16.38-2.7-2-5.35-4.08-8.95-6.83Zm30.23,227.68c-1.29-1.29-2.74-2.16-3.24-3.4-.52-1.29-.12-2.95-.12-4.25-4.65-3.93-4.7-4.38-1.32-8.67.18-.23.2-.59.29-.9-2.5-4.19-2.35-5.59,1.01-8.73.86-.81,1.8-1.53,2.72-2.28,1.16-.95,2.33-1.88,3.52-2.83-.05-7.28-.46-14.34-2.2-21.27-.14-.56-.54-1.05-.97-1.82-2.11,4.82-2.68,5.32-7.32,6.53-.98.26-1.97.55-2.97.65-3.7.39-7.4.71-11.1,1.05-2.69.25-5.4.33-8.06.77-7.87,1.29-15.75,1.98-23.73,1.48-3.54-.22-7.09-.38-10.63-.5-.94-.03-1.88.2-2.75.3-.58,6.38-.36,14.7.49,18.67,2.03.71,4.19,1.46,6.37,2.22,1.01-2.04.61-3.92.72-5.74.12-1.85.13-3.72.41-5.54.2-1.31.64-2.65,2.09-3.2q3.9,1.35,8.33,1.05c2.87-.19,5.73-.45,8.6-.55,8.95-.33,17.89-.63,26.84-.86,1.32-.03,2.71.19,3.96.62.65.23,1.49,1.17,1.49,1.78,0,4.21.41,8.44-.59,12.61-.52,2.18-1.82,3.57-3.9,4.26-.96.32-1.95.58-2.93.83-12.12,3.11-24.46,2.66-36.79,2.25-2.74-.09-5.34-.88-7.2-3.18-.14-.17-.58-.1-1.06-.17-.69.98-1.42,2.02-2.14,3.04,5.85,4.73,4.06,4.93,2.32,9.07,2.56,1.59,4.02,3.54,2.09,6.66-.32.52.03,1.57.25,2.31,1.08,3.56.45,5.36-2.7,7.14-1.14.65-2.38,1.12-3.77,1.76.22,1.47.43,2.78.61,4.09.26,1.9,1.46,3,3.15,3.6,1.27.46,2.57.86,3.87,1.19,7.15,1.79,14.36,2.03,21.61.66,7.14-1.35,14.26-2.74,21.39-4.15,4.14-.82,8.27-1.75,12.41-2.55,1.83-.36,3.11-1.25,3.62-3.07.3-1.1.5-2.22.69-3.1-.33-.42-.41-.59-.54-.67-.29-.17-.62-.27-.91-.43-2.78-1.52-2.99-1.91-2.46-4.69.15-.81.42-1.6.53-2.06Zm16.39-165.47c-.34-2.84-.52-5.72-1.06-8.52-1.2-6.13-5.09-10.65-9.66-14.47-8.67-7.25-18.44-9.42-29.31-5.41-2.96,1.1-5.53,3.23-8.86,3.39-.45.02-.88.48-1.32.73-3.08,1.77-5.02,4.46-6.11,7.78-2.61,8-3.47,16.16-1.77,24.45,1.19,5.8,4.17,10.63,8.74,14.45,7.5,6.26,16.05,9.22,25.81,8.08,10.33-1.2,17.43-6.78,21.08-16.52,1.67-4.46,2.27-9.16,2.45-13.95Zm-140.38-22.97c-.54,1.05-1.09,1.91-1.44,2.85-2.76,7.44-3.54,15.12-2.42,22.96,1.08,7.59,4.9,13.54,11.1,18.07,7.15,5.22,15.06,7.39,23.87,6.56,9.64-.9,18.53-7.82,21.23-17.12,1.08-3.7,1.69-7.6,2.03-11.45.88-9.94-2.47-18.27-10.19-24.73-.13-.11-.24-.23-.37-.34-7.06-5.73-14.98-8.31-24.1-6.75-3.47.59-6.38,2.05-8.67,4.78-.73.88-1.71,1.56-2.64,2.26-2.47,1.88-5.27,2.95-8.41,2.93Zm35.82,228.51c4.89,2.05,9.78,3.34,14.69,4.6,4.13,1.06,8.36,1.17,12.58.98,3.16-.14,3.79-.71,4.52-3.74,1.11-4.59,2.15-9.21,3.09-13.84.26-1.24.04-2.57.04-3.91-2.76-.79-5.19-1.45-7.6-2.2-3.17-.99-5.18-3-5.65-6.44-.22-1.64-.69-3.25-1.07-4.95-2.79-.66-4.66-3.04-7.54-3.1-2.82-.06-4.85-3.18-7.91-2.28-3.54,11.95-6.12,29.13-5.15,34.88Zm39.09-117.71c-6.65,3.74-12.67,7.12-18.7,10.49-.73.41-1.48.84-2.27,1.09-2.2.69-3.92-.45-3.62-2.69.44-3.33,1.28-6.6,1.94-9.91.22-1.09.42-2.18.66-3.42-1.93-.35-3.52-.74-5.08-.11-1.15,7.75-2.27,15.25-3.37,22.75-.39,2.67-.79,5.35-1.07,8.03-1.12,10.75-2.2,21.5-3.28,32.25-.17,1.68-.39,3.36-.49,5.04-.14,2.18,1.21,3.22,3.45,4.29-.24-10.05,1.36-18.93,10.53-24.36,0-4.93-.04-9.81.03-14.69.02-1.48.15-3.04.64-4.41.56-1.59.55-2.93-.37-4.31-.37-.56-.74-1.14-1.04-1.74-1.73-3.45-.56-5.62,3.19-5.9,1.18-.09,2.36-.07,3.52-.23,6.69-.91,13.37-1.85,20.06-2.79,1.34-.19,2.68-.36,4.01-.58,1.41-.23,2.92,0,4.78-.92-4.77-3.07-8.68-6.54-13.52-7.87Zm9.93,102.28c-.62,4.37.92,14.27,3.05,19.8,2.97.79,6.2.6,9.37.71,3.2.11,6.42-.16,9.61-.49,3.12-.32,6.38.55,9.35-.79.72-5.84-1.18-17.98-3.83-24.25-9.26,1.17-18.35,3.7-27.54,5.02Zm-16.58-57.34c-.75,3.87-.49,7.57-.48,11.25,0,1.07.66,1.98,1.76,2.22,1.8.38,3.64.83,5.47.84,6.58.06,13.19.27,19.74-.19,5.02-.36,9.97-1.64,14.95-2.54,1.59-.29,2.86-1.04,3.2-2.8.66-3.47.78-6.94.09-10.59-15.12-.87-29.85.73-44.72,1.81Zm-24.06-47.67c-1.3,1.19-1.85,1.55-2.2,2.05-4.18,5.93-8.49,11.77-12.41,17.87-1.98,3.09-3.43,6.58-4.79,10.02-2.56,6.49-2.22,12.97,1.24,19.04,2.66,4.68,5.72,9.14,8.66,13.67.29.45.94.66,1.45,1.01.29-.58.55-.87.58-1.17,1.88-17.96,3.26-35.98,6.58-53.76.46-2.46.52-5,.89-8.72Zm98.16,60.71c.86-1.95,1.3-2.66,1.51-3.44,1.1-4.1,1.48-8.28,1.39-12.52-.17-8.1-3.46-15.11-8.05-21.46-7.37-10.17-16.12-19.03-26.82-25.8-.57-.36-1.16-.69-1.77-.96-1.03-.46-2.06.39-1.89,1.55.36,2.5.68,5,1.14,7.48.33,1.78.22,3.74,1.57,5.15,2.65.78,5.24,1.51,7.8,2.31,2.32.73,4.03,2.21,5.55,4.16,3.44,4.41,5.04,9.47,5.95,14.85.28,1.63,0,3.4,1.08,4.81,9.96,4.39,11.22,13.5,12.56,23.85ZM19.66,106.21c-.63-.74-1.44-1.82-2.37-2.79-2.8-2.9-6.4-3.08-9.48-.57-3.11,2.53-4.21,6.01-4.64,9.78-.66,5.73.97,11.03,3.34,16.13,2.17,4.66,5.3,8.61,9.59,11.52,1.94,1.31,3.95,2.57,6.84,2.38-.39-6.11-1.92-11.98-2.3-17.97-.38-6.04-.65-12.09-.98-18.48Zm206.79,38.88c.95-.22,1.66-.22,2.19-.53,8.6-4.98,14.88-12.02,18.5-21.29,1.18-3.03,1.18-6.26.55-9.47-.58-2.94-2.18-5.24-4.41-7.17-1.5-1.3-3.22-1.72-5.16-1.45-4.26.6-7.09,3.74-7.45,8.25-.38,4.69-.64,9.4-1.28,14.06-.66,4.83-1.72,9.61-2.57,14.41-.17.96-.23,1.93-.37,3.18Zm-41.78,148.76c-.84,2.05-1.54,3.55-2.06,5.11-.33.98.66,2.15,1.61,2.12,4.18-.13,9.2-4.26,9.56-8.37.52-5.85.77-11.73.85-17.6.06-4.08-1.02-8.01-2.92-11.66-1.02-1.95-2.18-3.82-4.09-5.04-.45-.28-1.1-.25-1.79-.39,0,1.86-.18,3.39.05,4.87.24,1.57.85,3.09,1.31,4.66-3.71,2.77-8.19,4.4-10.39,9.02,1.11.53,1.95,1.06,2.86,1.33.79.23,1.69.07,2.49.29.4.11.86.62.96,1.03.09.4-.12,1.12-.44,1.31-1.42.89-2.95,1.61-4.4,2.45-.86.49-1.79,1.01-1.6,2.65.69.3,1.54.73,2.43,1.06,1.18.43,2.96-.7,3.59.98.64,1.74-1.34,2.02-2.13,2.98-.46.56-.63,1.35-1.07,2.33,1.85.31,3.31.56,5.2.87Zm-75.47-26.49c-1,.74-1.6,1.03-2,1.5-2.85,3.26-4.23,7.23-4.83,11.39-.84,5.81.48,11.36,2.63,16.77.97,2.44,2.55,4.34,4.48,6,2.41,2.07,6.19,2.46,8.94.81.61-.36,1.1-1.28,1.21-2,.07-.46-.58-1.17-1.07-1.53-1.37-1.02-3.45-.95-4.34-2.52,1.24-2.18,4.22-.65,5.31-3.25-.83-.41-1.65-.88-2.51-1.22-1.09-.43-2.28-.63-3.31-1.17-.47-.24-.81-1.01-.9-1.58-.05-.35.42-.94.81-1.15,1.57-.84,3.67-.83,4.64-3.11-.64-.42-1.23-1.03-1.94-1.23-1.12-.31-2.35-.24-3.47-.55-.55-.15-1.25-.72-1.36-1.22-.12-.52.22-1.35.64-1.76.96-.93,2.14-1.63,3.13-2.54.55-.51.91-1.24,1.45-2.02-2.75-2.07-6.07-1.36-8.69-2.7q1.58-3.6,1.18-6.91Zm3.45-20.22c.78,1.92,2.21,2.33,3.74,2.48,2.18.22,4.38.33,6.57.52,6.42.57,12.81.53,19.22-.24,5.86-.71,11.78-1.01,17.65-1.65,4.19-.46,8.36-1.12,12.52-1.8.71-.12,1.33-.77,2.28-1.35-2.5-1.62-4.86-1.37-7.17-1.19-5.56.43-11.11,1.17-16.67,1.35-8.27.27-16.56.17-24.84.23-2.71.02-5.41.02-8.11.13-1.67.07-3.39.06-5.19,1.51ZM32.38,107.26c5.44,3.86,10.23,7.29,15.07,10.67.46.32,1.15.32,1.67.45,1.19-3.79,2.3-7.31,3.27-10.42-1.26-2.76-2.51-5.14-3.45-7.63-.98-2.62-.17-5.64-1.72-8.95-3.85,6.68-8.48,11.92-14.85,15.88Zm142.99,133.81q-2.6-3.63-5.5-4.07c-4.88-.76-9.78-.72-14.67-.25-12.78,1.23-25.56,2.53-38.33,3.83-.64.07-1.28.35-1.86.65-.21.11-.23.57-.43,1.13,1.04.06,2.01.17,2.98.18,4.05.01,8.11.03,12.17-.02,7.27-.08,14.54-.03,21.8-.38,7.88-.38,15.68-2.01,23.84-1.07Zm-63.46-5.59c.47,2.22.67,2.49,2.01,2.35,9.21-.99,18.42-2.04,27.64-2.99,10.06-1.04,20.12-2.29,30.25-.79.24.03.51-.19.77-.31-.23-.27-.4-.6-.67-.75-.59-.32-1.2-.61-1.85-.78-4.92-1.34-9.99-1.73-15.03-1.51-7.23.32-14.46.96-21.66,1.77-7.17.81-14.3,2-21.47,3.02Zm2.41,146.91c-.56-.38-.94-.7-1.38-.93-4.43-2.33-9.2-3.05-14.14-2.86-.83.03-1.67.22-2.46.46-2.64.81-3.77,2.52-3.62,5.32.14,2.43,1.4,3.75,4.3,4,4.59.39,9.07-.27,13.26-2.2,1.48-.68,3.05-1.47,4.04-3.79Zm63.71-.79c-5.73-4.71-14.99-5.51-21.38-2.05-.27,3.36,1.5,5.28,4.49,6.34,1.26.45,2.5,1,3.8,1.33,5.1,1.27,9.76-.69,13.1-5.61Zm-68.53-154.35c5.26-1.45,12.75-5.66,15.83-8.9-2.03-.97-4.16-1.14-6.24-1.5-2.09-.35-4.11-1.49-6.44-.54-1.92,3.35-2.8,6.97-3.15,10.94Zm27.73-8.79c5.63,4.97,10.42,7.4,15.42,7.97.13-3.14.31-6.23-.89-9.14-4.75.38-9.24.75-14.53,1.17Zm21.75-3.33c-2.72.38-3.31.66-3.28,2.2.06,3,.34,5.99.57,8.98.02.27.37.52.68.95,1.3.08,2.76.81,4.21-.64-1.02-3.71-.14-7.88-2.18-11.48Zm-56.35,84.91c-.74-2.19-1.33-3.72-1.78-5.3-.78-2.73-2.76-3.84-5.36-4.4-.8,7.19-.27,7.97,7.13,9.69Z"/><path class="cls-4" d="m121.51,153.95c4.19.36,8.39.69,12.58,1.07,1,.09,2.02.24,2.97.53,2.68.82,4.02,2.39,3.81,5.21-.34,4.35-.7,8.75-2.24,12.89-1.82,4.9-5.43,7.31-10.66,7.97-8.23,1.03-18.53-7.01-18.83-14.81-.12-3.16-1.11-6.26.16-9.46.71-1.8,1.75-2.91,3.61-2.98,2.86-.11,5.72-.03,8.58-.03,0-.13.01-.26.02-.39Zm-8.43,3.49c-.47.96-1.01,1.66-1.16,2.44-1.51,7.79,3.43,15.95,10.99,18.23,6.49,1.96,11.82-1.01,13.45-7.69.68-2.77,1.03-5.63,1.39-8.47.31-2.42-.43-3.46-2.99-3.7-5.2-.49-10.41-.8-15.63-1.06-2-.1-4.01.15-6.04.24Z"/><path class="cls-4" d="m167.25,131.64c-.03,3.84-3.25,6.97-7.23,7.03-4.59.08-8.08-3.07-8.08-7.29,0-4.1,3.39-7.52,7.39-7.45,4.23.07,7.95,3.7,7.92,7.71Z"/><path class="cls-4" d="m85.33,138.52c-3.81.1-7.13-3.16-7.1-6.97.03-3.87,3.78-7.69,7.75-7.88,3.88-.18,7.16,2.83,7.3,6.71.15,4.12-3.66,8.02-7.95,8.13Z"/><path class="cls-17" d="m131.42,414.89c68.1,0,123.3-12.66,123.3-28.28s-55.2-28.28-123.3-28.28-123.3,12.66-123.3,28.28,55.2,28.28,123.3,28.28Z"/><path class="cls-16" d="m139.63,272.28c.02.46-.02.89-.12,1.3-.1.41-.25.78-.46,1.12-.2.34-.46.64-.76.9-.3.26-.64.47-1.01.63l2.16,1.54-2.57.13-1.78-1.29-1.75.09c-.59.03-1.14-.04-1.65-.22-.51-.18-.96-.44-1.34-.79-.38-.35-.69-.76-.92-1.25-.23-.49-.36-1.03-.39-1.63l-.09-1.87c-.03-.59.05-1.14.23-1.66.18-.51.45-.96.79-1.34.35-.38.76-.69,1.25-.91.49-.23,1.03-.36,1.62-.39l2.4-.12c.59-.03,1.14.05,1.64.23s.95.44,1.34.79c.38.34.69.76.92,1.25.23.49.36,1.04.39,1.63l.09,1.87Zm-1.87-1.78c-.02-.35-.09-.67-.21-.94-.13-.28-.29-.51-.51-.71-.21-.19-.46-.34-.75-.43-.29-.1-.61-.14-.95-.12l-2.4.12c-.35.02-.66.09-.94.21-.28.13-.52.3-.71.51-.19.21-.34.46-.44.75-.1.29-.14.61-.12.96l.09,1.87c.02.35.09.67.21.94.13.28.3.51.51.71.21.19.47.34.76.43.29.1.61.14.95.12l2.39-.12c.35-.02.66-.09.94-.21.28-.13.52-.29.71-.51.19-.21.34-.46.44-.75.1-.29.14-.61.12-.96l-.09-1.87Z"/><path class="cls-16" d="m151.19,275.67l-1.78.09-.12-2.4-6.24.31.12,2.4-1.78.09-.24-4.9c-.04-.71.05-1.38.27-1.99.22-.61.53-1.15.95-1.6.42-.45.92-.82,1.5-1.09.58-.27,1.23-.42,1.93-.46l4-.2c.12,0,.24.01.35.05.11.04.21.1.3.18.09.08.15.17.21.28.05.11.08.22.09.34l.44,8.9Zm-8.22-3.78l6.24-.31-.19-3.84-3.12.16c-.05,0-.17.02-.34.04-.17.02-.38.07-.6.15-.23.08-.46.19-.71.33-.25.14-.47.34-.68.58-.2.24-.36.54-.49.9-.12.36-.17.78-.15,1.28l.04.72Z"/><polygon class="cls-1" points="156.11 272.52 153.97 275.59 149.44 275.82 153.7 269.71 156.11 272.52 156.11 272.52"/><polygon class="cls-2" points="157.96 263.59 162.49 263.37 158.23 269.48 158.23 269.48 155.82 266.67 157.96 263.59 157.96 263.59"/><polygon class="cls-14" points="158.23 269.48 153.7 269.71 155.82 266.67 158.23 269.48 158.23 269.48"/><polygon class="cls-13" points="156.11 272.52 158.55 275.36 163.08 275.14 158.23 269.48 156.11 272.52 156.11 272.52"/><polygon class="cls-15" points="158.23 269.48 153.7 269.71 156.11 272.52 158.23 269.48 158.23 269.48"/></g></svg>