<?xml version="1.0" encoding="UTF-8"?><svg id="Layer_1" xmlns="http://www.w3.org/2000/svg" viewBox="0 0 554 674"><defs><style>.cls-1{fill:#68153e;opacity:.22;}.cls-2{fill:#f2f3f5;}.cls-2,.cls-3,.cls-4,.cls-5,.cls-6,.cls-7,.cls-8,.cls-9,.cls-10,.cls-11,.cls-12,.cls-13,.cls-14,.cls-15,.cls-16,.cls-17,.cls-18,.cls-19,.cls-20,.cls-21{fill-rule:evenodd;}.cls-3{fill:#f8cfdd;}.cls-4{fill:#f9bd70;}.cls-5{fill:#28e7b1;}.cls-6{fill:#51342a;}.cls-7{fill:#cca18f;}.cls-8{fill:#ddf4e4;}.cls-9{fill:#ff92cd;}.cls-10{fill:#86604f;}.cls-11{fill:#ed6b9a;}.cls-12{fill:#fff7f9;}.cls-13{fill:#f5c2e1;}.cls-14{fill:#ffe7a4;}.cls-15{fill:#fff2e1;}.cls-16{fill:#ffeff4;}.cls-17{fill:#ebc6b6;}.cls-18{fill:#f3c888;}.cls-19{fill:#ffdbee;}.cls-20{fill:#ffd152;}.cls-21{fill:#fedac6;}</style></defs><path class="cls-1" d="m130,674c54.21,0,98.16-9.92,98.16-22.15s-43.95-22.15-98.16-22.15-98.16,9.92-98.16,22.15,43.95,22.15,98.16,22.15Z"/><path class="cls-1" d="m228.31,340.66c45.4,0,82.2-8.52,82.2-19.03s-36.8-19.03-82.2-19.03-82.2,8.52-82.2,19.03,36.8,19.03,82.2,19.03Z"/><path class="cls-1" d="m403.63,571.18c68.1,0,123.3-12.66,123.3-28.28s-55.2-28.28-123.3-28.28-123.3,12.66-123.3,28.28,55.2,28.28,123.3,28.28Z"/><path class="cls-12" d="m266.2,91.49c-1.17,1.74-2.08,3.33-3.22,4.74-1.31,1.61-2.67,3.24-4.27,4.52-3.52,2.81-7.52,3.38-11.71,1.65-5.33-2.2-9.18-5.96-11.32-11.41-.39-1.01-.75-2.03-1.25-3.38-.96,1-1.71,1.75-2.43,2.52-2.46,2.63-5.24,4.8-8.66,6-1.14.4-2.34.67-3.54.87-3.9.65-6.28-1.7-7.41-4.13-.4-.88-.7-1.8-1.02-2.63-.94-.34-1.16.4-1.53.8-1.93,2.05-3.72,4.24-5.77,6.15-2.17,2.03-4.74,3.47-7.7,4.02-.72.13-1.45.26-2.18.29-4.35.2-6.82-1.51-8.68-6.18-.38.73-.78,1.26-.95,1.85-1.77,5.93-2.52,11.98-2.5,18.2.05,11.94,3.97,22.68,9.68,32.9,1.43,2.57,2.96,5.11,4.67,7.5,6.49,9.07,15.31,15.07,25.5,19.09,2.91,1.15,6.02,1.95,9.12,2.41,3.96.6,8,.95,12.01.99,12.31.11,23.9-2.78,34.67-8.92,5.89-3.36,11.29-7.37,15.88-12.33,6.93-7.5,12.83-15.75,16.31-25.53.37-1.04.65-2.1.93-3.17.04-.18-.16-.42-.34-.87-.63.12-1.34.18-2,.38-2.07.63-3.92.09-5.45-1.28-1.36-1.21-2.64-2.56-3.71-4.04-2.74-3.79-4.97-7.88-6.89-12.16-.48-1.07-.61-2.4-1.97-3.2-.59.77-1.08,1.67-1.8,2.29-1.01.86-2.12,1.65-3.3,2.23-2.05,1.01-4.04.62-5.86-.71-1.8-1.33-3.18-3.05-4.35-4.95-2.51-4.07-4.96-8.19-7.45-12.28-.45-.71-.95-1.37-1.53-2.22Zm-34.27,52.12s-.03,0-.05,0c.11,1.47.1,2.96.35,4.41.43,2.47,3.37,5.16,5.81,5.51,3.75.54,7.74-2.01,8.65-5.71.34-1.4.28-2.9.41-4.36.07-.78.33-1.44,1.18-1.65.79-.19,1.71.41,1.93,1.3.12.47.2.97.21,1.46.24,5.75-2.66,9.91-8.12,11.7-5.12,1.68-10.96-1.1-12.84-6.21-1.23-3.33-.87-6.79-.42-10.21.09-.71,1.08-1.41,1.63-1.14.49.24,1.09.76,1.17,1.23.18,1.19.09,2.44.11,3.67Zm31.89-9.19c-.23-2.82,1.48-4.62,4.66-4.9,3.05-.27,5.39,1.59,5.58,4.44.18,2.69-1.82,5.08-4.43,5.32-2.91.26-5.57-1.97-5.81-4.86Zm-53.71-12c-.25-2.04.66-3.92,2.25-4.65,2.71-1.23,6.55.44,7.55,3.28.7,2.01-.18,4.41-2,5.44-3.08,1.75-7.36-.49-7.8-4.07Z"/><path class="cls-13" d="m292.36,72.78c-3.33.68-5.87-.42-8.15-2.22-2.31-1.81-4.52-3.76-6.8-5.61-.95-.77-1.9-1.55-2.93-2.19-.92-.57-1.91-.9-3.07-.97-1.8-.12-3.61-.56-5.36-1.06-2.03-.59-3.87-1.55-4.62-3.48-4.19-.76-8.14-1.47-12.1-2.2-2.53-.46-5.07-.57-7.64-.59-12.24-.09-23.33,3.65-33.44,10.35-8.63,5.72-15.2,13.4-19.82,22.76-.46.93-.6,1.82-.3,2.84.45,1.53.75,3.1,1.2,4.63.69,2.33,1.83,3.18,4.21,3.21,2,.02,3.95-.35,5.58-1.49,1.89-1.32,3.77-2.74,5.37-4.4,2.29-2.38,4.38-4.96,5.91-7.95.27-.53.66-1.03,1.09-1.45.46-.46,1.67-.22,1.95.37.26.55.45,1.14.56,1.73.31,1.7.47,3.42.88,5.09.75,3.11,2.67,4.25,5.72,3.46,4.99-1.3,8.58-4.53,11.41-8.7.75-1.11,1.31-2.36,1.97-3.54.24-.42.5-.84.83-1.18.58-.6,1.9-.27,2.12.54.19.7.21,1.45.33,2.17.28,1.7.46,3.42.87,5.08,1.36,5.39,4.73,9.1,9.73,11.26,3.29,1.42,6.45.99,9.26-1.34,2.89-2.4,4.81-5.52,6.42-8.88.37-.77.65-1.6,1.1-2.32.52-.85,1.93-.91,2.56-.13.53.67.93,1.44,1.37,2.18,2.96,4.95,5.87,9.94,8.9,14.85.89,1.45,1.99,2.81,3.19,4.02,1.53,1.56,3.17,1.55,4.92.23,1.42-1.07,2.21-2.6,2.98-4.14.49-.98.91-2.03,1.5-2.95.67-1.03,2.19-.8,2.65.35.22.57.34,1.18.51,1.77,1.8,6.76,5.26,12.68,9.16,18.39.34.5.77.95,1.19,1.4,2.29,2.38,5.22,2.57,7.82.5.87-.69.99-1.67,1.03-2.66.16-4.19.14-8.38-.61-12.52-1.54-8.5-5.03-16.21-9.95-23.21-2.87-4.11-6.2-7.9-9.49-12.04Z"/><path class="cls-9" d="m249.94,181.36c-8.22.31-16.13.11-23.96-1.76-1.93,3.03-3.06,6.28-4.47,9.39-7.25,16.03-13.53,32.42-17.95,49.47,1.2,2.39,3.43,3.21,5.61,3.93,6.3,2.09,12.74,3.27,19.44,2.85,6.33-.4,12.72-.39,18.89-2.05,5.77-1.55,11.47-3.33,17.16-5.18,1.6-.52,3.07-1.5,4.52-2.38,1.11-.67,1.27-1.39.74-2.48-.26-.56-.59-1.07-.9-1.6-4.52-7.79-7.93-16.1-10.95-24.56-2.65-7.41-5.17-14.87-7.04-22.54-.24-.94-.64-1.83-1.08-3.08Z"/><path class="cls-19" d="m280.59,250.27c-1.2-2.59-5.46-9.14-8.18-12.58-.46.22-1,.41-1.48.71-2.7,1.7-5.61,2.93-8.64,3.92-7.42,2.44-14.88,4.74-22.7,5.45-6.19.56-12.4,1.03-18.6.51-5.86-.48-11.51-1.97-16.82-4.6-.52-.26-1.09-.4-1.79-.64-1.52,4.34-1.83,8.55-1.22,12.86.19,1.35.92,2.31,2.1,2.8,1.34.56,2.73,1.07,4.15,1.38,5.86,1.26,11.79,1.85,17.79,1.58,4.63-.2,9.25-.5,13.87-.78,9.3-.55,18.32-2.66,27.2-5.35,4.19-1.27,8.29-2.83,12.43-4.3.67-.22,1.27-.63,1.89-.97Z"/><path class="cls-13" d="m266.95,45.99c2.37.65,4.81,1.32,7.44,2.04,6.25-4.66,12-9.89,15.79-16.98,2.75-5.12,3.1-10.55,1.38-16.09-.36-1.14-.98-2.24-1.66-3.25-.7-1.06-1.94-1.15-2.82-.2-.91.98-1.78,2.05-2.42,3.21-1,1.82-1.79,3.77-2.66,5.66-.36.78-.6,1.64-1.1,2.31-.3.4-1.06.75-1.53.66-.47-.08-1.01-.67-1.22-1.17-.28-.66-.23-1.45-.38-2.17-.56-2.65-1.09-5.29-1.71-7.92-.34-1.44-.97-2.78-2.24-4.04-.37.48-.84.85-.99,1.32-.46,1.53-.79,3.09-1.17,4.63-.14.59-.19,1.24-.48,1.75-.21.38-.75.84-1.1.82-.53-.03-1.31-.32-1.51-.74-.6-1.2-.92-2.53-1.42-3.78-.26-.63-.67-1.19-1.12-1.96-1.16,2.04-1.16,4.04-1.38,5.95-.22,1.95-.29,3.94-.23,5.9.26,8.02.86,15.98,2.51,24.05Z"/><path class="cls-12" d="m326.75,188.78c-.51-1.8-1.74-2.44-2.85-3.18-.61-.4-1.29-.7-1.86-1.15-.82-.65-.66-2.04.29-2.47.77-.34,1.62-.52,2.42-.8.91-.31,1.85-.61,2.73-1.01.73-.33,1.13-.94.91-1.79-.2-.78-.69-1.34-1.48-1.45-.59-.08-1.2.06-1.8.06-.76,0-1.45-.19-1.78-1-.3-.74.04-1.51.95-2.16.3-.21.65-.35.95-.56,2.62-1.84,3-3.04,2.1-6.77-1.48-.35-2.8.41-4.08.96-2.02.86-3.93,1.96-5.91,2.89-.93.44-1.55,1.11-2.08,1.98-.4.66-1.06,1.02-1.87.79-.8-.23-1.21-.89-1.28-1.63-.07-.7.17-1.42.18-2.14.01-1.09.05-2.2-.13-3.27-.17-1-.89-1.72-1.8-2.2-1.1-.57-2.25-.21-2.72.95-.28.67-.52,1.39-.6,2.11-.28,2.56-.49,5.13-.69,7.7-.06.85.12,1.74-.02,2.58-.77,4.7.4,9.01,2.46,13.15,2.11,4.25,5.52,6.11,10.47,5.78.89-1.42.19-2.82-.16-4.21-.18-.7-.59-1.35-.76-2.06-.26-1.04.76-2.01,1.75-1.69.68.23,1.31.65,1.99.9,1.52.59,3.03.61,4.67-.35Z"/><path class="cls-12" d="m303.42,150.43c1.25.3,1.95.63,2.65.61,5.36-.19,10.49-1.3,14.45-5.23,4.27-4.23,6.13-9.4,4.67-15.47-.74-3.05-2.85-4.8-5.82-5.46-2.36-.53-4.07.47-4.86,2.75-.52,1.51-.92,3.06-1.44,4.57-1.87,5.37-4.52,10.34-7.65,15.06-.59.9-1.15,1.82-2,3.17Z"/><path class="cls-12" d="m164.78,143.35c-1.26.22-1.53,1.07-1.55,1.93-.03,1.47.07,2.94.19,4.41.17,2.06-.05,2.96-.98,3.15-1.39.28-1.85-.83-2.48-1.74-.62-.89-1.29-1.78-2.07-2.53-.51-.48-1.33-.88-1.97-.28-.38.36-.68,1.1-.6,1.6.19,1.19.6,2.35.99,3.51.19.58.69,1.09.74,1.65.04.52-.17,1.28-.55,1.57-.37.29-1.23.34-1.62.09-1.12-.72-2.06-1.78-3.55-1.6-.56.06-1.09.29-1.53.41-.25.99.27,1.38.74,1.71.49.34,1.1.52,1.62.83,1.52.89,1.58,2.23.15,3.11-.62.38-1.32.64-1.91,1.05-.48.34-.84.82-1.46,1.45.6.45.99.91,1.49,1.1,2.55.96,5.21,1.13,7.91.96,1.45-.09,2.89-.19,4.34-.14,2.96.1,5.55-.61,7.4-3.13,1.81-2.46,3.67-4.88,5.41-7.39.77-1.1,1.29-2.4,1.12-3.81-.05-.44-.34-1.08-.66-1.19-.49-.17-1.34-.2-1.64.1-1.01,1.04-1.87,2.22-2.73,3.4-.64.88-1.08,2.09-2.47,1.68-1.14-.34-1.14-1.46-1.25-2.43-.3-2.69-.72-5.36-1.91-7.83-.31-.61-.81-1.13-1.17-1.63Z"/><path class="cls-12" d="m179.31,124.4c-.09-1.86-.12-3.08-.2-4.29-.52-6.8-.12-13.52,1.4-20.16.08-.36.16-.72.28-1.07.85-2.64-.61-4.52-2.59-5.94-1.63-1.18-4.54-1.24-6.44.51-2.36,2.17-3.81,4.77-3.87,8.04-.15,7.48,2.62,13.92,7.09,19.7.59.76,1.39,1.37,2.15,1.98.44.37,1,.58,2.18,1.23Z"/><path class="cls-9" d="m160.48,263.2c-.72,1.86-.53,3.61.14,5.17,2.48,5.82,6.28,10.47,12.02,13.32.21.1.47.08.83.15.86-1.05,1.22-2.26.73-3.63-1.71-4.8-4.04-9.23-7.94-12.6-1.17-1.01-2.65-1.7-4.06-2.39-.46-.23-1.13-.02-1.72-.01Z"/><path class="cls-9" d="m267.29,301.4c-.59,1.39-1.27,2.81-1.8,4.29-.95,2.65-1.81,5.33-2.69,8.01-.47,1.42-.62,2.87-.24,4.35.27,1.03,1.24,1.56,2.25,1.24,1.22-.38,2.12-1.19,2.86-2.18,2.52-3.36,3.61-7.14,3.44-11.36-.1-2.45-1.13-3.93-3.82-4.34Z"/><path class="cls-20" d="m262.28,53.57c1.49-1.72,1.73-3.35,1.56-5.15-.24-2.6-.92-5.07-1.74-7.53-1.45-4.36-3.47-8.41-6.23-12.06-1.09-1.45-2.42-2.78-3.87-3.87-1.79-1.35-3.39-.87-4.62,1.07-1.43,2.25-1.93,4.81-2.01,7.39-.17,5.05.21,10.09.92,15.09.2,1.44.74,2.55,2.3,2.97,4.48,1.2,8.98,2.21,13.69,2.09Z"/><path class="cls-20" d="m275.8,59.46c3.21,2.67,6.37,5.34,9.59,7.96.85.69,1.79,1.3,2.77,1.78,1.81.9,3.26.47,4.47-1.17.29-.39.51-.84.74-1.27,2.72-5.11,4.96-10.43,6.69-15.95.54-1.74,1.14-3.52.25-5.31-1.22-.76-2.45-.39-3.64-.26-3.46.37-15.11,3.57-18.58,5.1-.32,1.36-.68,2.9-1.07,4.44-.37,1.52-.78,3.05-1.21,4.69Z"/><path class="cls-20" d="m265.09,56.63c1.87,1.24,3.52,1.65,5.22,1.83,1.58.16,2.36-.25,2.85-1.69.43-1.26.66-2.6.96-3.83-1.5-2.11-3.53-2.77-5.83-3.15-1.67,1.97-1.84,4.52-3.2,6.84Z"/><path class="cls-3" d="m281.43,135.8c6.54-.04,11.53,5.88,10.95,12.28-.26,2.87-1.63,5.24-3.62,6.87-1.68,1.68-3.96,2.81-6.21,3.17-5.22.82-9.98-4.39-11.05-9.1-1.43-6.36,3.2-13.18,9.93-13.22Z"/><path class="cls-3" d="m187.39,129.68c.03-1.08.24-2.06.59-2.97.9-4.89,5.23-8.25,10.23-8.03,5.56.25,11.18,3.81,11.29,9.98.13,6.68-6.26,11.48-12.53,10.84-4.61-.45-9.73-4.84-9.59-9.83Z"/><path class="cls-6" d="m254.22,183.62c2.17.6,3.37,1.83,4.66,2.94,3.73,3.2,7.59,6.17,11.92,8.53,3.41,1.86,7,2.87,10.85,2.91,7.8.07,15.33-1.03,22.15-5.21.51-.3,1.06-.52,1.68-.82.68.87,1.23,1.66,1.87,2.38,2.72,3.04,5.97,5.07,10.14,5.22.61.02,1.23.04,1.83-.04,2.32-.33,3.48-1.51,3.71-3.84.07-.73,0-1.47,0-2.41.66-.15,1.34-.32,2.02-.47.59-.13,1.2-.23,1.78-.41,3.64-1.14,4.4-3.23,2.36-6.38-.4-.62-.89-1.16-1.45-1.89.6-.44,1.15-.91,1.75-1.28,2.41-1.53,2.7-3.2,1.78-6.07-.29-.91-.96-1.69-1.55-2.69.3-.8.7-1.69.98-2.62.55-1.81.48-3.66.07-5.48-.45-1.98-1.66-2.9-3.68-2.86-2,.04-3.81.78-5.59,1.61-1.66.76-3.29,1.58-4.83,2.32-1.31-.46-1.18-1.63-1.56-2.47-.91-2.02-2.3-3.45-4.47-4.04-2.55-.69-4.64.17-5.74,2.61-.55,1.21-.99,2.56-1.11,3.88-.35,3.79-.66,7.6-.71,11.41-.04,3.42.29,6.84.48,10.55-3.38,2.62-7.4,4.29-11.79,4.92-3.25.47-6.55.65-9.84.82-2.97.15-5.79-.6-8.48-1.92-4.33-2.11-8.09-5.04-11.79-8.07-1.5-1.23-2.86-2.62-4.47-4.11,1.32-.9,2.96-.78,4.37-1.31,1.48-.54,3.05-.86,4.56-1.36,1.62-.53,3.23-1.12,4.8-1.77,1.46-.6,2.91-1.26,4.34-1.96,1.42-.7,2.83-1.44,4.22-2.22,1.38-.78,2.75-1.6,4.07-2.47,1.33-.87,2.63-1.79,3.89-2.76,1.27-.96,2.51-1.95,3.71-3.01,1.29-1.13,2.54-2.3,3.77-3.5,1.14-1.12,2.25-2.26,3.31-3.44,1.06-1.17,2.05-2.42,3.01-3.56,7.96,2.17,14.98.37,20.99-4.7,5.2-4.39,7.3-10.34,6.51-17.19-.7-6.06-5.14-9.88-11.25-9.82-.47,0-.94,0-1.67,0-.05-.67-.16-1.24-.13-1.82.72-10.38-1.88-19.99-6.57-29.15-3.22-6.29-7.38-11.89-12.1-17.09-.66-.72-1.3-1.45-2.1-2.33.39-.87.72-1.77,1.16-2.6,2.52-4.8,4.7-9.74,6.42-14.88.54-1.63.99-3.29,1.34-4.98.19-.95.21-1.97.08-2.93-.32-2.45-1.61-3.73-4.09-3.95-1.2-.11-2.46-.05-3.64.19-3.46.72-6.89,1.57-10.34,2.36-.46.1-.93.15-1.89.29.68-.89,1.09-1.43,1.51-1.96,2.12-2.69,4.47-5.24,6.34-8.1,4.32-6.57,5.06-13.73,2.6-21.19-.49-1.48-1.33-2.94-2.31-4.14-1.98-2.41-4.8-2.49-7.04-.31-1.04,1.02-1.89,2.25-2.77,3.42-.51.67-.91,1.42-1.53,2.42-.41-.58-.75-.9-.88-1.28-.45-1.27-.7-2.63-1.26-3.85-.61-1.33-1.32-2.67-2.24-3.78-1.94-2.32-3.99-2.13-5.66.36-.4.6-.71,1.27-1.19,2.12-.54-.58-.91-1.02-1.32-1.39-1.94-1.7-3.91-1.32-5,1.04-.51,1.1-.95,2.31-1.1,3.51-.38,3.17-.72,6.35-.81,9.55-.07,2.57.26,5.17.4,7.74.03.56,0,1.12,0,2.4-.95-1.23-1.44-1.87-1.94-2.51-1.21-1.55-2.35-3.16-3.65-4.6-.81-.89-1.82-1.66-2.87-2.26-2.95-1.7-6.07-1-8.08,1.75-2.03,2.78-2.75,6.01-2.9,9.38-.27,5.55.02,11.08,1.04,16.55.07.35.01.72.02,1.3-.69.11-1.38.33-2.06.32-13.01-.06-24.72,4.18-35.39,11.34-7.41,4.96-13.36,11.48-17.88,19.24-1.54,2.65-2.77,5.47-4.16,8.22-.38.74-.78,1.47-1.24,2.31-.73-.6-1.27-1.07-1.84-1.51-3.66-2.75-7.98-2.57-11.36.5-2.65,2.4-4.2,5.39-4.6,8.97-.3,2.72-.15,5.39.54,8.06.99,3.83,2.35,7.52,4.38,10.92,3.01,5.05,4.97,6.75,10.5,9.02.32,1.01.69,2.17,1.05,3.34,3.3,10.83,8.28,20.77,15.41,29.56,1.23,1.52,2.57,2.99,4.05,4.26,5.61,4.8,11.61,9.02,18.48,11.82.67.27,1.32.62,1.97.96.09.05.13.2.35.54-.29.37-.58.86-.98,1.23-3.52,3.27-7.3,6.17-11.75,8.03-6.3,2.64-12.7,3.25-19.27.92-4.4-1.56-8.01-4.22-10.87-7.85-2.51-3.17-4.82-6.51-7.17-9.81-.85-1.19-1.65-2.46-1.62-4.16,3.52-2.97,6.34-6.62,8.66-10.7,1.13-1.99,1.69-4.09,1.2-6.38-.52-2.46-2.86-4.09-5.16-3.57-.58.13-1.15.41-1.66.72-.63.38-1.19.85-1.95,1.41-.33-.72-.62-1.35-.9-1.98-.75-1.68-1.3-3.49-2.29-5-1.71-2.58-4.57-2.54-6.35.03-.75,1.07-1.15,2.39-1.76,3.72-.79-.2-1.59-.49-2.41-.6-2.46-.34-4.29.93-4.87,3.4-.25,1.06-.32,2.17-.48,3.37-.93.2-1.9.32-2.81.64-2.49.86-3.38,2.81-2.39,5.26.32.78.83,1.48,1.28,2.25-.58.83-1.25,1.57-1.67,2.43-.88,1.78-.31,3.76,1.36,4.85.71.46,1.51.9,2.31,1.06,2.14.43,4.35,1.12,6.47.96,3.6-.27,7,.67,10.16.94,3.19,4.42,6.1,8.66,9.24,12.75,4.71,6.12,10.91,9.78,18.56,10.71,5.06.61,10.01-.03,14.7-2.03,2.57-1.1,4.96-2.61,7.42-3.96.72-.4,1.4-.88,2.07-1.3.76.9.11,1.54-.14,2.14-2.32,5.56-4.71,11.08-7.02,16.64-5.05,12.18-8.75,24.81-12.23,37.5-1.11,4.04-1.69,8.17-1.39,12.42.29,4.13,2.4,6.58,6.21,7.7,1.71.51,3.45.96,5.27,1.46-7.03,8.88-21.42,16.64-30.96,16.03-.3-.82-.64-1.72-.94-2.62-1.75-5.21-4.33-9.92-8.36-13.7-1.06-.99-2.32-1.79-3.53-2.61-.5-.34-1.09-.58-1.66-.77-3.59-1.22-6.8-.29-6.89,4.69-.03,1.9.36,3.68,1.12,5.38,2.48,5.53,6.24,9.99,11.33,13.22,1.22.77,2.65,1.21,4.03,1.7,1.25.45,2.47.26,3.31-.84.6-.79,1.32-.91,2.22-.98,7.84-.56,14.97-3.19,21.52-7.54,4.81-3.2,9.16-6.94,13.06-11.34,13.44.82,26.78-.19,40.1-2.2,1.25.88,1.88,2.18,2.31,3.61,1.05,3.54,2.06,7.08,3.19,10.59,1.88,5.85,3.83,11.69,5.75,17.53.27.82.48,1.65.75,2.63-.77,1.01-1.55,2.02-1.57,3.5-.01,1.05-.63,2.1-.99,3.14-1.04,3.02-2.09,6.04-3.11,9.07-.64,1.9-.8,3.85-.46,5.83.68,3.91,3.85,5.6,7.33,3.72,1.26-.67,2.49-1.64,3.36-2.77,3.54-4.59,4.94-9.8,3.92-15.62-.31-1.8-1.07-3.35-2.72-4.14-1.51-.73-2.02-1.99-2.5-3.43-2.8-8.53-5.88-16.97-8.2-25.66-.79-2.95-1.85-5.82-2.85-8.9.62-.24,1.14-.49,1.7-.65,4.34-1.27,8.71-2.41,13-3.81,3.36-1.09,6.62-2.48,9.91-3.77.56-.22,1.1-.52,1.6-.87.76-.53,1.04-1.44.63-2.29-.43-.88-.97-1.7-1.51-2.52-2.62-4.01-5.25-8.01-7.88-12.02-6.16-9.42-10.63-19.67-14.31-30.27-2.26-6.5-4.18-13.12-6.25-19.69-.16-.42-.23-.9-.45-1.92Zm12-92.13c.58.85,1.09,1.5,1.52,2.22,2.49,4.09,4.94,8.2,7.45,12.28,1.17,1.89,2.55,3.62,4.35,4.95,1.82,1.34,3.81,1.72,5.86.71,1.18-.59,2.3-1.37,3.3-2.23.72-.61,1.21-1.51,1.8-2.29,1.36.8,1.49,2.13,1.97,3.2,1.93,4.27,4.15,8.37,6.89,12.16,1.07,1.48,2.36,2.83,3.71,4.04,1.53,1.37,3.38,1.91,5.45,1.28.67-.2,1.37-.26,2-.38.19.45.39.69.34.87-.28,1.07-.55,2.14-.93,3.17-3.48,9.78-9.38,18.02-16.3,25.53-4.59,4.96-9.99,8.98-15.88,12.33-10.77,6.14-22.36,9.02-34.67,8.91-4.01-.04-8.04-.39-12.01-.99-3.09-.47-6.21-1.27-9.12-2.41-10.2-4.02-19.01-10.02-25.51-19.09-1.71-2.39-3.23-4.93-4.67-7.5-5.71-10.21-9.63-20.95-9.68-32.9-.03-6.21.72-12.26,2.5-18.2.17-.59.56-1.11.95-1.85,1.86,4.67,4.34,6.38,8.68,6.18.73-.03,1.45-.16,2.18-.29,2.97-.55,5.54-1.99,7.7-4.02,2.05-1.91,3.84-4.1,5.77-6.15.37-.4.59-1.15,1.53-.8.32.83.62,1.76,1.02,2.63,1.13,2.43,3.51,4.78,7.41,4.13,1.2-.2,2.39-.46,3.54-.87,3.41-1.21,6.2-3.37,8.66-6,.72-.77,1.47-1.52,2.43-2.52.5,1.35.86,2.37,1.25,3.38,2.13,5.46,5.98,9.22,11.32,11.41,4.19,1.73,8.18,1.16,11.71-1.65,1.6-1.28,2.96-2.91,4.27-4.52,1.15-1.41,2.07-3,3.23-4.74Zm26.16-18.71c3.29,4.13,6.62,7.92,9.5,12.02,4.93,7,8.41,14.7,9.95,23.21.75,4.14.78,8.33.62,12.52-.04.99-.17,1.97-1.03,2.66-2.6,2.07-5.53,1.88-7.82-.5-.42-.44-.85-.89-1.19-1.4-3.9-5.7-7.36-11.62-9.17-18.39-.16-.59-.28-1.21-.51-1.77-.46-1.15-1.99-1.38-2.65-.35-.59.92-1.01,1.96-1.5,2.95-.77,1.54-1.56,3.08-2.98,4.14-1.75,1.32-3.39,1.33-4.92-.23-1.19-1.21-2.3-2.57-3.19-4.02-3.02-4.91-5.94-9.9-8.91-14.85-.44-.74-.84-1.51-1.37-2.18-.62-.78-2.03-.72-2.56.13-.45.72-.73,1.55-1.1,2.32-1.6,3.35-3.53,6.48-6.42,8.87-2.81,2.33-5.97,2.75-9.26,1.34-5-2.16-8.38-5.86-9.73-11.26-.42-1.66-.6-3.39-.88-5.08-.11-.72-.14-1.47-.33-2.17-.22-.81-1.54-1.13-2.13-.54-.33.34-.59.76-.83,1.18-.66,1.17-1.22,2.43-1.97,3.54-2.84,4.17-6.43,7.4-11.41,8.7-3.06.79-4.98-.35-5.73-3.46-.4-1.67-.56-3.4-.88-5.09-.11-.6-.3-1.18-.56-1.73-.27-.59-1.49-.83-1.95-.38-.43.42-.82.92-1.09,1.45-1.53,2.98-3.62,5.57-5.92,7.95-1.6,1.65-3.48,3.07-5.37,4.4-1.63,1.14-3.59,1.51-5.58,1.49-2.37-.03-3.51-.88-4.21-3.21-.45-1.53-.75-3.1-1.2-4.63-.3-1.02-.16-1.9.3-2.84,4.61-9.36,11.18-17.04,19.82-22.76,10.11-6.7,21.2-10.43,33.44-10.34,2.57.02,5.11.13,7.64.59,3.95.73,7.9,1.44,12.1,2.2.75,1.93,2.59,2.9,4.62,3.48,1.75.5,3.55.94,5.36,1.06,1.17.07,2.16.4,3.07.97,1.04.64,1.99,1.42,2.93,2.19,2.28,1.86,4.49,3.79,6.8,5.61,2.27,1.81,4.81,2.91,8.14,2.23Zm-42.41,108.57c.44,1.25.84,2.15,1.07,3.09,1.87,7.66,4.4,15.12,7.05,22.54,3.03,8.46,6.44,16.76,10.96,24.56.31.53.64,1.05.9,1.6.53,1.1.37,1.81-.74,2.48-1.46.88-2.93,1.87-4.52,2.38-5.69,1.83-11.4,3.62-17.16,5.17-6.17,1.66-12.56,1.65-18.89,2.05-6.7.42-13.13-.76-19.44-2.85-2.18-.72-4.42-1.53-5.62-3.93,4.42-17.05,10.7-33.43,17.95-49.46,1.4-3.11,2.54-6.36,4.47-9.39,7.86,1.87,15.76,2.07,23.98,1.76Zm30.66,68.91c-.62.33-1.22.75-1.89.99-4.13,1.46-8.24,3.02-12.43,4.29-8.88,2.69-17.89,4.8-27.2,5.35-4.62.27-9.24.57-13.87.77-5.99.26-11.93-.32-17.79-1.59-1.42-.31-2.81-.82-4.15-1.38-1.19-.49-1.92-1.46-2.1-2.81-.61-4.31-.31-8.53,1.21-12.86.7.24,1.27.38,1.79.64,5.32,2.63,10.96,4.11,16.82,4.6,6.2.51,12.42.06,18.6-.51,7.82-.71,15.27-3.01,22.7-5.45,3.03-1,5.93-2.21,8.64-3.92.48-.3,1.02-.5,1.48-.71,2.73,3.42,6.98,9.97,8.18,12.56Zm-13.66-204.28c-1.65-8.07-2.26-16.03-2.53-24.03-.07-1.96.02-3.94.23-5.9.21-1.92.22-3.92,1.38-5.95.45.77.86,1.33,1.12,1.96.5,1.25.83,2.58,1.42,3.78.21.42.98.71,1.51.74.36.02.89-.44,1.1-.82.28-.51.33-1.16.48-1.75.38-1.55.71-3.11,1.17-4.63.14-.47.62-.85.99-1.32,1.28,1.27,1.9,2.6,2.24,4.04.62,2.63,1.16,5.27,1.72,7.92.15.72.1,1.51.38,2.17.21.5.75,1.08,1.22,1.17.47.08,1.22-.26,1.53-.66.5-.66.73-1.53,1.1-2.31.88-1.9,1.66-3.84,2.66-5.66.64-1.17,1.52-2.23,2.42-3.21.88-.96,2.12-.87,2.82.2.67,1.01,1.3,2.11,1.66,3.25,1.73,5.53,1.37,10.96-1.37,16.09-3.79,7.08-9.54,12.32-15.79,16.98-2.62-.73-5.05-1.4-7.43-2.05Zm59.82,142.8c-1.63.96-3.15.94-4.69.35-.68-.26-1.3-.68-1.99-.91-.99-.33-2,.65-1.75,1.69.17.7.58,1.35.76,2.06.35,1.38,1.05,2.79.16,4.21-4.95.32-8.35-1.54-10.47-5.79-2.06-4.13-3.24-8.45-2.46-13.15.14-.84-.05-1.72.02-2.58.19-2.57.41-5.14.68-7.7.08-.72.33-1.44.6-2.12.47-1.16,1.62-1.52,2.72-.95.91.47,1.63,1.2,1.8,2.2.18,1.07.14,2.18.13,3.27-.01.72-.25,1.44-.18,2.14.07.74.48,1.41,1.28,1.63.82.23,1.47-.13,1.87-.79.53-.87,1.14-1.54,2.08-1.98,1.99-.94,3.9-2.04,5.91-2.89,1.29-.54,2.61-1.3,4.08-.95.91,3.73.52,4.92-2.09,6.76-.3.21-.65.35-.95.56-.91.66-1.24,1.43-.95,2.16.32.8,1.02,1,1.78,1,.61,0,1.22-.15,1.8-.06.79.11,1.29.67,1.48,1.45.21.85-.19,1.46-.91,1.79-.88.4-1.81.7-2.73,1.01-.8.28-1.65.45-2.42.8-.96.43-1.12,1.82-.29,2.47.57.45,1.25.75,1.86,1.15,1.12.74,2.34,1.37,2.86,3.18Zm-64.49-135.22c-4.71.12-9.21-.89-13.69-2.09-1.56-.42-2.09-1.52-2.3-2.97-.72-5.01-1.1-10.04-.92-15.09.09-2.58.58-5.14,2.01-7.39,1.23-1.93,2.83-2.41,4.62-1.06,1.44,1.09,2.77,2.43,3.87,3.87,2.76,3.65,4.79,7.7,6.23,12.06.81,2.46,1.5,4.93,1.74,7.53.17,1.8-.07,3.43-1.56,5.15Zm13.52,5.9c.43-1.64.84-3.16,1.23-4.69.39-1.54.74-3.08,1.07-4.44,3.47-1.53,15.11-4.73,18.58-5.1,1.19-.12,2.42-.5,3.64.26.9,1.78.29,3.57-.25,5.31-1.73,5.53-3.96,10.85-6.69,15.95-.23.43-.45.88-.74,1.27-1.21,1.65-2.66,2.07-4.47,1.17-.98-.48-1.92-1.09-2.77-1.78-3.22-2.61-6.4-5.29-9.6-7.95Zm27.63,90.97c.85-1.35,1.4-2.26,2-3.16,3.13-4.72,5.79-9.69,7.65-15.06.52-1.5.92-3.06,1.44-4.57.79-2.27,2.5-3.27,4.86-2.74,2.97.66,5.08,2.41,5.83,5.46,1.46,6.06-.4,11.23-4.67,15.47-3.96,3.92-9.09,5.04-14.45,5.22-.7.02-1.41-.31-2.65-.61Zm-138.65-7.1c.36.51.87,1.03,1.16,1.65,1.19,2.47,1.61,5.14,1.91,7.83.11.98.1,2.1,1.25,2.43,1.39.41,1.83-.8,2.47-1.68.85-1.18,1.72-2.37,2.73-3.4.3-.31,1.15-.28,1.64-.1.33.12.62.76.67,1.19.17,1.4-.35,2.7-1.12,3.81-1.75,2.51-3.61,4.93-5.41,7.39-1.86,2.52-4.44,3.23-7.4,3.13-1.44-.05-2.9.05-4.34.14-2.7.16-5.36,0-7.91-.96-.5-.19-.9-.65-1.49-1.1.62-.63.99-1.12,1.46-1.45.6-.42,1.29-.67,1.91-1.05,1.44-.89,1.36-2.22-.15-3.11-.52-.31-1.13-.49-1.62-.83-.48-.33-1-.73-.74-1.71.44-.12.98-.35,1.53-.41,1.49-.17,2.43.89,3.55,1.6.39.25,1.25.2,1.62-.09.37-.29.6-1.05.55-1.57-.05-.57-.55-1.08-.74-1.65-.38-1.15-.8-2.31-.99-3.5-.08-.5.22-1.24.6-1.6.64-.61,1.46-.21,1.97.28.78.74,1.44,1.63,2.07,2.53.63.9,1.09,2.02,2.48,1.74.93-.19,1.15-1.08.98-3.15-.12-1.46-.22-2.94-.19-4.41.02-.88.3-1.73,1.56-1.95Zm14.53-18.94c-1.18-.64-1.75-.86-2.2-1.22-.76-.61-1.56-1.22-2.15-1.98-4.49-5.78-7.24-12.22-7.1-19.7.07-3.27,1.51-5.87,3.87-8.04,1.9-1.75,4.82-1.69,6.44-.51,1.97,1.43,3.43,3.3,2.58,5.94-.11.35-.19.71-.27,1.07-1.51,6.65-1.91,13.37-1.39,20.16.1,1.2.13,2.41.22,4.28Zm-18.81,138.79c.58,0,1.26-.22,1.72.01,1.41.7,2.88,1.38,4.06,2.39,3.9,3.37,6.23,7.8,7.94,12.6.49,1.37.13,2.58-.73,3.63-.36-.06-.63-.04-.83-.15-5.74-2.84-9.54-7.5-12.02-13.32-.66-1.56-.86-3.31-.14-5.17Zm106.82,38.21c2.69.4,3.72,1.89,3.82,4.34.17,4.22-.93,8-3.44,11.36-.74.99-1.64,1.8-2.86,2.18-1.01.32-1.98-.2-2.25-1.24-.38-1.48-.23-2.93.24-4.35.88-2.68,1.75-5.36,2.69-8.01.53-1.47,1.21-2.9,1.8-4.29Zm-2.23-244.77c1.36-2.32,1.53-4.87,3.21-6.84,2.31.38,4.33,1.03,5.84,3.15-.3,1.24-.53,2.57-.96,3.83-.49,1.43-1.28,1.85-2.85,1.68-1.71-.18-3.36-.59-5.23-1.83Z"/><path class="cls-6" d="m231.94,143.61c-.02-1.23.06-2.47-.12-3.68-.07-.47-.68-.99-1.17-1.23-.54-.27-1.53.43-1.63,1.14-.45,3.42-.81,6.88.42,10.21,1.88,5.11,7.72,7.9,12.84,6.21,5.46-1.79,8.35-5.95,8.12-11.7-.02-.49-.09-.98-.21-1.46-.22-.88-1.14-1.48-1.93-1.29-.85.2-1.11.87-1.18,1.65-.13,1.46-.06,2.96-.41,4.36-.91,3.7-4.9,6.25-8.64,5.71-2.43-.35-5.37-3.05-5.81-5.51-.25-1.44-.24-2.94-.35-4.41.03,0,.05,0,.06,0Z"/><path class="cls-6" d="m263.83,134.43c.23,2.89,2.89,5.12,5.8,4.86,2.62-.24,4.61-2.62,4.43-5.32-.19-2.85-2.52-4.7-5.58-4.44-3.17.28-4.88,2.07-4.65,4.9Z"/><path class="cls-6" d="m210.12,122.43c.43,3.58,4.72,5.83,7.8,4.08,1.81-1.02,2.69-3.43,2-5.44-.99-2.85-4.84-4.52-7.55-3.29-1.58.71-2.49,2.6-2.25,4.64Z"/><path class="cls-11" d="m353.42,447.5c-1.57,2.96-1.94,5.61-1.78,8.36.29,4.79,1.88,6.68,6.65,7.71,5.05,1.09,10.13,2.03,15.18,3.08,5.88,1.21,11.76,2.48,17.62,3.71,1.28-1.89,2.29-3.67,3.6-5.19,1.53-1.8,3.14-3.65,5.06-5.01,5.38-3.79,10.89-3.57,16.29.27,2.9,2.06,4.86,4.79,6.2,7.98.46,1.09.72,2.25,1.14,3.61.97.14,1.96.45,2.93.4,8.62-.42,17.23-.85,25.83-1.41,2.22-.14,4.44-.63,6.62-1.14,1.82-.43,3.68-.92,5.14-2.56.38-2.84-.96-5.49-1.42-8.12-1.35-1.29-2.77-.68-4.09-.61-4.24.2-8.23-.49-11.83-2.88-5.72-3.79-7.26-11.34-3.33-16.98,2.48-3.57,5.7-5.89,10.38-5.5.82.07,1.66-.05,2.48-.08-.1-4.11-3.47-18.37-6.37-27.04-1.2-.27-2.52-.59-3.84-.88-3.05-.7-5.97-1.69-8.53-3.51-3.27-2.31-5.12-5.34-5.16-9.45-.06-4.95.96-9.51,4.72-13.02,1.46-1.37,3.3-2.33,5.24-3.66-.28-4.34-1.33-8.68-3.33-12.96-4.13-.34-8.01.53-12.08.71-.85,1.3-1.67,2.57-2.54,3.81-1.28,1.83-2.7,3.5-4.72,4.63-3.95,2.2-8.06,1.99-11.59-.75-2.33-1.81-4.23-3.99-5.16-6.85-.31-.95-.69-1.88-1.02-2.79-3.84-1.37-7.53-2.67-11.36-4.04-1.82,2.49-2.23,5.38-3.87,7.89,1.19.76,2.04,1.27,2.85,1.84,3.38,2.36,5.52,5.62,6.64,9.45,2.17,7.41-2.87,15.89-10.44,18.01-2.81.79-5.47.33-8.12-.48-1.29-.4-2.49-1.05-3.97-1.7-2.79,4.47-4.05,9.42-5.89,14.11-1.85,4.75-3.56,9.56-5.41,14.58.7.3,1.25.67,1.84.77,6.38,1.15,9.08,5.71,10.52,11.24,1.11,4.27.07,8.12-3.49,11.02-1.59,1.3-3.2,2.62-4.99,3.61-3.31,1.84-6.81,2.34-10.41.74-.61-.26-1.23-.51-2.2-.93Zm40.72-26.64c-.27-6.65,2.99-12.11,8.66-15.11,4.83-2.57,10.35-1.58,14.21,2.23,5.22,5.16,5.13,15.6,2.13,19.98-1.92,2.78-4.15,5.01-7.76,5.33-5.49.48-10.19-1.19-14-5.14-2.11-2.18-3.08-4.85-3.24-7.29Z"/><path class="cls-16" d="m435.78,276.26c-7.28-2.45-14.33-6.29-22.79-4.22-.76,2.01-1.42,3.92-2.2,5.79-1.18,2.81-2.34,5.66-3.7,8.4-1.52,3.08-3.66,5.74-6.56,7.73-1.55,1.07-3.11,2.15-4.58,3.31-10.73,8.34-28.41,6.62-38.68-2.55-1.77-1.58-3.19-3.54-4.78-5.34-1.28.23-.89,1.2-.83,1.95.66,8.2,2.63,16.03,6.43,23.41,4.69,9.11,9.78,17.9,17.04,25.36,10.72,11.03,23.79,17.1,39.22,18.3,17.4,1.34,33.95-1.99,49.8-9.07,11.06-4.95,21.33-11.08,30.68-18.74,11.16-9.14,18.87-20.59,23.76-33.96.22-.61.23-1.29.36-2.06-3.44-.88-6.74-1.72-10.39-2.65-.38.75-.9,1.57-1.25,2.45-4.51,11.35-12.76,19.15-23.7,24.44-24.47,8.85-44.05-7.26-46.89-25.51-.79-5.06-1.48-10.07-.69-15.18.05-.48-.13-.99-.26-1.86Zm-28.41,28.01c1.54.17,4.09.47,6.65.74,6.15.67,12.27,1.42,18.43,1.91,1.75.14,2.91.67,3.77,2.11.89,1.5,1.47,3.06,1.36,4.8-.33,5.13-1.33,10.06-4.11,14.52-2.91,4.67-6.96,7.21-12.62,7.6-8.14.55-14.99-1.66-17.24-12.09-.96-4.47-1.78-8.96-2.71-13.44-1.04-5.03-.34-5.93,4.9-6.1.17,0,.34-.01,1.56-.06Z"/><path class="cls-16" d="m351.09,252.21c-4.39,5.62-4.02,11.7-2.75,18.03,2.38,11.75,9.99,19.38,20.07,25.02,2.98,1.66,6.3,2.54,9.88,2.45,6.23-.17,11.87-1.77,16.66-5.85.52-.45,1.01-.95,1.6-1.29,4.29-2.42,6.54-6.4,8.31-10.67,1.89-4.55,3.49-9.19,4.34-14.07.88-5.11.55-10.1-.8-15.08-.88-3.24-2.64-5.85-5.13-8.04-3.14-2.76-6.89-4.44-10.84-5.7-1.61-.51-3.06-.19-4.21,1.11-1.13,1.28-2.41,2.45-3.38,3.84-4.93,7.09-12.2,9.64-20.43,10.11-4.3.25-8.6.11-13.35.14Zm25.47,13.04c-.11-1.33.37-3.06,1.42-4.69,1.81-2.8,4.44-3.52,7.57-3,2.49.4,3.86,2.12,4.39,5.51.15.99.22,2.03.09,3.01-.48,3.6-3.44,5.95-7.17,5.85-3.49-.11-6.04-2.6-6.3-6.68Z"/><path class="cls-16" d="m468.17,251.39c-1.98-.31-3.57.28-5.21.79-10.72,3.3-23.48,17.22-22.42,32.38.21,3.04.61,6.08,1.14,9.08,2.26,12.54,15.06,25.36,33.6,22.42,4.32-.69,8.29-2.19,11.91-4.66,5.02-3.44,9.24-7.66,12.61-12.66,2.34-3.48,2.87-5.24,3.12-9.24-2.53-1.47-5.19-2.97-7.82-4.54-9.03-5.39-16.24-12.55-21.44-21.6-1.52-2.64-2.7-5.49-3.99-8.26-.56-1.2-1-2.46-1.51-3.71Zm-11.3,31.66c-.14-3.67,3.65-7.72,7.32-7.82,4.03-.1,8.14,3.91,8.38,8.17.21,3.83-3.23,6.99-7.76,7.11-4.54.13-7.77-2.9-7.94-7.46Z"/><path class="cls-16" d="m466.48,234.97c-1.63-.39-3.13-.74-4.62-1.11-6.87-1.73-12-5.61-15.47-11.76-3.15-5.6-4.6-11.65-5.6-17.88-.26-1.63-.58-3.24-.86-4.78-1.82-.13-1.83,1.23-2.22,1.99-2.62,5.2-5.93,9.93-9.53,14.51-5.87,7.43-13.4,12.64-22.13,16.27-1.72.71-3.45,1.41-5.7,2.32,1.35,1.01,2.2,1.73,3.14,2.32,5.8,3.76,9.15,9.02,10.35,15.75.78,4.38.93,8.75.42,13.27,4.01.68,7.92,1.14,11.71,2.03,3.82.9,7.53,2.26,11.49,3.48,6-12.73,14.77-22.24,29.45-25.31-.14-3.58-.27-7.08-.43-11.11Z"/><path class="cls-16" d="m295.05,423.06c3.12.22,5.15.37,7.19.5,1.24.08,2.44.25,2.97,1.58.45,1.15-.04,2.32-1.52,3.45-.81.63-1.75,1.11-2.53,1.77-.77.65-1.55,1.38-2.07,2.23-.27.45-.13,1.28.12,1.8.13.27.96.49,1.34.36,1.29-.46,2.52-1.06,3.75-1.66,1.08-.52,2.08-1.29,3.21-1.61.7-.2,1.81-.05,2.31.41.51.47.77,1.55.62,2.26-.27,1.31-.99,2.52-1.4,3.81-.32,1.05.49,2,1.68,2.04,1.44.05,2.79-.15,3.28-1.79.46-1.56,1.07-3.04,3.1-2.68,1.68.29,1.77,1.73,2.08,3.12.59,2.59,3.69,3.92,5.99,2.64.54-.3,1.02-.96,1.2-1.54.91-3.12,1.4-6.31.93-9.55-.51-3.53-1.2-7.03-1.77-10.55-.2-1.2-.71-2.14-1.51-3.13-1.89-2.35-4.01-4.61-4.4-7.87-.11-.88-.96-1.84-1.73-2.46-4.51-3.66-9.62-5.95-15.57-5.96-2.98,0-4,1.36-3.58,4.23.25,1.77,1.01,3.24,2.43,4.34,1.08.84,2.25,1.57,3.36,2.37,1.02.72,1.88,1.59,1.46,2.96-.34,1.09-1.29,1.51-2.39,1.63-4.11.46-5.99,3.45-8.57,7.3Z"/><path class="cls-16" d="m505,328.45c2.93,1.17,5.54,1.03,8.07,1.01,4.32-.03,8.59-.72,12.71-2.04,3.84-1.23,7.26-3.22,10-6.13,3.83-4.07,5.92-8.74,4.43-14.43-.6-2.29-.9-4.7-1.81-6.86-.76-1.83-2.02-3.54-3.38-5.04-2.03-2.25-4.78-2.57-7.62-1.89-.77.19-1.59.73-2.08,1.34-.83,1.05-1.61,2.22-2.08,3.46-3.99,10.62-9.42,20.39-17.21,28.81-.31.35-.5.84-1.05,1.77Z"/><path class="cls-16" d="m484.39,454.42c1.78-.62,1.95-1.98,2.26-3.31.69-2.89,1.47-3.86,2.79-3.49,2.23.63,1.88,2.51,1.98,4.18.1,1.52.15,3.06.42,4.55.15.77.73,1.48,1.06,2.11,2.12.39,3.11-.85,3.84-2.2.73-1.33,1.07-2.87,1.81-4.19.36-.64,1.27-1.31,1.94-1.32.69-.02,1.58.6,2.06,1.21.62.78.77,1.93,1.4,2.7.96,1.15,2.07,2.21,3.27,3.11.42.32,1.36.26,1.93.05,1.01-.36,1.02-1.4.74-2.16-.87-2.38-1.85-4.73-2.85-7.05-.54-1.24-1.34-2.38-1.79-3.65-.55-1.5.99-3.27,2.56-2.9,1.48.35,2.93.97,4.35,1.56,1.74.74,3.39,1.69,5.18,2.3,1.04.36,2.25.22,3.75.33-.84-3.37-2.61-5.57-5.02-7.27-.78-.54-1.9-.67-2.89-.87-1-.21-2.06-.18-3.04-.44-1.09-.29-1.78-1.06-1.64-2.24.13-1.18.99-1.78,2.08-1.94,1.01-.15,2.07-.1,3.09-.12,4.41-.11,7.41-2.42,9.55-6.02.9-1.54.1-3.04-1.73-3.39-.17-.03-.34-.08-.51-.08-8.8-.14-17.09,1.5-24.56,6.46-3.68,2.44-6.35,5.62-8.36,9.43-1.43,2.71-2.84,5.43-4.26,8.14-.84,1.6-.89,3.28-.43,4.95.15.58.67,1.07,1,1.56Z"/><path class="cls-16" d="m346.9,294.19c-.45-5.05-.85-9.95-1.36-14.83-.12-1.16-.54-2.31-.94-3.44-2.66-7.3-2.58-14.62-.36-22,.34-1.11.6-2.3.59-3.44-.03-3.45-1.85-5.26-5.34-5.46-2.89-.17-5.43.71-7.58,2.65-3.94,3.54-5.91,7.93-5.64,13.16.27,5.13,1.36,10.09,4.03,14.6,3.92,6.66,8.7,12.63,14.23,18.04.37.35.83.61,1.27.87.1.06.3-.04,1.11-.15Z"/><path class="cls-18" d="m499.96,332.46c2.89.59,5.08.99,7.24,1.49,2.19.52,4.39,1.2,5.65,3.21,3.73,5.9,7.52,11.79,10.99,17.84,1.33,2.31,2.25,4.99,2.73,7.61,1.02,5.55-1.32,8-7.09,7.62-1.67-.11-3.39-.65-4.92-1.36-1.86-.86-3.54-2.08-5.29-3.17-1.17-.73-2.24-1.61-3.44-2.25-2.42-1.31-4.02-.56-4.47,2.04-.22,1.34-.19,2.74-.55,4.04-.67,2.45-1.3,4.95-2.41,7.21-2.64,5.41-4.59,3.94-7.22,1.22-1.31-1.35-2.62-2.73-4.13-3.84-2.08-1.54-4.26-1.24-5.97.73-1,1.16-1.79,2.49-2.63,3.77-.74,1.14-1.37,2.36-2.15,3.48-1.62,2.33-3.93,3.36-6.72,2.84-4.8-.88-8.82-2.94-10.75-7.73-.57-1.41-1.04-2.88-1.42-4.36-.99-3.95-1.93-7.93-2.83-11.9-.18-.77-.08-1.6-.12-2.69,16.77-6.04,32.23-14.13,45.48-25.81Z"/><path class="cls-18" d="m323.94,330.24c.12-1.49.44-3.06,1.11-4.38.91-1.8,1.99-3.64,3.42-5.03,4.27-4.18,8.69-8.21,13.18-12.17,1.9-1.67,4.07-3.07,6.97-3.97,1.27,3.13,2.28,5.84,3.47,8.45,5.17,11.34,11.36,22.03,20.25,31.04,3.1,3.15,3.21,4.88.96,8.57-3.15,5.15-7.75,8.66-13.52,10.48-5.93,1.87-10.08-.1-12.31-5.76-1.06-2.67-2.74-3.71-5.51-3.48-.85.07-1.72.07-2.58,0-3.81-.29-5.31-2.26-4.28-5.77.38-1.28,1.06-2.49,1.7-3.69.63-1.2,1.46-2.31,2.04-3.53.84-1.78-.19-3.55-2.13-3.71-1.2-.1-2.41.07-3.61-.01-1.53-.1-3.11-.16-4.58-.58-3.32-.96-4.84-3.11-4.58-6.45Z"/><path class="cls-18" d="m355.92,237.77c-.69.59-1.55,1.02-3.02,1.97,1.47-6.08,3.15-11.21,5.38-16.14,5.51-12.18,13.88-22.2,23.77-31.17,6.58-5.97,14.01-10.38,22.4-13.39,6.71-2.41,13.62-3.75,20.65-4.52,6.57-.73,13.13-.43,19.52,1.27,7.31,1.95,14.62,3.89,21.71,6.59,9.47,3.61,17.93,8.64,24.76,16.16,1.61,1.77,3.09,3.88,5.11,5,3.36,1.86,5.31,4.75,7.3,7.7,4.58,6.81,8.36,14.06,11.62,21.56,5.83,13.47,8.66,27.52,8.07,42.18-.19,4.71-.77,9.4-2.35,13.83-4.64.68-8.47-.46-11.86-2.44-.88-5.51-1.66-10.7-2.57-15.88-1.12-6.4-3.88-11.9-9.07-16.11-6.17-5-13.14-8.01-21.15-8.6-1.19-.09-2.37-.19-3.47-.27-1.56-4.56-1.61-5.78-.41-10.59.77-3.08.26-3.94-2.88-4.58-2.19-.45-4.42-.73-6.6-1.24-5.33-1.22-9.29-4.25-12.01-8.93-2.42-4.18-3.84-8.69-4.69-13.4-.95-5.19-1.67-10.39-1.76-15.68-.02-1.18-.22-2.38-.58-3.49-.44-1.36-2.39-1.88-3.43-.93-1.39,1.26-2.65,2.54-3.38,4.41-1.36,3.48-2.88,6.93-4.65,10.22-7.41,13.78-18.09,23.86-33.56,28.49-4.01,1.19-7.92,2.29-12.11,1.06-.98-.29-2.04-.32-3.08-.42-10.16-.97-19.64.52-27.67,7.33Z"/><path class="cls-18" d="m474.08,250.99c.31-.13.62-.38.92-.37,10.2.27,17.94,5,23.94,12.84.51.65.81,1.48,1.12,2.27,2.1,5.59,2.71,11.47,3.7,17.84-13.57-4.59-29.21-22.05-29.67-32.58Z"/><path class="cls-18" d="m354.42,247.31c4.29-8.87,18.33-14.62,28.74-11.25-.94,1.26-1.85,2.45-2.74,3.67-2.53,3.45-5.9,5.5-10.1,6.56-5.09,1.28-10.21.99-15.9,1.01Z"/><path class="cls-4" d="m411.13,538.47c8.3,2.24,19.87-.51,25.38-5.83-.03-1.42-1.03-2.11-2.24-2.38-5.09-1.17-10.24-1.43-15.38-.52-2.23.39-4.23,1.43-5.86,3.05-1.52,1.51-2.47,3.22-1.9,5.68Z"/><path class="cls-4" d="m316.32,503.77c1.11-1.26,1.18-2.4.59-3.53-2.96-5.73-6.37-11.16-11.24-15.55-1.49-1.35-3.07-2.63-5.62-2.42-.25,1.04-.73,2.01-.65,2.92.16,1.65.45,3.37,1.06,4.91,2.25,5.69,9.26,11.7,15.86,13.66Z"/><path class="cls-16" d="m449.46,383.77c-.13-.21-.26-.42-.4-.63.04.11.04.24.12.31.11.09.27.14.41.2-.01,0-.13.12-.13.12Z"/><path class="cls-14" d="m382.85,390.65c4.61-.04,9.88-6.88,9.18-10.9-.56-3.11-1.74-5.84-4.06-8.03-2.11-2-4.08-1.77-5.38.73-2.19,4.23-4.28,8.5-6.3,12.81-.9,1.91-.35,3.28,1.67,4.1,1.54.61,3.25.87,4.89,1.29Z"/><path class="cls-14" d="m355.07,442.34c2.25,2.66,4.83,3.25,7.87,1.87.93-.42,1.84-.93,2.69-1.49,5.85-3.81,6.31-10.15,1.12-14.9-2.65-2.43-6.15-1.82-7.46,1.52-1.68,4.24-3.15,8.54-4.22,13Z"/><path class="cls-14" d="m461.16,453.08c-.8-3.78-1.5-7.4-2.35-11-.85-3.57-5.04-5.5-8.49-3.97-2.95,1.31-4.22,3.82-4.63,6.8-.4,2.91.58,5.26,3.16,6.92,3.83,2.48,7.82,2.89,12.31,1.25Z"/><path class="cls-14" d="m397.03,471.17c7.23,1.37,14.15,1.69,21.17,1.31-.81-5.68-4.76-9.88-9.77-10.48-1.12-.14-2.39.1-3.48.48-3.86,1.33-5.63,3.28-7.91,8.69Z"/><path class="cls-14" d="m443.4,380.51c-1.42.76-2.4,1.07-3.1,1.68-1.7,1.5-2.73,3.41-3.19,5.66-1.47,7.1,1.51,11.48,8.75,12.73,1.27.22,2.34-.81,2.04-2.16-.89-3.95-1.88-7.88-2.86-11.82-.44-1.77-.95-3.54-1.64-6.08Z"/><path class="cls-14" d="m407.2,362.62c1.44,3.57,3.33,5.79,6.75,6.02,1.24.08,2.67-.51,3.8-1.14,1.29-.72,2.4-1.81,2.54-3.83-4.33-.18-8.45-.76-13.1-1.04Z"/><path class="cls-14" d="m416.98,418.95c-.5-1.78-.77-3.66-1.52-5.31-2.21-4.79-7.71-6.09-12.05-3.01-2.18,1.55-3.68,3.55-4.33,6.12-1.78,7.06,4.77,13.64,12.11,12.04,1.23-.26,2.46-1.22,3.32-2.16,1.96-2.13,2.37-4.82,2.48-7.68Z"/><path class="cls-2" d="m432.5,313.4c-3.01-1.54-5.8-2.04-8.76-2.29-4.79-.41-9.54-1.22-14.32-1.82-.99-.13-1.98-.08-3.33-.12.01,1.06-.1,1.87.06,2.64.87,4.32,1.7,8.64,2.73,12.92.95,3.9,3.59,5.99,7.68,6.38,8.39.81,11.61-2.04,14.22-8.13,1.28-2.95,2.09-6.08,1.71-9.57Z"/><path class="cls-21" d="m350.66,286.66c-.3-8,5.04-15.41,13.36-15.49,7.89-.08,14.37,7.05,16.11,14.37,1.28,5.41-.14,11.15-3.7,14.8-4.3,6-12.84,6.02-18.3,1.3-4.64-3.26-7.24-9.4-7.46-14.98Z"/><path class="cls-21" d="m466.14,303.32c4.19-8.57,13.76-10.13,21.74-6.08,7.46,3.78,11,12.23,9.74,20.29-1.12,7.16-7.57,11.07-14.08,12.05-4.83.73-10.57-1.43-13.78-5.11-.56-.64-1.06-1.32-1.49-2.03-3.99-5.38-5.03-13.22-2.14-19.13Z"/><path class="cls-6" d="m449.46,383.77c.75.87,1.64,1.65,2.22,2.61,3.95,6.6,8.36,12.87,13.25,18.81,4.77,5.8,9.56,11.6,14.47,17.3,2.54,2.95,5.36,5.69,8.31,8.79-1.11,2-2.27,4.04-3.39,6.12-1.61,3-3.31,5.96-4.73,9.05-1.52,3.27-1.27,6.62.31,9.84,1.59,3.22,2.7,3.67,6.61,2.91.31-.06.66,0,1.12.02.57.73,1.12,1.59,1.82,2.32,2.23,2.28,4.77,2.63,7.45.9,1.41-.9,2.62-2.13,4.05-3.32,1.19.8,2.22,1.72,3.44,2.26,1.38.63,2.89,1.24,4.38,1.34,3.63.23,5.81-1.99,5.74-5.58-.02-1.19-.15-2.38-.38-3.54-.21-1.13-.61-2.23-1-3.6,1.66-.63,2.84.32,4.05.58,2.07.45,4.07.69,6.1-.15,1.61-.67,2.41-1.84,2.45-3.54.05-2.31-.83-4.32-2.05-6.2-.91-1.41-1.94-2.74-3.01-4.26,1.04-.86,2.04-1.52,2.82-2.39,1.37-1.52,2.83-3.02,3.8-4.78,2.43-4.35.24-8.72-4.74-9.57-2.02-.35-4.13-.33-6.19-.17-8.55.68-16.66,2.74-23.63,7.85-2.48-.24-4.23-1.57-5.74-3.23-2.09-2.27-4.23-4.49-6.16-6.87-6.47-7.94-13.07-15.8-19.16-24.01-3.65-4.91-6.64-10.31-9.58-15.68-2.84-5.18-5.26-10.59-8.03-16.23,1.68-.47,3.28-.91,4.79-1.34,1.41,1.59,1.73,3.27,2.13,4.89.79,3.3,1.53,6.62,2.34,9.92.79,3.16,1.94,6.21,4.16,8.66,3.5,3.86,8.11,5.71,13.26,6.11,3.06.23,5.77-1.01,7.85-3.25,1.15-1.25,2.07-2.71,3.02-4.12.86-1.26,1.63-2.57,2.63-4.16,1,.7,1.83,1.2,2.54,1.82,1.16,1.01,2.16,2.2,3.36,3.17,3.4,2.78,7.11,2.5,10.04-.76,1.97-2.2,3.21-4.82,4.09-7.6.51-1.61.9-3.26,1.45-5.27.85.32,1.61.52,2.29.88,1.81.97,3.54,2.11,5.38,3.02,3.74,1.84,7.64,1.94,11.57.67,4.29-1.39,6.51-4.32,6.52-8.75.01-4.34-1.34-8.4-3.48-12.12-2.19-3.84-4.68-7.53-7.02-11.29-1.43-2.28-3.06-4.46-4.01-7.24,2.45-1.08,4.86-1.23,7.15-1.75,5.15-1.16,9.78-3.31,13.69-6.83,5.7-5.15,8.66-11.37,7.32-19.12-.44-2.51-.88-5.04-1.7-7.44-2.77-8.09-7.45-11.38-16.43-11.61-.06-.92-.34-1.91-.16-2.82,3.44-19.06-.15-37.16-7.59-54.72-3.12-7.38-6.98-14.38-11.34-21.13-3.17-4.92-7.02-9.25-11.45-13.06-7.04-6.03-14.38-11.65-22.86-15.67-1.7-.81-3.44-1.52-5.19-2.21-1.27-.51-2.67-.76-3.9-1.36-5.93-2.88-12.38-4.04-18.68-5.68-9.15-2.39-18.43-2.18-27.71-.55-6.3,1.12-12.45,2.69-18.39,5.07-6.77,2.72-12.93,6.32-18.47,11.08-11.46,9.84-21.08,21.02-27.34,34.8-2.62,5.76-4.3,11.82-6.05,17.86-.27.94-.63,1.86-1.05,3.1-1.04-.47-1.76-.85-2.51-1.15-5.89-2.4-11.17-1.27-15.77,2.88-4.99,4.51-7.35,10.11-7.04,16.84.31,6.6,2.07,12.71,5.6,18.31,4.1,6.52,8.89,12.5,14.48,17.87,1.09,1.05,2.18,2.09,3.54,3.4-.87.67-1.48,1.2-2.16,1.63-6.84,4.42-12.73,9.89-18.15,15.85-2.69,2.95-4.49,6.35-5.34,10.31-1.05,4.91,1.41,10.64,7.89,12.54.82.24,1.69.34,2.53.52.81.18,1.62.37,2.68.63-.64,1.67-1.26,3.02-1.71,4.43-2.06,6.47,1.16,11.16,8.01,11.71,1.2.09,2.4.16,3.78.24.6,1.2,1.17,2.43,1.84,3.59,1.81,3.16,4.59,5.04,8.18,5.65,3.82.64,7.54.33,11.13-1.32,6.48-2.97,11.58-7.32,14.63-13.8.28-.6.63-1.17,1.02-1.9.71.33,1.36.55,1.92.92,1.12.75,2.19,1.58,3.52,2.56-.67,1.12-1.17,2.18-1.88,3.08-8.35,10.61-16.63,21.29-25.17,31.75-6.09,7.46-13,14.11-21.73,18.63-2.28,1.18-4.65,2.22-7.04,3.18-2.09.84-3.07.37-4.13-1.65-.16-.3-.28-.62-.4-.93-1.52-4.3-4.68-7.02-8.7-8.94-3.74-1.79-7.53-3.39-11.77-3.61-.52-.03-1.03-.16-1.54-.17-6.13-.05-9.64,4.26-8.18,10.11.32,1.3.89,2.57,1.52,3.76.54,1.02,1.34,1.91,2.35,3.32-1.23,1.12-2.6,2.18-3.72,3.42-1.13,1.27-2.22,2.64-2.99,4.13-1.26,2.49-.6,4.57,1.72,6.2.82.57,1.78.95,2.98,1.56-.5.96-1.01,1.79-1.39,2.66-2.17,4.96.22,8.57,5.61,8.47,1.03-.02,2.04-.18,2.98-.27.35.28.7.44.84.71,2.07,4.06,3.88,5.27,8.06,4.43,2.54-.51,4.61-.34,6.86.93,1.27.71,2.98.89,4.51.92,3.79.08,6.31-1.73,7.19-5.35,1.04-4.3,1.67-8.64.65-13.11-.87-3.79-1.33-7.65-1.99-11.66,1.73-.83,3.24-1.6,4.78-2.28,7.65-3.4,14.24-8.26,20.12-14.13,5.48-5.46,10.14-11.58,14.94-17.59,2.11-2.65,4.21-5.32,6.36-8.04.99,1.15.15,1.88-.19,2.52-7.46,14.24-12.44,29.46-18.09,44.42-3.35,8.89-6.28,17.93-9.17,26.96-1.17,3.63-1.44,7.32-.74,11.08.81,4.43,3.38,7.34,7.76,8.65,1.8.54,3.64.92,5.9,1.49-.86,1.42-1.45,2.61-2.26,3.65-3.23,4.21-6.48,8.39-9.8,12.52-5.2,6.48-11.33,11.9-19,15.42-2.32,1.07-4.61,2.24-7.4,2.25-2.35-7.31-6.71-13.38-11.54-19.11-1.51-1.79-3.64-3.08-5.54-4.54-.54-.4-1.2-.71-1.86-.89-4.83-1.3-8.42-.32-8.93,5.8-.27,3.1.41,6.1,1.91,8.85,3.62,6.67,9.02,11.51,15.96,14.66,2.23,1,4.48.91,7.01.58,11.56-1.53,20.64-7.3,28.47-15.34,2.74-2.81,5.21-5.89,7.7-8.93,2.37-2.92,4.63-5.92,6.88-8.93,1.2-1.63,2.27-3.34,3.44-5.09,9.91,1.94,19.86,3.86,29.8,5.84,9.83,1.95,19.88.96,29.99,1.73,1.91,16.02,2.59,31.98,7.85,47.08-2.16,1.22-3.88.5-5.55.42-3.63-.2-7.22-.3-10.8.6-3.27.83-6.08,2.36-8.36,4.82-2.08,2.24-2.98,4.89-2.7,7.95.22,2.49,1.51,4.14,3.86,4.87,1.3.41,2.69.72,4.05.77,8.71.37,16.7-1.97,24.05-6.53,2.41-1.48,4.26-3.46,4.85-6.33.33-1.58.02-2.83-1.55-3.32-2.14-.68-2.92-2.12-3.48-3.97-2.29-7.67-4.22-15.41-5.14-23.35-.88-7.59-1.61-15.19-2.43-23.02,1.24-.2,2.4-.48,3.56-.57,6.53-.53,13.08-.99,19.6-1.55,3.8-.32,7.52-1.11,10.94-2.85,3.69-1.88,4.51-3.4,3.62-7.42-3.16-14.25-6.32-28.52-9.71-42.72-2.68-11.23-5.69-22.39-8.49-33.59-.4-1.62-.43-3.33-.63-5-.14-.06-.3-.12-.41-.2-.08-.07-.08-.2-.12-.31.15.24.28.45.41.67Zm23.25-138.28c-1.56-4.56-1.61-5.77-.41-10.59.77-3.08.27-3.94-2.88-4.58-2.2-.45-4.42-.73-6.6-1.24-5.33-1.22-9.29-4.25-12.01-8.93-2.42-4.18-3.84-8.69-4.69-13.4-.95-5.19-1.67-10.39-1.76-15.68-.02-1.18-.22-2.38-.58-3.49-.44-1.36-2.39-1.88-3.43-.93-1.39,1.26-2.65,2.54-3.38,4.41-1.36,3.48-2.88,6.93-4.65,10.22-7.41,13.78-18.09,23.86-33.56,28.49-4.01,1.19-7.92,2.29-12.11,1.06-.98-.29-2.04-.32-3.08-.42-10.14-.97-19.62.53-27.66,7.33-.69.59-1.55,1.02-3.02,1.97,1.47-6.08,3.15-11.21,5.38-16.15,5.51-12.18,13.88-22.2,23.77-31.17,6.58-5.97,14.01-10.38,22.4-13.39,6.71-2.41,13.62-3.75,20.65-4.53,6.57-.73,13.13-.43,19.52,1.27,7.31,1.95,14.62,3.89,21.71,6.59,9.47,3.61,17.93,8.64,24.76,16.16,1.61,1.77,3.09,3.88,5.11,5,3.36,1.86,5.31,4.74,7.3,7.7,4.58,6.81,8.36,14.05,11.62,21.56,5.83,13.47,8.66,27.52,8.07,42.18-.19,4.71-.77,9.4-2.35,13.83-4.64.68-8.47-.46-11.86-2.44-.88-5.5-1.66-10.7-2.57-15.88-1.12-6.4-3.88-11.9-9.07-16.11-6.17-5-13.14-8.01-21.15-8.6-1.19-.08-2.38-.19-3.48-.27Zm-119.29,202.01c.99.41,1.6.66,2.2.93,3.6,1.61,7.11,1.1,10.41-.74,1.79-.99,3.39-2.31,4.98-3.61,3.56-2.91,4.6-6.75,3.49-11.02-1.43-5.53-4.13-10.09-10.51-11.24-.6-.1-1.15-.47-1.84-.77,1.85-5.02,3.56-9.83,5.41-14.58,1.83-4.7,3.09-9.65,5.89-14.11,1.49.65,2.69,1.3,3.97,1.7,2.65.82,5.31,1.27,8.12.49,7.57-2.11,12.62-10.59,10.44-18.01-1.12-3.83-3.26-7.1-6.64-9.45-.82-.57-1.68-1.08-2.86-1.84,1.64-2.5,2.05-5.41,3.87-7.89,3.83,1.37,7.53,2.67,11.36,4.04.33.91.71,1.84,1.02,2.79.94,2.86,2.83,5.04,5.16,6.85,3.54,2.74,7.64,2.96,11.59.75,2.02-1.12,3.45-2.8,4.72-4.63.87-1.24,1.68-2.52,2.54-3.81,4.06-.18,7.95-1.05,12.08-.71,1.99,4.28,3.05,8.62,3.33,12.96-1.94,1.34-3.79,2.29-5.24,3.66-3.76,3.51-4.77,8.07-4.72,13.02.05,4.11,1.89,7.14,5.16,9.45,2.57,1.81,5.49,2.81,8.53,3.51,1.33.3,2.64.6,3.84.88,2.89,8.66,6.27,22.92,6.37,27.04-.82.03-1.66.14-2.48.08-4.68-.38-7.9,1.94-10.38,5.5-3.93,5.65-2.39,13.19,3.33,16.98,3.6,2.39,7.59,3.08,11.83,2.88,1.32-.06,2.74-.68,4.09.61.46,2.62,1.8,5.27,1.42,8.11-1.46,1.64-3.32,2.13-5.14,2.56-2.18.51-4.4,1-6.62,1.14-8.6.55-17.22.98-25.84,1.41-.97.05-1.96-.27-2.93-.4-.42-1.36-.68-2.52-1.14-3.61-1.35-3.18-3.3-5.92-6.2-7.97-5.4-3.82-10.92-4.06-16.29-.27-1.92,1.36-3.53,3.21-5.06,5.01-1.31,1.52-2.31,3.3-3.6,5.19-5.86-1.23-11.74-2.5-17.62-3.71-5.05-1.05-10.14-1.99-15.18-3.08-4.77-1.03-6.36-2.93-6.65-7.71-.17-2.75.2-5.4,1.78-8.36Zm82.36-171.23c.12.87.32,1.38.24,1.85-.8,5.11-.1,10.12.69,15.18,2.84,18.25,22.43,34.36,46.89,25.51,10.94-5.3,19.19-13.1,23.7-24.44.35-.88.87-1.7,1.25-2.45,3.64.93,6.95,1.78,10.39,2.65-.13.77-.14,1.45-.36,2.06-4.9,13.37-12.61,24.81-23.76,33.96-9.35,7.67-19.62,13.8-30.68,18.74-15.85,7.08-32.38,10.42-49.8,9.07-15.43-1.2-28.49-7.27-39.22-18.3-7.24-7.46-12.35-16.25-17.04-25.36-3.81-7.38-5.77-15.22-6.43-23.41-.07-.75-.45-1.72.83-1.95,1.6,1.81,3.02,3.76,4.78,5.34,10.27,9.17,27.94,10.89,38.68,2.55,1.49-1.15,3.04-2.24,4.59-3.31,2.9-2,5.04-4.65,6.56-7.73,1.36-2.74,2.52-5.57,3.7-8.4.77-1.87,1.44-3.78,2.2-5.79,8.48-2.07,15.53,1.78,22.81,4.22Zm-84.69-24.05c4.75-.04,9.05.11,13.33-.15,8.23-.49,15.49-3.03,20.43-10.12.97-1.39,2.25-2.56,3.38-3.84,1.15-1.31,2.6-1.62,4.21-1.11,3.95,1.26,7.7,2.94,10.84,5.7,2.5,2.18,4.25,4.8,5.13,8.04,1.35,4.98,1.69,9.98.8,15.08-.85,4.88-2.46,9.52-4.34,14.07-1.77,4.28-4.03,8.25-8.31,10.67-.59.33-1.09.84-1.6,1.29-4.78,4.08-10.43,5.68-16.66,5.85-3.58.1-6.89-.78-9.88-2.45-10.1-5.63-17.7-13.27-20.08-25.02-1.28-6.31-1.63-12.4,2.76-18.02Zm117.08-.83c.51,1.26.95,2.52,1.51,3.72,1.29,2.77,2.47,5.61,3.99,8.26,5.2,9.05,12.42,16.22,21.44,21.6,2.63,1.57,5.29,3.07,7.82,4.54-.23,3.99-.77,5.74-3.12,9.24-3.37,5-7.59,9.23-12.61,12.66-3.62,2.47-7.59,3.98-11.91,4.66-18.55,2.93-31.33-9.89-33.6-22.42-.54-3-.94-6.05-1.14-9.08-1.06-15.16,11.69-29.08,22.42-32.38,1.64-.52,3.22-1.11,5.21-.8Zm-1.69-16.41c.15,4.03.28,7.52.42,11.11-14.69,3.07-23.45,12.58-29.45,25.31-3.96-1.22-7.67-2.57-11.49-3.48-3.79-.9-7.69-1.35-11.71-2.03.51-4.52.36-8.9-.42-13.27-1.2-6.72-4.55-11.98-10.35-15.75-.93-.61-1.79-1.33-3.14-2.32,2.26-.92,3.98-1.61,5.7-2.32,8.73-3.63,16.26-8.84,22.13-16.27,3.62-4.57,6.92-9.31,9.53-14.51.39-.78.4-2.13,2.22-1.99.27,1.53.6,3.15.86,4.78,1.01,6.22,2.45,12.28,5.6,17.88,3.47,6.15,8.6,10.03,15.47,11.76,1.51.37,3,.72,4.63,1.11Zm33.48,97.49c2.89.59,5.08.98,7.24,1.49,2.19.52,4.39,1.2,5.65,3.21,3.73,5.9,7.51,11.79,10.99,17.84,1.33,2.31,2.25,4.99,2.73,7.61,1.02,5.55-1.32,8-7.09,7.62-1.67-.11-3.39-.65-4.92-1.36-1.86-.86-3.54-2.08-5.29-3.17-1.16-.73-2.24-1.61-3.44-2.25-2.42-1.31-4.02-.56-4.46,2.04-.22,1.34-.19,2.74-.55,4.04-.67,2.45-1.3,4.95-2.41,7.21-2.64,5.41-4.59,3.94-7.22,1.22-1.31-1.35-2.62-2.73-4.13-3.84-2.08-1.54-4.27-1.24-5.97.73-1,1.16-1.79,2.49-2.64,3.77-.74,1.15-1.37,2.36-2.14,3.48-1.62,2.34-3.93,3.36-6.72,2.84-4.8-.88-8.82-2.94-10.75-7.72-.57-1.41-1.04-2.88-1.42-4.36-.99-3.95-1.92-7.93-2.83-11.9-.18-.77-.08-1.6-.12-2.68,16.77-6.04,32.22-14.13,45.48-25.81Zm-151.32-27.78c1.27,3.13,2.28,5.84,3.47,8.45,5.17,11.34,11.36,22.03,20.25,31.04,3.1,3.15,3.21,4.88.96,8.57-3.15,5.15-7.75,8.66-13.52,10.48-5.93,1.87-10.08-.1-12.31-5.76-1.06-2.67-2.74-3.71-5.51-3.48-.85.07-1.72.07-2.58,0-3.81-.29-5.31-2.26-4.28-5.77.38-1.28,1.06-2.49,1.7-3.69.63-1.2,1.46-2.31,2.04-3.53.84-1.78-.19-3.55-2.13-3.71-1.2-.1-2.41.07-3.61-.01-1.53-.1-3.12-.16-4.58-.58-3.32-.95-4.84-3.1-4.58-6.44.12-1.49.44-3.06,1.11-4.38.91-1.8,1.99-3.63,3.42-5.03,4.27-4.17,8.69-8.21,13.18-12.17,1.9-1.69,4.07-3.08,6.97-3.98Zm-53.59,118.38c2.57-3.86,4.44-6.84,8.57-7.29,1.11-.12,2.05-.54,2.39-1.63.42-1.36-.45-2.23-1.46-2.96-1.12-.8-2.28-1.52-3.37-2.37-1.41-1.09-2.18-2.57-2.43-4.34-.42-2.87.6-4.25,3.58-4.23,5.94.01,11.06,2.3,15.57,5.96.77.61,1.62,1.58,1.73,2.46.39,3.26,2.5,5.51,4.39,7.86.79.98,1.31,1.92,1.51,3.13.57,3.52,1.25,7.02,1.77,10.56.47,3.23-.01,6.43-.93,9.55-.17.58-.66,1.24-1.2,1.54-2.31,1.27-5.41-.05-5.99-2.64-.32-1.37-.4-2.82-2.08-3.12-2.03-.36-2.64,1.12-3.1,2.68-.49,1.64-1.82,1.86-3.28,1.8-1.19-.04-2-.99-1.68-2.04.41-1.29,1.12-2.51,1.4-3.81.15-.71-.12-1.8-.62-2.26-.5-.46-1.61-.61-2.31-.41-1.13.33-2.13,1.09-3.21,1.61-1.22.6-2.47,1.2-3.75,1.66-.38.13-1.21-.07-1.34-.35-.25-.52-.38-1.37-.12-1.81.52-.85,1.3-1.58,2.07-2.23.78-.66,1.72-1.14,2.53-1.77,1.48-1.14,1.98-2.31,1.52-3.45-.53-1.33-1.73-1.5-2.97-1.58-2.03-.16-4.06-.3-7.19-.52Zm209.95-94.61c.55-.93.74-1.42,1.07-1.78,7.79-8.41,13.22-18.19,17.21-28.81.46-1.24,1.24-2.4,2.08-3.46.49-.62,1.31-1.17,2.08-1.34,2.84-.68,5.6-.36,7.62,1.89,1.35,1.49,2.61,3.21,3.38,5.05.91,2.17,1.2,4.57,1.81,6.86,1.49,5.69-.59,10.36-4.43,14.43-2.75,2.91-6.16,4.91-10,6.13-4.13,1.32-8.39,2.01-12.72,2.04-2.55.03-5.15.16-8.09-1Zm-20.61,125.98c-.33-.5-.85-1-1.01-1.58-.46-1.67-.41-3.36.43-4.95,1.42-2.71,2.83-5.43,4.26-8.14,2.01-3.81,4.67-6.99,8.36-9.43,7.48-4.95,15.75-6.61,24.56-6.46.17,0,.33.05.51.08,1.83.36,2.64,1.85,1.73,3.39-2.12,3.6-5.13,5.91-9.54,6.02-1.03.03-2.08-.03-3.1.12-1.07.16-1.94.76-2.08,1.94-.13,1.19.55,1.96,1.64,2.24.98.26,2.04.23,3.04.44.99.2,2.1.33,2.89.87,2.41,1.69,4.18,3.9,5.02,7.27-1.49-.11-2.71.02-3.75-.33-1.78-.61-3.43-1.57-5.18-2.3-1.41-.59-2.85-1.21-4.34-1.56-1.56-.37-3.1,1.4-2.56,2.9.46,1.27,1.25,2.41,1.79,3.65,1,2.33,1.99,4.67,2.85,7.05.27.77.26,1.8-.74,2.16-.58.21-1.51.27-1.93-.05-1.2-.9-2.32-1.95-3.27-3.11-.63-.77-.78-1.92-1.4-2.7-.47-.6-1.36-1.22-2.06-1.21-.68.02-1.58.69-1.94,1.32-.74,1.32-1.09,2.86-1.82,4.19-.73,1.35-1.72,2.59-3.84,2.2-.33-.63-.91-1.33-1.06-2.11-.28-1.49-.34-3.02-.43-4.55-.1-1.67.25-3.55-1.98-4.18-1.32-.38-2.11.6-2.79,3.49-.3,1.35-.47,2.71-2.25,3.33Zm-137.48-160.23c-.82.12-1.02.22-1.12.15-.44-.26-.9-.51-1.27-.87-5.54-5.41-10.32-11.39-14.23-18.04-2.67-4.52-3.76-9.47-4.03-14.6-.27-5.23,1.7-9.62,5.64-13.16,2.15-1.94,4.69-2.82,7.58-2.65,3.51.19,5.31,2.01,5.34,5.46.01,1.15-.26,2.33-.59,3.44-2.23,7.38-2.3,14.7.36,22,.4,1.11.82,2.26.94,3.44.52,4.89.92,9.79,1.37,14.83Zm156.84-10.62c-13.57-4.6-29.21-22.07-29.67-32.59.31-.13.62-.38.92-.37,10.2.27,17.94,5,23.93,12.84.51.65.81,1.48,1.11,2.27,2.1,5.6,2.71,11.47,3.7,17.85Zm-120.9,107.08c-1.64-.42-3.34-.68-4.9-1.3-2.02-.81-2.57-2.19-1.67-4.1,2.03-4.3,4.11-8.58,6.3-12.81,1.3-2.5,3.26-2.72,5.38-.73,2.32,2.19,3.5,4.92,4.06,8.03.73,4.03-4.56,10.87-9.17,10.91Zm-28.43-143.34c4.29-8.88,18.33-14.62,28.74-11.25-.94,1.26-1.85,2.45-2.74,3.67-2.53,3.45-5.9,5.5-10.1,6.56-5.09,1.28-10.21.99-15.9,1.01Zm.65,195.03c1.07-4.45,2.55-8.76,4.21-12.99,1.31-3.33,4.81-3.95,7.46-1.52,5.19,4.75,4.73,11.09-1.12,14.9-.85.56-1.76,1.06-2.69,1.48-3.03,1.38-5.61.8-7.86-1.87Zm106.09,10.74c-4.48,1.63-8.48,1.22-12.3-1.24-2.58-1.66-3.56-4.01-3.16-6.92.41-2.98,1.67-5.49,4.63-6.8,3.45-1.53,7.64.39,8.49,3.97.84,3.59,1.54,7.22,2.34,10.99Zm-50.03,85.38c-.57-2.46.37-4.17,1.9-5.68,1.63-1.62,3.63-2.67,5.86-3.05,5.14-.91,10.3-.66,15.38.52,1.21.28,2.2.96,2.24,2.38-5.51,5.32-17.08,8.07-25.38,5.83Zm-94.8-34.7c-6.61-1.97-13.61-7.97-15.86-13.66-.62-1.55-.9-3.26-1.06-4.91-.08-.92.39-1.87.65-2.92,2.55-.22,4.13,1.07,5.62,2.42,4.87,4.39,8.28,9.82,11.24,15.55.58,1.14.52,2.27-.59,3.53Zm80.71-32.6c2.29-5.41,4.05-7.36,7.91-8.7,1.1-.38,2.35-.61,3.48-.48,5.01.6,8.96,4.8,9.77,10.48-7.03.39-13.94.06-21.17-1.3Zm46.37-90.66c.69,2.54,1.2,4.31,1.64,6.09.98,3.94,1.96,7.87,2.85,11.82.31,1.35-.76,2.37-2.04,2.16-7.24-1.24-10.22-5.64-8.74-12.73.46-2.25,1.49-4.15,3.19-5.66.69-.61,1.67-.93,3.1-1.69Zm-36.2-17.89c4.64.28,8.75.86,13.1,1.04-.14,2.03-1.27,3.11-2.55,3.83-1.13.64-2.55,1.22-3.8,1.14-3.41-.23-5.3-2.45-6.75-6.02Z"/><path class="cls-6" d="m394.15,420.85c.17,2.44,1.13,5.1,3.25,7.29,3.82,3.95,8.51,5.62,14,5.14,3.61-.31,5.84-2.54,7.76-5.33,3-4.38,3.09-14.82-2.13-19.98-3.86-3.81-9.38-4.8-14.21-2.24-5.67,3-8.93,8.47-8.67,15.11Zm22.83-1.91c-.1,2.86-.51,5.54-2.48,7.67-.88.94-2.11,1.9-3.32,2.16-7.33,1.6-13.88-4.99-12.11-12.05.65-2.57,2.15-4.57,4.33-6.12,4.33-3.07,9.83-1.77,12.05,3.01.76,1.66,1.03,3.55,1.52,5.32Z"/><path class="cls-6" d="m407.37,304.27c-1.21.05-1.39.05-1.56.06-5.24.16-5.94,1.06-4.9,6.1.93,4.46,1.75,8.96,2.71,13.44,2.24,10.44,9.1,12.64,17.24,12.09,5.67-.38,9.72-2.93,12.62-7.6,2.77-4.47,3.79-9.4,4.11-14.52.11-1.74-.48-3.32-1.36-4.8-.86-1.44-2.01-1.97-3.77-2.11-6.16-.49-12.3-1.24-18.43-1.91-2.56-.28-5.11-.57-6.65-.74Zm25.13,9.13c.37,3.49-.43,6.62-1.71,9.58-2.63,6.08-5.84,8.93-14.22,8.13-4.1-.39-6.73-2.48-7.68-6.38-1.03-4.28-1.87-8.6-2.73-12.92-.16-.76-.04-1.58-.06-2.64,1.35.04,2.34,0,3.33.12,4.78.6,9.53,1.41,14.32,1.82,2.95.24,5.75.74,8.76,2.28Z"/><path class="cls-6" d="m376.56,265.26c.26,4.07,2.82,6.57,6.3,6.67,3.73.12,6.68-2.25,7.17-5.85.13-.98.06-2.03-.09-3.01-.52-3.39-1.9-5.1-4.39-5.51-3.13-.51-5.75.22-7.57,3.01-1.06,1.63-1.53,3.37-1.42,4.7Z"/><path class="cls-6" d="m456.87,283.04c.17,4.56,3.4,7.6,7.94,7.46,4.53-.13,7.97-3.29,7.76-7.12-.24-4.26-4.35-8.26-8.38-8.17-3.66.1-7.46,4.15-7.32,7.82Z"/><path class="cls-10" d="m200.22,416.88c-1.52.68-3.06,1.4-4.63,2.07-4,1.7-8.15.55-10.58-3.01-.8-1.17-1.33-2.53-1.94-3.83-.37-.78-.57-1.64-.95-2.4-.75-1.49-2.35-1.86-3.56-.82-.75.65-1.35,1.5-2.12,2.13-3.23,2.64-8.01,2.37-10.88-.67-2.68-2.83-3.92-6.34-3.98-10.19-.03-1.85.38-3.7.65-5.55.1-.71.49-1.39.5-2.09,0-.65-.13-1.54-.57-1.91-.42-.36-1.37-.44-1.94-.22-1.06.39-2.01,1.07-3.01,1.63-2.33,1.3-4.83,1.66-7.44,1.37-5.12-.57-7.75-3.43-7.61-8.58.04-1.69.54-3.39.87-5.07.11-.55.54-1.1.49-1.62-.05-.65-.3-1.4-.73-1.86-.29-.31-1.1-.31-1.58-.16-.66.2-1.21.73-1.84,1.06-2.28,1.18-4.48,2.59-6.87,3.47-6.88,2.53-12.37-1.24-12.74-8.69-.08-1.69.33-3.41.56-5.11.1-.7.53-1.4.47-2.07-.06-.62-.46-1.45-.94-1.7-.51-.25-1.34,0-1.96.22-.34.12-.54.63-.81.97-2.81,3.56-6.71,5.24-10.88,6.43-.27.08-.56.13-.83.17-5.8.85-9.77-2.37-10.06-8.3-.13-2.73.03-5.46.84-8.12.33-1.08.53-2.25.57-3.39.06-1.46-1.48-2.32-2.72-1.55-.84.52-1.54,1.28-2.38,1.82-1.8,1.14-3.59,2.34-5.5,3.27-1.98.96-4.14.85-6.29.38-3.23-.69-5.15-2.57-5.4-6.78-.24-4.06,1.34-7.59,3.87-10.7.68-.83,1.56-1.16,2.61-1.26,1.48-.15,2.79-.76,3.61-2.05.35-.55.62-1.33.54-1.95-.12-.96-1.01-1.46-1.87-1.46-.96-.01-2.02.13-2.87.55-1.51.76-2.92,1.11-4.44.16-1.77-1.13-3.01-2.69-3.27-4.82-.47-3.91.34-7.44,3.25-10.29,2.87-2.81,6.33-4.46,10.24-4.94,3.1-.38,6.24-.32,9.36-.45.57-.02,1.15.1,1.7.03,1.42-.17,2.45-1.41,1.88-2.73-.93-2.16-.2-3.97.71-5.75,2.39-4.74,5.93-8.45,10.48-11.09,1.33-.77,2.89-1.26,4.41-1.52,4.7-.83,7.21.43,9.61,4.57,2.7,4.65,3.21,4.82,7.35,1.57,3.4-2.68,7.16-4.01,11.45-4.18,3.14-.12,6.3-.34,9.37.43,1.9.48,3.84,1.15,5.52,2.15,2.59,1.55,4.08,3.97,4.01,7.15-.02.72-.16,1.47-.01,2.15.15.64.49,1.41,1,1.77.77.53,1.63.19,2.32-.44.21-.2.44-.38.61-.6,3.58-4.28,8.35-4.68,13.31-3.87,3.4.56,6.46,2.15,9.12,4.48,2.64,2.3,4,5.13,4.04,8.68.04,4.81.08,4.84,4.53,6.1,5.46,1.55,10.24,4.32,14.4,8.16,1.14,1.05,2.21,2.28,2.97,3.63,1.72,3,1.32,5.36-1.07,7.82-.5.51-1.11.92-1.59,1.44-1.17,1.27-1.04,2.76.34,3.68.83.56,1.76.95,2.63,1.45,2.64,1.47,5.1,3.19,7.16,5.4.97,1.04,1.94,2.15,2.63,3.38,1.63,2.9,1.51,5.79-.58,8.46-.71.9-1.52,1.72-2.27,2.58-1.61,1.86-1.79,3.88-.56,5.97.87,1.48,1.86,2.9,2.78,4.35.92,1.46,1.89,2.89,2.66,4.42.5,1,.77,2.16.96,3.27.24,1.43-.34,2.58-1.69,3.15-1.17.51-2.4.91-3.62,1.29-1.09.33-2.24.48-3.3.88-2.57.96-3.38,3.02-2.14,5.53.5,1.02,1.21,1.94,1.89,2.86.76,1.05,1.63,2.01,2.36,3.06,2.8,3.98,2.73,6.89-.44,10.51-3.65,4.17-8.11,6.74-13.84,6.54-1.13-.04-2.28.25-3.4.12-.98-.15-1.89-.62-2.96-.97Z"/><path class="cls-7" d="m76.74,357.89c5.14,1.89,9.94,1.24,14.91-1.85-.03,2.36-.04,3.89-.09,5.41-.08,2.65.42,5.17,1.71,7.48,1.71,3.06,4.2,4.97,7.73,5.52,3.51.55,6.81-.05,10.03-1.45,1.41-.61,2.81-1.21,4.52-1.94.25.95.42,1.6.58,2.26.28,1.11.46,2.26.86,3.33,2.54,6.76,7.64,9.79,15.38,7.97,1.78-.42,3.48-1.24,5.52-1.98.14.91.3,1.67.38,2.44.75,8.12,4.62,11.83,12.77,12,2.11.04,4.22-.34,6.49-.54.88,1.04.36,2.38.35,3.58-.04,3.58.99,6.84,2.74,9.85,1.71,2.92,4.01,5.16,7.43,6.11,3.05.85,5.91.7,8.71-.78.85-.45,1.71-.92,2.68-1.44.81,1.38,1.47,2.64,2.25,3.84,2.46,3.74,5.91,5.7,10.38,5.85,1.92.07,3.68-.37,5.33-1.32.98-.56,1.93-1.18,2.82-1.73,1.05.59.61,1.32.39,1.91-1.99,4.96-4.57,9.62-7.58,14.01-3.57,5.21-7.25,10.34-11.6,14.92-6.6,6.93-14,12.74-22.76,16.59-7.55,3.31-15.43,4.92-23.74,4.63-7.74-.27-15.35-1.19-22.89-2.9-8.45-1.92-16.06-5.62-23.25-10.54-7.28-4.97-12.75-11.46-17.32-18.84-5.28-8.51-7.55-18.01-8.14-27.89-.66-11.13.38-22.15,2.99-33.01,1.82-7.61,5.47-15.27,10.41-21.49Zm22.95,68.46c-.13,4.21.29,8.36,1.27,12.42,1.56,6.42,7.81,12.15,14.02,13.02,7.52,1.05,13.6-1.37,17.53-8.01,2.47-4.18,4.51-8.65,6.45-13.12,1.41-3.26.52-5.07-2.66-6.63-.89-.43-1.84-.77-2.79-1.07-2.72-.85-5.45-1.67-8.18-2.47-7.55-2.22-15.39-2.81-23.1-4.19-.45-.08-1.47.65-1.54,1.12-.44,2.96-.69,5.94-1,8.92Zm-2.91-29.55c-.05-.5-.09-1.21-.21-1.92-.32-1.98-1.27-3.57-3.19-4.23-2.16-.75-4.25-.35-6.02,1.16-2.27,1.93-3.19,6.98-1.77,9.59,1.05,1.95,2.7,2.89,4.93,2.71,3.39-.27,6.13-3.37,6.26-7.29Zm55.46,22.46c-.4,3.29,1.97,7.03,4.63,7.31,2.65.28,6.07-2.17,6.42-4.59.48-3.3-1.77-6.64-4.78-7.11-3.18-.49-5.9,1.42-6.26,4.39Z"/><path class="cls-14" d="m175.22,575.54c-2.55,2.02-8.71,5.05-11.4,5.62-2.28.48-3.55-.02-4.61-2.07-.73-1.4-1.3-2.88-1.8-4.39-.65-1.9-1.12-3.86-1.72-5.78-.79-2.53-1.28-2.89-3.93-3.06-.71-.04-1.43-.14-2.14-.08-6.33.55-12.48-.78-18.66-1.75-3.38-.54-6.78-.97-10.15-1.52-2.1-.34-4.22-.7-6.27-1.3-1.69-.5-2.99.04-3.85,1.74-.32.64-.54,1.34-.84,1.98-2.11,4.56-4.15,9.16-6.41,13.65-1.97,3.92-2.61,4.19-6.75,2.97-3.81-1.11-7.55-2.5-11.02-3.67-.86-1.53-.49-2.66-.06-3.7.71-1.73,1.56-3.4,2.37-5.08,1.92-4.02,3.83-8.04,5.76-12.05.8-1.66,1.68-3.29,2.62-5.12,2.87.37,5.53.77,8.2,1.06,15.48,1.69,30.98,2.91,46.51.68,4.2-.6,8.29-1.96,12.82-3.05.35.48,1.02,1.2,1.41,2.04,3.34,7.32,6.62,14.67,9.9,22.01.09.27,0,.59.01.88Z"/><path class="cls-8" d="m94.66,530.36c0-4.79,1-9.52,1.84-14.28,2.19-.29,3.96.17,5.73.69,8.67,2.54,17.55,3.66,26.54,4.03,2.99.12,5.97.11,8.92-.56,4.17-.94,8.4-1.44,12.67-1.75,3.23-.24,6.42-1.01,9.64-1.54,1.34,2.64,3.34,11.16,3.64,15.7-10.91,3.97-22.16,4.65-33.6,3.32-9.62-1.12-19.23-2.29-28.83-3.51-2.22-.27-4.57-.3-6.57-2.1Z"/><path class="cls-5" d="m97.27,511.41c.28-4.1.97-8.11,1.84-12.19,6.76.84,13.1,1.55,19.42,2.44,6.25.88,12.47.99,18.71-.04.84-.14,1.69-.29,2.54-.31,5.54-.09,11.06-.15,16.79-.22,1.4,3.42,1.95,7.09,2.91,10.87-.69.47-1.3,1.08-2.04,1.35-2.13.82-4.33,1.26-6.64,1.43-3.82.28-7.69.56-11.43,1.36-4.95,1.05-9.86,1.11-14.85.75-8.84-.64-17.42-2.64-25.98-4.83-.39-.09-.74-.35-1.27-.62Z"/><path class="cls-5" d="m93.15,546.94c-.1-4.29.12-7.97.82-11.83,1.98.32,3.76.66,5.57.9,8.2,1.07,16.39,2.25,24.61,3.11,5.95.63,11.94,1.08,17.92,1.15,5.99.08,11.94-.8,17.75-2.38,1.5-.41,2.95-.88,4.39-.76.22.28.37.38.39.51,1.15,8.44.41,8.16-6.4,10.54-2.8.98-5.79,1.54-8.74,1.95-9.93,1.37-19.9,1.15-29.89.51-7.4-.47-14.79-1.15-22.08-2.52-1.37-.27-2.71-.73-4.35-1.17Z"/><path class="cls-7" d="m246.19,431.22c.88,1.7.43,3.06-.14,4.4-.39.93-.93,1.79-1.3,2.72-.34.85-.31,1.81.51,2.31.51.31,1.38.37,1.96.17,1.34-.46,2.58-1.23,3.9-1.74.77-.31,1.64-.37,2.36-.52,1.2.89.9,1.91.49,2.8-.73,1.63-2.01,2.77-3.56,3.61-.88.47-1.79.89-2.66,1.39-.79.45-1.42,1.17-1.14,2.09.17.6.73,1.26,1.29,1.54,1.15.56,2.43.81,3.61,1.32,1,.44,2.13.83,2.42,2.12-.98,1.45-2.58,1.16-3.9,1.59-.94.3-1.97.35-2.89.68-1.16.42-1.57,1.78-.9,2.86.53.85,1.21,1.6,1.75,2.44.3.47.43,1.05.63,1.55-1.5,1.88-3.21,2.11-5.38,1.41-3.77-1.21-6.96-3.23-9.55-6.23-.28-.32-.6-.64-.79-1.01-3.18-6.28-6.3-12.57-5.26-20,.27-1.88.77-3.65,1.72-5.28.35-.58.92-1.03,1.43-1.57,2.73,1.29,3.6,3.73,4.45,6.17.33.94.43,1.97.83,2.86.49,1.1,2.23,1.15,2.83.09.42-.74.62-1.59.95-2.37,1.26-3.03,2.85-4.41,6.34-5.4Z"/><path class="cls-7" d="m21.41,397.02c3.22,1.12,6.55,3.96,8.53,7.33.43.74.71,1.57,1.13,2.32.45.8,1.12,1.35,2.09,1.19,1.02-.17,1.33-.96,1.35-1.89.02-.86-.12-1.73,0-2.57.42-3.16,3.37-5.65,6.57-5.65,1.1,0,2.03.68,2.01,1.78-.03,1.71,0,3.51-.51,5.1-1.09,3.41-2.49,6.72-3.82,10.04-.65,1.61-1.46,3.11-3.24,3.82-.84.34-1.06,1.17-1.28,2.07-1.34,5.35-6.3,9.32-11.73,9.51-.38.02-.78-.24-1.43-.46.28-.99.5-1.91.83-2.81.24-.67.76-1.26.91-1.93.14-.63.13-1.44-.15-2-.44-.88-1.39-.86-2.26-.66-.83.2-1.62.59-2.45.71-1.71.24-3.45.24-4.94-.78-.54-.37-1.26-1.12-1.19-1.59.12-.73.69-1.71,1.33-1.97,1.14-.46,2.47-.43,3.7-.7,1.12-.24,1.55-2.02.7-2.8-.41-.37-.95-.59-1.41-.9-.7-.48-1.45-.92-2.06-1.5-.75-.71-1.25-1.59-.77-2.69.48-1.12,1.23-2.05,2.51-2.02,1.26.02,2.54.24,3.77.54.81.2,1.56.67,2.32,1.07.87.47,1.66.39,2.34-.29.7-.7.59-1.51.16-2.36-1-2.04-2.02-4.09-2.89-6.2-.55-1.33-.43-1.38-.12-3.71Z"/><path class="cls-8" d="m154.26,488.27c1.26,2.69,1.11,5.43,1.68,8.27-.95.32-1.71.75-2.49.81-1.85.12-3.71-.03-5.55.06-4.26.2-8.52.44-12.77.74-3.83.28-7.64.7-11.5.22-5.79-.72-11.6-1.3-17.4-1.95-2.11-.24-4.21-.56-6.26-1.6-.03-2.98.77-5.71,1.22-8.71.8-.02,1.51-.2,2.12-.02,10.31,2.89,20.85,2.62,31.39,2.55,2.27-.01,4.55.05,6.8.3,2.71.3,5.38.44,8.07-.11,1.51-.31,3.06-.36,4.69-.54Z"/><path class="cls-5" d="m153.5,484.06c-3.38,1.09-6.57,1.44-9.86,1.25-3.97-.23-7.95-.5-11.92-.42-7.41.15-14.8.1-22.11-1.26-2.48-.46-5.04-.77-7.46-2.3.52-3.2.38-6.49,1.97-9.77,15.29,4.11,30.66,6.27,46.51,3.4,1.35,2.92,2.11,5.91,2.88,9.1Z"/><path class="cls-7" d="m59.43,393.25c-2.36-.73-3.52-2.72-4.55-4.75-1.78-3.51-2.62-7.31-2.83-11.21-.17-3.17.04-6.33.92-9.41.6-2.11,1.49-4.05,3.02-5.64,1.43-1.49,3.12-1.89,5.09-1.25,3.7,1.19,5.81,4.89,4.44,8.49-2.67,7.05-4.17,14.34-5.12,21.78-.06.42-.17.85-.34,1.24-.1.26-.35.44-.63.76Z"/><path class="cls-5" d="m38.65,594.72c.16-.94.22-1.81.46-2.64,1.34-4.74,3.47-9.12,6.16-13.22,1.05-1.61,2.57-2.17,4.39-2.21,1.41-.04,2.48.43,3.1,1.8.42.92.89,1.81,1.42,2.66.75,1.18.83,2.39.49,3.72-.35,1.4-.6,2.81-.92,4.22-1.05,4.59-3.67,8.04-7.45,10.69-1.68,1.17-3.44,1.44-5.23.46-1.81-.98-2.49-2.68-2.45-4.7.01-.29.03-.57.04-.78Z"/><path class="cls-7" d="m194.15,441.89c2.24-3.71,4.15-6.7,5.88-9.81,1.66-2.98,3.12-6.08,4.7-9.19,2.56-.22,4.94.19,7.2,1.03,2.9,1.08,3.86,3.11,3.13,6.17-.19.82-.56,1.63-.98,2.37-1.07,1.9-2.5,3.51-4.29,4.74-4.46,3.06-9.43,4.49-15.64,4.7Z"/><path class="cls-5" d="m211.83,587.2c1.68,1.56,3.23,3.03,4.8,4.49,2.36,2.19,3.4,4.93,3.26,8.11-.08,1.71-.25,3.45-.67,5.1-.23.91-.94,1.75-1.6,2.47-.68.75-1.98.73-2.71,0-.6-.59-1.2-1.27-1.54-2.02-2.13-4.73-3.48-9.71-4.1-14.87-.2-1.63.45-2.78,2.55-3.28Z"/><path class="cls-17" d="m84.3,399.91c-6.43-3.42-14.68-2.07-18.85,4.22-3,4.54-2.18,11.18.82,15.7,1.54,3.28,4.51,5.92,7.95,6.82,7.17,1.87,13.52-2.35,16.38-8.83,2.83-6.38-.32-14.73-6.3-17.9Z"/><path class="cls-17" d="m180.95,431.94c-2.15-4.88-6.61-7.34-11.54-7.52-2.73-.46-5.61-.17-8.13.89-7.88,3.3-9.17,13.4-4.39,19.8,4.32,5.8,12.79,7.96,19,3.83,5.56-3.69,7.81-10.8,5.07-17Z"/><path class="cls-6" d="m69.04,362.59c1.56-2.58,2.89-4.79,4.12-6.82-.07-.4-.05-.57-.13-.67-3.64-5.44-2.75-10.9-.07-16.37.5-1.03,1.11-2,1.74-3.14-.79-.68-1.53-1.32-2.28-1.96-2.29-1.98-3.53-4.53-3.73-7.52-.3-4.5.87-8.57,4.02-11.91,4.5-4.77,10.2-6.69,16.55-6.95,1.55-.06,3.12.1,4.46.16.43-.39.78-.55.81-.77,1.11-6.63,4.97-11.5,9.85-15.73.97-.85,2.02-1.61,3.1-2.3,2.7-1.73,5.68-2.66,8.89-2.78,4-.15,7.22,1.38,9.67,4.55.78,1.01,1.49,2.06,2.23,3.1.53-.26.95-.38,1.28-.63,8.23-6.11,17.33-5.95,26.58-3.49,3.99,1.05,7.04,3.73,8.74,7.71.22.52.49,1.02.68,1.43,1.06.65,1.73-.15,2.46-.44,8.11-3.4,18.43-.96,24.6,6.08,1.73,1.98,2.85,4.29,3.19,6.95.17,1.42.35,2.84.54,4.43,1.08.41,2.13.82,3.18,1.19,5.32,1.86,10.1,4.67,14.25,8.52,1.05.97,2.05,2.02,2.88,3.18,2.92,4.08,3,8.12.34,12.44-.22.37-.47.72-.85,1.29.73.59,1.42,1.3,2.24,1.79,2.6,1.57,4.92,3.5,6.86,5.8,1.27,1.51,2.45,3.23,3.16,5.06,1.45,3.73.89,7.36-1.54,10.6-.94,1.25-1.97,2.42-3.1,3.81.89,1.43,1.7,2.76,2.52,4.08,1.06,1.7,2.21,3.35,3.18,5.12.61,1.12,1.09,2.36,1.38,3.61,1.05,4.44-.36,7.18-4.58,8.91-1.18.49-2.46.71-3.69,1.09-.8.25-1.57.58-2.55.94.55.91.94,1.66,1.43,2.34.76,1.04,1.61,2.02,2.36,3.07,3.86,5.38,3.66,10.34-.62,15.31-1.79,2.08-3.86,3.84-6.27,5.17-.84.47-1.65,1.03-2.5,1.56.32.38.47.64.68.8,1.77,1.29,3.36,2.68,3.7,5.05.4,2.79.06,5.46-1.37,7.92-1.99,3.47-4.8,6.09-8.33,7.85-4.39,2.19-9.01,3.62-13.98,3.52-1.13-.02-2.27-.09-3.6-.14-.81.92-1.69,1.85-2.49,2.84-7.54,9.44-16.53,17.08-27.32,22.49-.24.12-.44.36-.89.75.57.4,1.03.9,1.58,1.09,10.7,3.64,21.53,4.01,32.47,1.24,10.17-2.57,19.79-6.5,28.74-12.04,1.84-1.13,3.58-2.35,5.02-4.43-.91-2.29-1.89-4.66-2.8-7.04-2.01-5.21-2.85-10.54-1.52-16.08.55-2.26,1.36-4.41,2.86-6.21,2.07-2.48,4.71-2.74,7.1-.56,1.34,1.22,2.43,2.73,3.75,4.22.96-.79,1.76-1.61,2.71-2.21,1.2-.76,2.44-1.58,3.77-1.96,3.11-.87,5.34.7,5.84,3.93.16.98.12,1.99.19,3.17,1.13.04,2.22.08,3.3.13,2.45.11,3.65,1.11,4.21,3.49.56,2.45-.22,4.55-1.64,6.47-.75,1.02-1.62,1.93-2.59,3.08.96.83,1.87,1.49,2.64,2.27,2.65,2.69,2.22,5.66-1.07,7.35-1.12.57-2.33.96-3.53,1.44.24,1.69.64,3.21.66,4.74.03,2.36-.62,2.95-2.75,3.77-4.97,1.92-9.24.04-13.37-2.43-1.82-1.09-3.41-2.56-5.26-3.98-1.59,1.2-3.09,2.51-4.75,3.54-12.18,7.55-25.24,12.73-39.49,14.55-9.25,1.18-18.19-.26-26.93-3.31-1.45-.51-2.9-1.03-4.76-1.69.02,1.07-.12,1.79.09,2.37,2.33,6.54,3.3,13.36,4.62,20.14,1.73,8.9,3.96,17.69,5.89,26.54,1.03,4.77,1.99,9.58,2.74,14.41.49,3.11.71,6.33-.65,9.36-.61,1.37.03,2.49.58,3.68,2.2,4.69,4.36,9.38,6.52,14.08.54,1.17,1.04,2.37,1.53,3.56.86,2.14,1.74,4.18,3.68,5.68,1.47,1.14,1.14,2.89-.48,3.92-1.92,1.22-3.88,2.38-6.03,3.7.19,1.01.25,2,.57,2.91,1.06,3.13,2.03,6.32,3.38,9.32,1.11,2.46,2.5,4.89,4.18,6.98,3.34,4.15,7.96,4.75,12.1,1.44,5.19-4.15,9.5-9.1,11.87-15.52,1.29-3.51,5.6-4.81,8.39-2.44,2.17,1.85,4.22,3.88,6.16,5.99.95,1.03,1.71,2.33,2.24,3.63,1.76,4.33,1.53,8.76-.04,13.09-1.16,3.21-3.58,4.83-6.44,4.74-1.99-.07-3.65-.83-4.75-2.48-.87-1.3-1.64-2.72-2.17-4.19-.9-2.43-1.56-4.92-2.35-7.4-.25-.77-.57-1.51-.98-2.59-1.15,1.39-2,2.53-2.97,3.56-1.86,1.98-3.67,4.04-5.7,5.84-6.73,5.96-14.76,3.93-19-2.19-1.62-2.35-3.04-4.88-4.19-7.5-1.33-3.02-2.24-6.21-3.35-9.33-.23-.64-.56-1.25-.93-2.06-1.51.48-2.84.95-4.17,1.33-4.82,1.38-8.01-.06-10.11-4.66-.77-1.69-1.29-3.51-1.9-5.27-.52-1.49-1-2.99-1.53-4.61-1.02-.16-2-.52-2.94-.42-5.63.54-11.09-.77-16.58-1.54-4.65-.65-9.24-1.8-13.95-2.08-1.41-.09-2.79-.46-4.41-.74-.39.75-.81,1.46-1.16,2.19-2.26,4.65-4.37,9.38-6.8,13.94-2.49,4.67-4,5.21-9.03,4.12-.97-.21-1.94-.37-2.94-.55-1.13,1.14-1.29,2.61-1.71,3.96-.97,3.04-2.37,5.85-4.2,8.45-4.11,5.87-10.94,6.44-15.99,3.94-2.99-1.47-5.5-3.6-7.73-6.06-2.02-2.22-3.96-4.51-5.9-6.71-1.1-.02-1.12.79-1.26,1.46-1.23,5.67-4.57,9.83-9.23,13.02-2.84,1.95-5.86,2.23-8.87.46-2.96-1.74-4.44-4.4-4.34-7.87.03-1.29.1-2.62.42-3.85,1.46-5.46,3.88-10.49,6.97-15.22,1.84-2.81,4.33-4.08,7.61-3.8,1.54.12,3.08.3,4.38.42,1.77,3.19,3.39,6.04,4.94,8.93,2.55,4.73,5.97,8.78,9.86,12.41,1.35,1.26,2.89,2.38,4.51,3.25,4.44,2.38,8.69,1.33,11.71-2.75,2.45-3.3,3.71-7.08,4.61-11.25-.9-.45-1.74-.93-2.62-1.3-1.32-.55-2.7-.94-4-1.53-1.59-.73-2.47-2.06-2.15-3.83.33-1.82.81-3.65,1.47-5.38.72-1.87,1.73-3.63,2.6-5.44,2.35-4.92,4.69-9.85,7.12-14.95-.44-.47-.75-.93-1.17-1.22-1.3-.89-1.83-2.19-1.9-3.68-.06-1.3-.05-2.59.07-3.89.91-10.77,2.45-21.45,4.16-32.12,1.32-8.25,2.59-16.5,3.9-24.75.47-2.96.98-5.92,1.51-9.12-1.07-.28-1.85-.53-2.64-.69-3.24-.66-6.31-1.74-9.32-3.09-11.92-5.3-22.27-12.79-31.08-22.48-6.86-7.54-13.57-15.17-19.18-23.74-.07-.11-.22-.16-.36-.24-1.11-.21-1.44.77-1.86,1.42-2.48,3.83-6.29,5.23-10.48,5.96-.83.15-1.71.14-2.55.03-2.84-.35-3.97-1.56-4.22-4.46-.05-.56.04-1.13.07-1.96-1.15-.3-2.24-.52-3.27-.87-1.2-.41-2.48-.77-3.53-1.45-2.82-1.86-3.35-4.99-1.44-7.88.47-.7,1.06-1.32,1.69-2.07-1.64-2.66-2.03-5.34-.11-8.05,1.41-1.98,2.36-2.46,7.58-3.56-.19-.81-.46-1.61-.53-2.43-.14-1.71-.39-3.45-.19-5.14.3-2.62,2.06-3.71,4.61-2.98,1.2.35,2.4.96,3.43,1.69,1.41.97,2.66,2.17,3.98,3.27.64.53,1.27,1.07,2.01,1.69.9-.98,1.65-1.83,2.43-2.66,1.88-1.98,4.27-2.86,6.89-3.07,3.17-.26,5.44,1.68,5.96,4.9.4,2.48.03,4.92-.66,7.26-1.65,5.52-3.7,10.89-7.28,15.67.55,2.54,2.13,4.6,3.61,6.67,5.26,7.39,11.19,14.21,17.44,20.72,3.26,3.4,6.8,6.58,10.49,9.52,6.18,4.94,13.06,8.74,20.38,11.72,1.96.8,4.08,1.25,6.16,1.7,1.14.25,1.28.03,2.52-2.06-.8-.51-1.56-1.11-2.42-1.51-5.73-2.7-11.01-6.21-15.73-10.36-8.17-7.2-14.37-15.95-17.95-26.41-3.06-8.95-4.29-18.17-3.93-27.63.08-2,.15-4.01.23-6.03-7.96-3.7-10.11-10.83-11.11-18.44-.58-4.41-.44-8.95,1.06-13.25.66-1.88,1.49-3.77,2.63-5.39,3.3-4.69,9.07-5.36,13.48-1.67,1.03.88,1.96,1.98,3.28,3.3Zm131.18,54.29c1.07.35,1.98.82,2.94.92,1.12.12,2.26-.16,3.4-.12,5.73.21,10.19-2.36,13.84-6.54,3.17-3.62,3.24-6.52.44-10.51-.74-1.06-1.6-2.02-2.36-3.07-.67-.93-1.38-1.85-1.89-2.86-1.24-2.51-.43-4.57,2.14-5.53,1.06-.39,2.21-.54,3.3-.88,1.22-.38,2.44-.78,3.62-1.29,1.34-.58,1.93-1.72,1.69-3.15-.19-1.12-.46-2.27-.96-3.27-.76-1.54-1.74-2.97-2.66-4.42-.91-1.46-1.9-2.87-2.78-4.35-1.23-2.1-1.06-4.12.56-5.97.76-.86,1.57-1.68,2.27-2.58,2.09-2.68,2.21-5.57.58-8.46-.69-1.23-1.65-2.34-2.63-3.38-2.06-2.22-4.53-3.93-7.16-5.4-.87-.48-1.8-.89-2.63-1.44-1.38-.92-1.51-2.4-.35-3.68.48-.53,1.09-.92,1.59-1.44,2.38-2.46,2.78-4.82,1.07-7.82-.77-1.34-1.84-2.58-2.97-3.63-4.16-3.84-8.94-6.62-14.4-8.16-4.45-1.25-4.49-1.29-4.53-6.1-.02-3.55-1.4-6.38-4.04-8.68-2.65-2.33-5.71-3.92-9.12-4.48-4.96-.81-9.73-.41-13.31,3.87-.18.22-.41.4-.62.6-.68.64-1.55.97-2.32.44-.5-.35-.84-1.12-.99-1.77-.16-.68-.01-1.42,0-2.14.06-3.18-1.43-5.6-4.01-7.15-1.68-1.01-3.62-1.68-5.52-2.15-3.07-.77-6.23-.55-9.37-.43-4.28.17-8.05,1.5-11.45,4.18-4.13,3.26-4.65,3.07-7.35-1.57-2.4-4.13-4.91-5.39-9.61-4.57-1.52.27-3.08.75-4.41,1.52-4.55,2.64-8.09,6.35-10.48,11.09-.9,1.79-1.64,3.6-.71,5.75.57,1.32-.46,2.56-1.88,2.73-.56.07-1.13-.05-1.7-.03-3.13.12-6.27.07-9.36.45-3.9.48-7.38,2.12-10.24,4.93-2.91,2.85-3.73,6.38-3.25,10.29.25,2.13,1.49,3.69,3.27,4.82,1.51.96,2.93.61,4.44-.16.84-.43,1.91-.57,2.87-.55.86,0,1.76.51,1.87,1.46.07.62-.18,1.4-.54,1.95-.83,1.28-2.13,1.9-3.61,2.05-1.05.1-1.93.43-2.61,1.26-2.53,3.11-4.11,6.65-3.87,10.7.25,4.21,2.17,6.08,5.4,6.78,2.16.47,4.3.58,6.29-.38,1.91-.92,3.7-2.13,5.5-3.27.84-.53,1.54-1.29,2.38-1.82,1.24-.77,2.78.09,2.72,1.55-.04,1.14-.23,2.3-.57,3.39-.81,2.66-.97,5.4-.84,8.12.29,5.94,4.25,9.15,10.06,8.3.29-.04.56-.09.83-.17,4.18-1.2,8.08-2.87,10.88-6.43.26-.33.47-.85.81-.97.62-.22,1.46-.48,1.96-.22.49.24.88,1.08.94,1.7.06.67-.37,1.37-.47,2.07-.24,1.7-.65,3.42-.56,5.11.37,7.45,5.86,11.22,12.74,8.69,2.39-.87,4.59-2.28,6.87-3.47.63-.33,1.18-.85,1.84-1.06.49-.15,1.29-.15,1.58.16.43.44.68,1.21.73,1.86.04.53-.38,1.07-.49,1.62-.33,1.68-.82,3.38-.87,5.07-.13,5.15,2.49,8.01,7.61,8.58,2.62.3,5.11-.06,7.44-1.37,1-.56,1.95-1.23,3.01-1.63.57-.21,1.51-.14,1.94.22.43.37.58,1.25.57,1.9,0,.7-.4,1.38-.5,2.08-.27,1.85-.67,3.7-.65,5.55.05,3.86,1.3,7.36,3.98,10.19,2.87,3.04,7.64,3.3,10.88.67.77-.63,1.36-1.48,2.12-2.13,1.22-1.04,2.82-.67,3.56.82.38.77.59,1.62.95,2.4.61,1.3,1.15,2.66,1.94,3.83,2.43,3.57,6.58,4.71,10.57,3.01,1.59-.63,3.13-1.35,4.65-2.02Zm-123.49-58.98c-4.95,6.21-8.59,13.88-10.42,21.49-2.61,10.86-3.65,21.88-2.99,33.01.59,9.88,2.86,19.38,8.14,27.89,4.57,7.38,10.04,13.86,17.32,18.84,7.19,4.92,14.8,8.62,23.25,10.54,7.53,1.72,15.15,2.62,22.89,2.9,8.31.3,16.18-1.32,23.74-4.63,8.77-3.85,16.17-9.66,22.76-16.59,4.36-4.58,8.04-9.72,11.6-14.92,3.01-4.39,5.59-9.05,7.58-14.01.23-.58.66-1.32-.39-1.91-.89.55-1.84,1.17-2.82,1.73-1.65.93-3.41,1.38-5.33,1.32-4.47-.15-7.92-2.11-10.38-5.85-.78-1.19-1.45-2.45-2.25-3.84-.97.53-1.82.99-2.68,1.44-2.8,1.48-5.66,1.62-8.71.78-3.42-.95-5.72-3.19-7.43-6.11-1.76-3.02-2.78-6.28-2.74-9.85.01-1.2.54-2.54-.35-3.58-2.28.2-4.39.58-6.49.54-8.15-.17-12.02-3.87-12.77-12-.07-.77-.23-1.53-.38-2.44-2.04.75-3.74,1.57-5.52,1.98-7.74,1.81-12.83-1.22-15.38-7.97-.4-1.07-.58-2.22-.86-3.33-.17-.65-.34-1.31-.58-2.26-1.7.73-3.11,1.33-4.52,1.94-3.21,1.4-6.51,1.99-10.03,1.45-3.52-.55-6.02-2.46-7.73-5.52-1.29-2.31-1.79-4.83-1.71-7.48.04-1.53.05-3.05.09-5.41-4.96,3.09-9.76,3.74-14.9,1.85Zm98.48,217.64c0-.29.07-.61-.03-.84-3.28-7.34-6.56-14.69-9.9-22.01-.39-.85-1.07-1.57-1.41-2.04-4.52,1.09-8.62,2.45-12.82,3.05-15.52,2.22-31.03,1.02-46.51-.68-2.67-.29-5.34-.69-8.2-1.06-.94,1.83-1.81,3.46-2.62,5.12-1.94,4.01-3.85,8.03-5.76,12.05-.8,1.69-1.65,3.36-2.37,5.08-.43,1.05-.8,2.17.06,3.7,3.48,1.17,7.21,2.55,11.02,3.67,4.14,1.22,4.77.95,6.75-2.97,2.26-4.49,4.29-9.09,6.41-13.65.3-.65.51-1.34.84-1.98.87-1.7,2.15-2.24,3.85-1.74,2.04.59,4.17.96,6.27,1.3,3.37.56,6.77.98,10.15,1.52,6.18.98,12.34,2.3,18.66,1.75.71-.06,1.43.03,2.14.08,2.66.17,3.15.53,3.93,3.06.6,1.92,1.08,3.88,1.72,5.78.5,1.49,1.08,2.99,1.8,4.39,1.06,2.06,2.33,2.55,4.61,2.07,2.71-.6,8.87-3.63,11.42-5.65Zm-80.56-45.17c2.01,1.8,4.35,1.84,6.57,2.12,9.61,1.22,19.22,2.39,28.83,3.51,11.44,1.33,22.68.65,33.6-3.32-.3-4.54-2.31-13.07-3.64-15.7-3.23.54-6.42,1.31-9.64,1.54-4.27.31-8.5.82-12.67,1.75-2.96.66-5.93.67-8.92.56-8.99-.38-17.87-1.49-26.54-4.03-1.77-.52-3.55-.98-5.73-.69-.84,4.74-1.84,9.47-1.84,14.26Zm2.61-18.95c.54.27.89.53,1.27.63,8.55,2.19,17.13,4.18,25.98,4.83,4.99.36,9.9.31,14.85-.75,3.74-.8,7.6-1.08,11.43-1.36,2.31-.17,4.51-.61,6.64-1.43.73-.28,1.35-.89,2.04-1.35-.96-3.78-1.5-7.45-2.91-10.87-5.73.07-11.26.13-16.79.22-.85.02-1.7.16-2.54.31-6.24,1.03-12.46.91-18.71.04-6.32-.89-12.66-1.6-19.42-2.44-.87,4.07-1.56,8.09-1.84,12.18Zm-4.12,35.53c1.64.44,2.98.9,4.36,1.16,7.3,1.37,14.68,2.05,22.08,2.52,9.98.64,19.95.86,29.89-.51,2.95-.41,5.93-.97,8.74-1.95,6.81-2.38,7.55-2.1,6.4-10.54-.01-.12-.16-.23-.39-.51-1.44-.11-2.9.35-4.39.76-5.81,1.59-11.76,2.47-17.75,2.38-5.98-.08-11.97-.52-17.92-1.15-8.22-.87-16.41-2.04-24.61-3.11-1.81-.23-3.6-.57-5.57-.9-.7,3.86-.92,7.55-.83,11.83Zm153.04-115.72c-3.49.99-5.09,2.37-6.33,5.38-.33.78-.53,1.64-.95,2.37-.6,1.05-2.33,1.01-2.83-.09-.39-.9-.51-1.92-.83-2.86-.85-2.43-1.72-4.87-4.45-6.17-.52.55-1.09.99-1.43,1.57-.95,1.62-1.46,3.39-1.72,5.28-1.04,7.44,2.08,13.72,5.26,20,.19.38.51.69.79,1.01,2.59,3,5.78,5.01,9.55,6.23,2.18.7,3.88.47,5.38-1.41-.2-.5-.33-1.08-.63-1.55-.54-.85-1.22-1.6-1.75-2.44-.67-1.08-.26-2.45.9-2.86.93-.33,1.95-.38,2.89-.68,1.31-.42,2.91-.13,3.9-1.59-.28-1.29-1.42-1.68-2.42-2.12-1.17-.51-2.46-.76-3.61-1.32-.56-.27-1.12-.93-1.29-1.54-.27-.92.36-1.64,1.14-2.08.87-.5,1.78-.91,2.66-1.39,1.55-.83,2.83-1.98,3.55-3.61.4-.89.71-1.91-.49-2.8-.71.14-1.58.22-2.36.51-1.33.51-2.56,1.28-3.91,1.74-.57.2-1.44.13-1.96-.17-.82-.5-.86-1.46-.51-2.31.37-.93.9-1.79,1.3-2.72.56-1.32,1.01-2.69.13-4.38Zm-224.79-34.21c-.32,2.32-.43,2.37.12,3.69.88,2.11,1.89,4.15,2.89,6.21.42.85.54,1.66-.16,2.36-.67.67-1.47.74-2.34.29-.76-.4-1.51-.88-2.32-1.07-1.23-.3-2.51-.51-3.77-.54-1.28-.03-2.03.9-2.51,2.02-.48,1.1.02,1.98.77,2.69.61.58,1.36,1.02,2.06,1.5.47.31,1.01.53,1.41.9.85.78.42,2.55-.7,2.8-1.23.27-2.56.23-3.7.7-.63.25-1.21,1.24-1.33,1.97-.07.46.65,1.22,1.19,1.59,1.49,1.02,3.23,1.03,4.94.78.83-.11,1.63-.51,2.45-.71.86-.2,1.82-.22,2.26.66.28.56.29,1.36.15,2-.15.67-.67,1.27-.91,1.93-.33.89-.54,1.82-.83,2.81.65.21,1.04.47,1.43.46,5.43-.18,10.39-4.17,11.73-9.51.23-.89.44-1.74,1.28-2.07,1.78-.71,2.58-2.21,3.24-3.82,1.33-3.32,2.72-6.64,3.82-10.04.51-1.59.48-3.39.51-5.1.02-1.1-.91-1.78-2.01-1.78-3.2,0-6.14,2.49-6.57,5.65-.11.84.02,1.71,0,2.57-.02.93-.33,1.71-1.35,1.89-.97.16-1.64-.39-2.09-1.19-.43-.74-.69-1.57-1.13-2.32-1.98-3.35-5.3-6.18-8.53-7.32Zm132.86,91.26c-1.62.17-3.17.23-4.68.54-2.7.54-5.36.41-8.07.1-2.25-.25-4.54-.31-6.8-.29-10.54.07-21.09.35-31.39-2.55-.61-.17-1.31,0-2.12.02-.45,3.01-1.25,5.73-1.22,8.72,2.05,1.05,4.14,1.36,6.26,1.6,5.8.65,11.61,1.23,17.4,1.95,3.86.48,7.67.05,11.5-.22,4.25-.3,8.51-.54,12.77-.74,1.84-.09,3.7.05,5.55-.06.78-.04,1.54-.48,2.49-.8-.58-2.84-.43-5.58-1.69-8.27Zm-.76-4.21c-.77-3.18-1.52-6.18-2.88-9.1-15.86,2.87-31.22.71-46.51-3.4-1.58,3.28-1.44,6.57-1.97,9.77,2.43,1.54,4.98,1.85,7.46,2.3,7.31,1.36,14.7,1.4,22.11,1.26,3.97-.08,7.95.18,11.92.42,3.3.2,6.49-.15,9.86-1.24Zm-94.07-90.81c.28-.32.53-.51.64-.75.17-.39.28-.82.34-1.24.94-7.44,2.45-14.74,5.12-21.78,1.36-3.61-.75-7.31-4.44-8.49-1.96-.63-3.66-.24-5.09,1.25-1.52,1.6-2.42,3.54-3.02,5.64-.88,3.08-1.09,6.25-.92,9.42.21,3.91,1.05,7.71,2.83,11.21,1.03,2.02,2.19,4.02,4.55,4.75Zm-20.78,201.47c0,.2-.03.49-.03.78-.05,2.02.64,3.71,2.45,4.7,1.8.98,3.55.71,5.23-.46,3.78-2.65,6.4-6.11,7.45-10.69.32-1.4.56-2.82.92-4.22.34-1.33.26-2.54-.49-3.72-.54-.85-1-1.74-1.42-2.66-.63-1.36-1.69-1.83-3.1-1.8-1.82.04-3.33.61-4.39,2.21-2.69,4.11-4.81,8.49-6.16,13.23-.24.83-.31,1.7-.47,2.64Zm155.5-152.83c6.21-.21,11.17-1.63,15.64-4.71,1.79-1.23,3.21-2.84,4.29-4.74.42-.74.78-1.55.98-2.37.73-3.06-.22-5.09-3.13-6.16-2.26-.84-4.63-1.24-7.2-1.03-1.58,3.12-3.04,6.21-4.7,9.2-1.73,3.11-3.65,6.12-5.89,9.82Zm17.68,145.31c-2.1.5-2.75,1.65-2.56,3.28.61,5.17,1.97,10.14,4.1,14.88.34.76.93,1.43,1.54,2.02.74.72,2.04.74,2.71-.01.65-.73,1.38-1.57,1.6-2.47.41-1.65.59-3.39.67-5.1.15-3.18-.89-5.92-3.26-8.11-1.57-1.45-3.12-2.91-4.79-4.48Z"/><path class="cls-6" d="m99.69,426.35c.32-2.98.57-5.96,1.01-8.93.07-.46,1.08-1.2,1.54-1.12,7.7,1.4,15.55,1.99,23.1,4.19,2.74.8,5.46,1.62,8.18,2.47.95.3,1.9.63,2.79,1.07,3.17,1.56,4.06,3.37,2.66,6.63-1.94,4.47-3.97,8.94-6.44,13.12-3.93,6.64-10.01,9.07-17.53,8.01-6.21-.87-12.46-6.59-14.02-13.02-1-4.05-1.42-8.2-1.28-12.42Zm35.87,1.68c-.73-.4-1.3-.84-1.95-1.07-8.93-3.1-18.07-5.2-27.47-6.12-1.4-.14-2.13.42-2.27,1.94-.46,4.59-.48,9.17.4,13.74,1.01,5.29,4.18,8.7,8.85,10.84,3.81,1.74,10.85,1.49,14.76-3.57.96-1.24,1.93-2.51,2.65-3.91,1.64-3.19,3.15-6.45,4.66-9.7.28-.6.25-1.36.38-2.15Z"/><path class="cls-15" d="m135.56,428.04c-.13.79-.09,1.54-.38,2.15-1.51,3.26-3.02,6.51-4.66,9.7-.72,1.39-1.69,2.66-2.65,3.91-3.9,5.07-10.96,5.32-14.76,3.57-4.67-2.15-7.84-5.55-8.85-10.84-.88-4.57-.86-9.15-.4-13.74.16-1.52.88-2.08,2.27-1.94,9.4.92,18.54,3.03,27.47,6.12.65.23,1.22.66,1.95,1.07Z"/><path class="cls-6" d="m96.77,396.8c-.14,3.93-2.88,7.01-6.25,7.29-2.24.18-3.88-.76-4.93-2.71-1.42-2.61-.49-7.65,1.77-9.59,1.76-1.51,3.85-1.92,6.02-1.16,1.92.66,2.88,2.26,3.19,4.24.1.71.15,1.43.2,1.92Z"/><path class="cls-6" d="m152.23,419.26c.36-2.98,3.08-4.88,6.26-4.39,3.01.47,5.26,3.82,4.78,7.11-.35,2.43-3.77,4.87-6.42,4.59-2.66-.27-5.03-4.02-4.62-7.31Z"/></svg>