<?xml version="1.0" encoding="UTF-8"?><svg id="Layer_1" xmlns="http://www.w3.org/2000/svg" viewBox="0 0 64 72"><defs><style>.cls-1{fill:#fff;}.cls-2{fill:#ffd017;}</style></defs><path class="cls-2" d="m64,18.27v25.42c0,10.09-8.44,18.27-18.86,18.27h-1.91l-9.74,9.43c-.38.37-.91.6-1.49.6-.54,0-1.03-.19-1.41-.51l-.17-.16h0s-9.66-9.36-9.66-9.36h-1.91C8.44,61.97,0,53.78,0,43.69v-25.42C0,8.18,8.44,0,18.86,0h26.28c10.41,0,18.86,8.18,18.86,18.27Z"/><path class="cls-1" d="m31.83,49.66h0c-1.3,0-2.52-.58-3.35-1.58l-3.93-4.8c-.85-1.04-.7-2.57.34-3.42,1.04-.85,2.57-.7,3.42.34l3.53,4.3,5.49-6.7c.85-1.04,2.38-1.19,3.42-.34,1.04.85,1.19,2.38.34,3.42l-5.9,7.2c-.83,1.01-2.05,1.58-3.35,1.58Z"/><path class="cls-1" d="m45.05,34.62c-.62,0-1.24-.24-1.72-.71-.95-.95-.95-2.48,0-3.43,1.5-1.5,2.03-3.7,1.39-5.73-.41-1.28.3-2.64,1.57-3.05,1.28-.41,2.64.3,3.05,1.57,1.2,3.77.22,7.84-2.58,10.64-.47.47-1.1.71-1.72.71Z"/><path class="cls-1" d="m47.03,26.44c-1.03,0-1.98-.66-2.31-1.69-.28-.86-.74-1.62-1.39-2.27-1.07-1.07-2.49-1.66-4-1.66-.59,0-1.17.09-1.73.27-1.28.41-2.64-.29-3.05-1.57-.41-1.28.29-2.64,1.57-3.05,1.04-.33,2.12-.5,3.21-.5,2.8,0,5.44,1.09,7.43,3.08,1.18,1.18,2.07,2.64,2.58,4.23.41,1.28-.3,2.64-1.57,3.05-.25.08-.49.12-.74.12Z"/><path class="cls-1" d="m26.43,44.17c-.7,0-1.4-.3-1.88-.89l-7.75-9.46c-4.01-4.11-3.98-10.71.09-14.77,1.99-1.99,4.63-3.08,7.43-3.08s5.44,1.09,7.43,3.08l.08.08.08-.08c1.18-1.18,2.64-2.07,4.22-2.58,1.28-.41,2.64.29,3.05,1.57.41,1.28-.29,2.64-1.57,3.05-.86.28-1.62.74-2.27,1.39l-1.79,1.79c-.46.46-1.07.71-1.72.71s-1.26-.26-1.72-.71l-1.79-1.79c-1.07-1.07-2.49-1.66-4-1.66s-2.93.59-4,1.66c-2.21,2.21-2.21,5.79,0,8,.06.06.11.12.16.18l7.82,9.54c.85,1.04.7,2.57-.34,3.42-.45.37-1,.55-1.54.55Z"/></svg>