<?xml version="1.0" encoding="UTF-8"?><svg id="Layer_2" xmlns="http://www.w3.org/2000/svg" viewBox="0 0 237.75 417.43"><defs><style>.cls-1,.cls-2{fill:#51342a;}.cls-3{fill:#68153e;opacity:.22;}.cls-2,.cls-4,.cls-5,.cls-6,.cls-7,.cls-8,.cls-9,.cls-10{fill-rule:evenodd;}.cls-4{fill:#88706a;}.cls-5{fill:#ed6b9a;}.cls-6{fill:#fff;}.cls-7{fill:#ffdd57;}.cls-8{fill:#ffded4;}.cls-9{fill:#ffb8b3;}.cls-10{fill:#ffd152;}</style></defs><g id="Layer_1-2"><path class="cls-3" d="m95.3,417.43c45.4,0,82.2-8.52,82.2-19.03s-36.8-19.03-82.2-19.03-82.2,8.52-82.2,19.03,36.8,19.03,82.2,19.03Z"/><path class="cls-8" d="m91.96,166.85c.79.78,1.35,1.42,1.99,1.97.94.79,1.86,1.63,2.91,2.25,2.92,1.72,5.75,1.31,7.91-1.31,1.32-1.6,2.32-3.46,3.6-5.42.38.25.87.51,1.28.87,1.03.88,1.92,1.94,3.04,2.67,3.18,2.09,6.45,2.22,9.67.04.91-.61,1.77-1.3,2.79-2.05.64,1.19,1.14,2.29,1.79,3.31,1.06,1.65,2.03,3.4,3.36,4.82,2.91,3.12,5.84,3.41,9.59,1.26.42-.24.84-.5,1.44-.87.45.58.91,1.1,1.3,1.66.76,1.12,1.43,2.3,2.23,3.38,2.64,3.54,6.14,4.7,10.42,3.76,2.64-.58,3.66,0,4.19,2.59,2.21,10.82,2.09,21.53-1.83,31.99-1.65,4.4-4.02,8.44-6.83,12.2-4.91,6.56-10.61,12.26-17.71,16.5-7.02,4.2-14.66,6.46-22.71,7.04-10.47.76-20.93.41-31.2-2.08-11.49-2.79-21.22-8.38-28.23-18.17-.5-.7-1.07-1.38-1.42-2.15-1.79-3.91-3.53-7.85-5.24-11.79-.58-1.33-1.24-2.65-1.33-4.36,1.2-.09,2.26-.14,3.31-.25,3.32-.33,6.13-1.75,8.46-4.1,2.45-2.46,3.38-5.37,2.31-8.78-.18-.58-.36-1.16-.6-1.93.64-.41,1.22-.79,1.82-1.16,5.21-3.15,6.86-7.14,5.42-13.14-.11-.47-.18-.95-.31-1.65.6-.18,1.13-.44,1.67-.48,5.11-.37,8.82-3.29,9.75-9.34.09-.57.33-1.13.57-1.95.84.76,1.43,1.37,2.09,1.88.87.67,1.74,1.4,2.72,1.87,2.34,1.12,4.55.79,6.49-.97,1.57-1.43,2.69-3.19,3.65-5.06.49-.95,1-1.88,1.61-3.03Zm18.23,60.19c2.83-.02,6.11-1.09,9.03-2.82,2.12-1.25,3.62-2.98,4.18-5.35.56-2.38.95-4.8,1.31-7.22.17-1.16-.61-2.06-1.56-2.08-.94-.03-1.67.71-1.84,1.91-.08.61-.04,1.23-.13,1.83-.26,1.57-.49,3.15-.87,4.69-.37,1.49-1.32,2.6-2.65,3.38-2.03,1.2-4.14,2.12-6.52,2.34-6.06.55-10.07-2.78-10.19-9.18,0-.37.18-.8.04-1.08-.26-.5-.62-1.09-1.09-1.31-.74-.35-1.57.03-1.83.75-.32.88-.59,1.93-.44,2.82,1.31,7.59,5.3,11.22,12.57,11.32Zm-33.55-24.78c0,2.43.28,4.12,1.94,5.16,2.13,1.35,5.11.54,6.78-1.75,1.56-2.15,1.88-5.01-.89-6.67-.42-.25-.79-.59-1.22-.82-1.99-1.08-4.29-.61-5.5,1.3-.63,1-.89,2.22-1.1,2.78Zm53.97-8.39c.13.54.28,1.78.74,2.89.88,2.14,2.65,2.8,4.84,1.97,2.77-1.05,3.99-3.53,3.23-6.58-.63-2.53-2.44-3.83-4.86-3.46-2.55.38-3.92,1.95-3.95,5.18Z"/><path class="cls-4" d="m42.8,212.1c-3.65-2.69-7.3-5.4-10.98-8.07-.59-.43-1.26-.76-1.92-1.08-4.86-2.38-6.42-6.24-4.66-11.58.19-.15.36-.35.57-.44,3.57-1.46,3.9-1.94,3.78-5.72-.03-1.11-.14-2.21-.18-3.32-.03-.86-.08-1.73.03-2.58.37-2.86,1.47-5.13,4.54-6.09,2.09-.65,2.37-1.2,1.99-3.26-.53-2.8-.99-5.63-.54-8.44.69-4.3,2.51-7.91,7.01-9.6.46.22.88.47,1.34.63,1.46.53,2.44-.08,2.48-1.6.02-.72-.21-1.45-.25-2.18-.21-3.73.61-7.12,3.61-9.63,4.75-3.97,9.99-5.71,16.06-3.3.34.14.69.29,1.04.37.88.2,1.73-.2,2.13-1.05.26-.55.4-1.16.62-1.73.39-1.03.78-2.07,1.21-3.09,1.8-4.31,5.51-4.81,9.19-3.29,1.57.65,2.93,1.79,4.38,2.71,1.86,1.18,2.76.98,3.9-.93.57-.95,1.04-1.96,1.64-2.88,1.5-2.28,3.58-3.6,6.33-4.01,5.04-.75,9.2.93,12.73,4.41,1.71,1.69,2.62,1.89,3.78.18,1.12-1.64,2.4-2.7,4.37-3,2.71-.4,5.4-.61,7.99.51,2.13.92,3.08,2.75,3.39,4.94.15,1.09.09,2.21.22,3.31.15,1.3,1.08,1.97,2.33,1.67.95-.23,1.86-.7,2.81-.87,1.69-.29,3.39-.57,5.09-.58,1.89,0,2.9.97,3.27,2.87.16.83.16,1.71.13,2.56-.02.61-.24,1.2-.31,1.82-.22,1.91.41,2.7,2.4,2.9,1.1.11,2.23-.01,3.32.15,1.57.22,3.16.5,4.67.95,1.43.43,2.66,1.33,3.51,2.58,1.01,1.5,1.38,3.04.37,4.8-.98,1.69-.63,2.35,1.17,2.93.58.19,1.25.22,1.76.53.94.55,1.9,1.14,2.64,1.92,1.16,1.22,1.2,2.67.28,4.05-.54.81-1.25,1.52-1.79,2.34-.69,1.06-.51,2.18.49,2.94.78.59,1.7,1,2.49,1.57,3.1,2.25,3.78,7.64,1.29,10.57-.87,1.02-1.9,1.63-3.48,1.56-2.29-.09-4.62.2-6.89.58-2.71.45-4.89-.27-6.52-2.43-.96-1.27-1.76-2.66-2.57-4.04-.56-.95-.98-1.99-1.57-2.92-.83-1.31-1.88-1.39-3.09-.32-.83.73-1.56,1.58-2.46,2.22-1.46,1.05-3.03.99-4.44-.11-.76-.6-1.49-1.31-2.04-2.11-1.89-2.75-3.46-5.67-4.03-9.03-.1-.61-.08-1.27-.35-1.8-.25-.49-.74-1.03-1.23-1.17-.79-.22-1.41.31-1.71,1.07-.27.68-.45,1.41-.67,2.11-.43,1.33-1.26,2.38-2.34,3.25-2.17,1.73-4.51,1.83-6.82.27-1.66-1.12-2.87-2.68-3.94-4.35-.47-.72-.85-1.51-1.37-2.19-.6-.79-2.11-.65-2.52.24-.36.77-.59,1.61-.82,2.44-.65,2.28-1.63,4.39-3.14,6.22-1.25,1.52-2.61,1.82-4.2.69-1.29-.91-2.4-2.09-3.51-3.23-.69-.7-1.18-1.58-1.86-2.29-.96-1.02-2.39-.85-3.08.41-.53.96-.84,2.05-1.35,3.02-.97,1.84-1.86,3.76-3.08,5.43-1.59,2.19-3.36,2.37-5.3.54-1.32-1.25-2.45-2.76-3.41-4.31-1.13-1.84-1.6-3.88-.3-5.93.13-.2.28-.47.24-.68-.09-.45-.2-.96-.48-1.3-.43-.54-1.14-.6-1.66-.2-1.52,1.13-2.67,2.56-2.82,4.53-.09,1.22.02,2.46,0,3.69-.02,1.97.09,3.96-.13,5.9-.39,3.31-2.2,5.95-6.06,6.37-1.47.17-2.95.23-4.4.47-1.66.27-2.26,1.37-1.7,2.97.33.93.77,1.81,1.11,2.73,1.83,4.97-1.29,8.93-5.23,10.22-.81.27-1.69.31-2.51.56-1.21.37-1.57,1.58-.83,2.66.35.5.83.91,1.17,1.42,1.61,2.41,1.42,4.97-.55,7.07-1.65,1.76-3.72,2.8-6.08,3.26-1.08.21-2.17.36-3.69.62Z"/><path class="cls-7" d="m193.61,3.51c6.94-.01,13.36,1.85,19.31,5.37,4.92,2.92,9.1,6.72,12.82,11.03,5.87,6.8,8.6,14.79,8.92,23.71.33,9.13-1.93,17.53-6.68,25.32-2.9,4.76-6.26,9.14-10.17,13.09-3.63,3.67-7.1,7.51-11.37,10.51-3.03,2.13-6.19,3.98-9.55,5.55-4.17,1.96-8.08,1.55-11.92-.71-1.91-1.12-3.76-2.34-5.63-3.53-10.02-6.4-18.03-14.82-24.58-24.67-3.31-4.97-5.73-10.33-6.72-16.26-.84-5.05-.53-10.02.93-14.96,2.8-9.46,8.31-16.98,16.2-22.73,3.67-2.68,7.52-5.15,11.46-7.41,5.74-3.29,10.31-4.3,16.96-4.31Zm-37.18,46.59c.25,1.82.44,3.65.75,5.46.2,1.18.91,2.02,2.15,2.23,1.09.18,2-.29,2.54-1.16.97-1.56,1.89-3.16,2.69-4.82,1.12-2.33,2.01-4.77,3.17-7.07,2.23-4.42,3.91-9.03,5.18-13.8.54-2.01.91-4.08,1.17-6.15.23-1.83-1.36-4.11-3-4.64-1.67-.54-4.21.27-5.15,1.89-1.49,2.54-2.86,5.17-4.23,7.78-3.34,6.34-4.67,13.18-5.26,20.28Zm3.29,11.2c-.26,1.42-.57,2.61-.67,3.81-.2,2.37,1.41,4.74,3.55,5.44,2.08.67,4.35-.15,5.41-1.98,1.36-2.33,1.36-5.4-.15-6.88-.58-.56-1.42-1.02-2.22-1.17-1.93-.36-3.87-.32-5.92.77Z"/><path class="cls-5" d="m78.77,322.62c-3.24-5.14-5.79-7.91-14.61-6.49.21-.88.32-1.7.61-2.44,3.63-9.27,7.21-18.57,10.95-27.79,3.84-9.46,7.44-19,10.38-28.79.07-.23.23-.43.49-.91,1.44.13,3.01.19,4.56.44.68.11,1.42.47,1.93.94,1.26,1.16,2.52,2.36,3.58,3.7,1.68,2.12,3.16,4.39,4.8,6.54.74.97,1.56,1.92,2.51,2.68,1.18.95,2.71.69,3.56-.53.56-.8.96-1.71,1.4-2.59.44-.88.79-1.81,1.25-2.67.75-1.41,1.55-2.79,2.47-4.41.51.39,1.04.64,1.35,1.06,1.33,1.79,2.82,3.42,4.64,4.72.6.43,1.19.87,1.84,1.23,2.6,1.46,4,.94,5.11-1.91.36-.92.57-1.88.88-2.82.26-.81.56-1.6,1.02-2.88.49,1.01.88,1.59,1.06,2.22,6.01,21.66,8.43,43.64,5.87,66.01-1.1.38-1.38-.51-1.82-.98-1.73-1.82-3.89-2.5-6.32-2.55-3.71-.08-7.05.91-9.99,3.63-.65-1.01-1.22-1.92-1.81-2.81-1.33-2.02-3.22-2.93-5.63-2.88-2.53.06-4.84.78-6.96,2.14-.92.59-1.8,1.24-2.62,1.81-1.08-.08-1.15-.98-1.54-1.55-.81-1.23-1.48-2.56-2.39-3.72-1.91-2.43-4.46-3.41-7.52-2.84-2.81.52-5.48,1.41-7.65,3.41-.35.32-.77.57-1.38,1.02Z"/><path class="cls-4" d="m44.5,96.29c6.04,4.02,9.03,9.58,8.28,14.98-.95-.25-1.89-.57-2.84-.7-1.47-.21-2.74.33-3.43,1.65-.61,1.19-1.08,2.48-1.42,3.78-1.23,4.8-1.54,9.69-1.36,14.64.05,1.31.43,2.67-.19,4.11-.79-.15-1.51-.24-2.2-.42-3.84-1-7.74-1.35-11.69-1.31-.86,0-1.73.04-2.57.19-3.95.68-6.2,3.86-5.41,7.77.34,1.68.96,3.29,1.51,5.11-1.88,1.42-4,2.1-6.41,1.93-2.64-.19-5.07-.94-7.17-2.58-1.3-1.01-1.79-2.35-1.22-3.93.33-.91.83-1.76,1.29-2.63.86-1.63.49-2.41-1.39-2.84-.84-.19-1.7-.28-2.52-.54-1.64-.52-2.25-1.29-2.25-2.95,0-4.47,1.55-8.41,4.34-11.87.8-.99,1.85-1.58,3.09-1.87.59-.14,1.23-.25,1.74-.55.56-.34.78-1.01.46-1.61-.27-.52-.72-.98-1.16-1.39-1.57-1.48-1.9-3.34-1.79-5.39.11-2.06,1.09-3.46,2.85-4.41,2.42-1.3,4.99-1.12,7.57-.78.85.11,1.66.45,2.51.56,1.11.14,1.93-.55,1.99-1.67.07-1.35-.08-2.71.06-4.05.42-3.93,1.72-4.8,5.37-3.38,2.63,1.02,5.13,2.35,7.68,3.57.66.32,1.26.77,1.91,1.11,1.99,1.05,2.95.66,3.53-1.42.26-.94.51-1.88.84-3.09Z"/><path class="cls-10" d="m61.08,327.5c.05-.62.11-1.35.17-2.07.35-3.79,3-5.43,6.19-6.42,2.28-.71,5.58.8,7.02,3.02.6.93,1.02,1.98,1.64,2.88,1.22,1.77,2.64,1.98,4.4.69.69-.51,1.28-1.14,1.94-1.7,1.54-1.32,3.35-2,5.32-2.38,2.46-.47,4.38.2,5.67,2.39.81,1.38,1.59,2.77,2.32,4.19,1.59,3.1,2.65,3.39,5.26,1.12,1.99-1.73,4.06-3.18,6.74-3.55,2.35-.33,3.48.14,4.5,2.26.63,1.32.97,2.78,1.51,4.15.69,1.75,2.23,1.96,3.39.49.23-.29.4-.62.59-.93,2.09-3.34,5.33-4.13,8.95-4,2.16.08,3.68,1.33,4.71,3.12.79,1.37,1.44,2.83,2.11,4.18-.33,3.14-2.3,4.22-5.04,4.44-7.25.59-14.49.76-21.73-.15-5.86-.74-11.73-1.36-17.59-2.11-8.6-1.11-16.86-3.39-24.64-7.31-1.2-.6-2.51-1.02-3.45-2.3Z"/><path class="cls-10" d="m44.3,139.45c-.69,3.1-1.29,5.84-1.96,8.84-1.23.65-2.82,1.29-4.19,2.26-1.39.98-2.55,2.27-3.92,3.52-.71-.55-1.41-1.04-2.04-1.6-2.81-2.5-4.64-5.7-6.35-8.96-.5-.96-.77-2.08-.93-3.16-.35-2.37.74-3.76,3.14-4.07,1.09-.14,2.21-.08,3.32-.08,3.22,0,6.37.53,9.46,1.36,1.31.36,2.58.8,3.47,1.89Z"/><path class="cls-8" d="m32.91,317.82c-1.46.24-2-.61-2.45-1.5-.39-.76-.6-1.61-1.03-2.33-.42-.71-1.81-.65-2.21.1-.34.63-.54,1.35-.74,2.04-.4,1.43-.86,2.85-2.07,3.81-.31.25-.98.32-1.32.14-.34-.17-.73-.8-.66-1.14.24-1.19.63-2.35,1.06-3.49.26-.68.85-1.25,1.01-1.94.12-.5-.09-1.2-.39-1.64-.37-.53-1.08-.62-1.65-.24-.71.47-1.31,1.11-2.02,1.58-1.33.87-2.68,1.7-4.06,2.48-.36.21-.87.16-1.66.27.77-2,2.01-3.14,3.28-4.24.77-.67,1.52-1.32.98-2.47-.43-.91-1.32-1.02-2.89-.38-.68.28-1.33.66-2.03.84-.53.14-1.13.03-1.72.03.1-1.45,1.02-1.84,1.92-2.25,1.09-.49,2.56-.77,2.33-2.38-.19-1.37-1.58-1.33-2.6-1.66-.69-.22-1.37-.46-2.14-.72,0-1.66,1.11-2.46,2.14-3.27,1.2-.94,2.58-1.35,4.13-1.2,3.37.33,6.05,1.99,8.15,4.51.71.85,1.44,1.57,2.26,2.3,2.71,2.4,4.86,5.18,5.09,9.03.07,1.24.04,2.43-.68,3.71Z"/><path class="cls-10" d="m47.87,136.05c-1.69-5.7-.85-17.08,1.55-22.07,2.21.07,3.63,1.73,5.23,2.92,2.21,1.65,3.77,3.85,4.5,6.54.7,2.58,1.42,5.19.5,8.01-4.28.35-8.04,2.03-11.77,4.6Z"/><path class="cls-8" d="m184.33,276c.32-1.61.57-2.56.68-3.52.12-1.04-.87-1.87-1.92-1.64-.71.16-1.39.52-2.11.61-.56.07-1.15-.16-1.68-.25-.31-1.75.6-2.76,1.6-3.68.44-.41,1.04-.63,1.56-.96,1.29-.82,1.65-1.44,1.3-2.29-.41-1.01-1.25-1.04-2.16-.92-.46.06-.93.08-1.82.15.38-.69.49-1.16.79-1.4.67-.53,1.53-.86,2.11-1.46.36-.37.5-1.11.43-1.65-.04-.35-.59-.79-.99-.91-1.17-.34-2.42-.44-3.56-.82-1.23-.42-1.6-1.52-1.04-2.69.26-.55.61-1.08,1.01-1.53,1.14-1.27,2.5-1.39,3.92-.38.5.35.91.83,1.41,1.17.93.62,1.97.16,2.19-1,.11-.58.02-1.19.02-2.39.74.78,1.23,1.09,1.42,1.52.88,2.03,1.77,4.06,2.47,6.16.42,1.26.7,2.64.7,3.96,0,2.46-.2,4.92-.43,7.36-.25,2.62-1.78,4.54-3.77,6.09-.39.31-1.08.24-2.15.45Z"/><path class="cls-8" d="m42.24,226.38c-3.37.74-6.63.03-9.68-1.83-2.79-1.7-4.31-4.31-4.95-7.47-.53-2.65-.06-5.97,1.26-9.01,1.06-.5,2.08-.39,3.07.31.91.64,1.78,1.33,2.74,1.87,2.88,1.64,4.99,3.71,5.54,7.26.29,1.89,1.4,3.66,2.17,5.47.45,1.07.68,2.1-.16,3.4Z"/><path class="cls-8" d="m162.89,185.55c.29-.5.69-1,.86-1.57.3-.99.63-1.84,1.78-2.09,1.24-.27,2.44-.25,3.54.45,1.17.75,2.03,1.74,2.4,3.12.49,1.81.56,3.61.17,5.45-.81,3.8-3.77,8.08-7.31,10.31-.46-1.07-.2-2.17-.29-3.2-.08-.97-.07-1.96-.12-2.94-.06-1.1-.12-2.2-.22-3.3-.1-.97-.27-1.94-.4-2.91-.15-1.09-.28-2.19-.42-3.33Z"/><path class="cls-10" d="m136.39,401.79c-.84-1.12-1.57-2.09-2.25-2.99.24-2.27,1.53-3.64,3.36-4.63,2.62-1.41,5.39-2.42,8.37-2.69,1.46-.13,3.11-.3,3.85,1.39.66,1.49-.45,2.6-1.31,3.59-3.18,3.63-7.25,5.27-12.02,5.33Z"/><path class="cls-10" d="m49.06,369.2c.85.68,1.3.9,1.54,1.26,1.71,2.56,2.98,5.35,3.73,8.32.63,2.52.64,5.1-.49,7.53-.35.76-.83,1.5-1.38,2.14-.78.91-2.19.77-2.8-.26-.37-.62-.67-1.31-.86-2.01-.28-1.06-.54-2.15-.62-3.23-.32-4.38.11-8.72.87-13.74Z"/><path class="cls-7" d="m187.64,102.6c2.36,3.99,2.4,7.88,2.99,11.55-.5.27-.72.51-.88.47-1.82-.44-3.56-1.06-5.52-1.07-1.52-.01-3-.93-4.33-2.11.64-1.99,2.49-2.93,3.7-4.39,1.16-1.4,2.44-2.7,4.05-4.45Z"/><path class="cls-8" d="m176.68,274.7c-.76-.61-1.52-1.22-2.27-1.84-2.44-2.02-3.63-4.58-3.35-7.77.11-1.22.18-2.46.44-3.65.44-2.02,1.02-4.01,1.6-6.3,1.39.79.76,2.18,1.43,2.93.73.82,1.45,1.65,2.39,2.73-.23.59-.91,1.57-.92,2.56-.01,1.01.63,2.03,1.08,3.3-.18.4-.46,1.07-.75,1.73-.74,1.67-.8,3.3.19,4.93.21.35.1.9.14,1.35v.02Z"/><path class="cls-10" d="m97.94,257.6c.88-.28,1.21-.47,1.54-.47,3.43-.02,6.85-.01,10.28-.01-.18,2.25-1.79,5.71-4.68,9.96-2.6-2.86-4.42-6.21-7.14-9.48Z"/><path class="cls-10" d="m114.67,256.46c3.8-.92,6.86-1.66,10.2-2.47.01.68.13,1.25.02,1.77-.6,2.86-1.24,5.71-2.49,8.62-3.72-1.46-5.51-4.52-7.73-7.91Z"/><path class="cls-8" d="m182.99,248.37q-4.84.54-8.18,3.67c-.76-.36-.48-1.01-.26-1.46.77-1.51,1.51-3.07,2.52-4.42.62-.83,1.64-1.43,2.59-1.91.43-.22,1.28-.12,1.69.18,1.22.89,2.14,2.02,1.63,3.94Z"/><path class="cls-8" d="m176.67,274.68c.43-.05.87-.1,1.3-.15,0,.06.01.11.02.17h-1.31s-.01-.02-.01-.02Z"/><path class="cls-6" d="m160.63,52.34c-.9-.44-.82-1.1-.81-1.69.2-9.22,3.18-17.58,7.88-25.41.13-.21.26-.42.4-.62.41-.64.89-1.24,1.75-1.04.95.22.94,1.07.83,1.78-.26,1.7-.47,3.42-.94,5.07-1.26,4.37-2.75,8.66-4.82,12.73-1.17,2.3-2.12,4.71-3.18,7.06-.33.72-.73,1.42-1.1,2.13Z"/><path class="cls-6" d="m165.62,65.03c-.05,1.52-.71,2.48-1.64,2.4-.96-.08-1.57-.88-1.59-2.07-.02-1.13.61-1.68,1.88-1.65.86.02,1.38.53,1.35,1.32Z"/><path class="cls-9" d="m78.06,216.98c-.1-.13-.23-.25-.34-.38h0c-2.62-4.74-8.96-5.12-13.26-2.72-5.79,3.23-6.38,11.37-2.46,16.22,3.95,4.88,11.4,4.42,15.73.38,3.99-3.72,3.44-9.55.34-13.5Z"/><path class="cls-9" d="m155.9,214.97c1.75-2.2,2.74-4.87,2.11-7.83-.65-3.07-3.35-5.16-6.13-6.19-1.91-.71-4.12-.36-5.92.44-.62.28-1.16.76-1.6,1.29-1.59.83-2.94,2.12-3.74,3.83-1.93,4.13-1.51,8.95,2.53,11.59,2.57,1.68,6.47,1.53,9.19.03,1.6-.63,2.77-1.76,3.56-3.16Z"/><path class="cls-2" d="m192.31,104.72c.45,3.03.91,6.06,1.36,9.1.11.73.23,1.46.26,2.2.08,1.98-.76,2.69-2.72,2.32-1.31-.25-2.61-.54-3.89-.81-1.41,1.33-1.67,2.96-2.01,4.48-1.88,8.46-2.56,17.02-1.92,25.68.61,8.24,2.21,16.34,3.57,24.47,1.82,10.93,3.35,21.88,3.54,33,.13,7.78-.25,15.49-1.42,23.18-.71,4.62-1.11,9.29-1.68,13.93-.16,1.33-.41,2.65-.61,3.9,2.69,2.35,2.76,2.37,4.1,5.66,1.1,2.73,2.46,5.39,2.76,8.39.11,1.1.21,2.21.15,3.3-.1,1.97-.36,3.92-.48,5.89-.23,3.75-2.32,6.41-5.04,8.66-1.51,1.25-3.37,1.35-5.39,1.04-.26.77-.54,1.43-.7,2.11-2,8.91-3.35,17.9-3.73,27.03-.08,1.84-.19,3.69-.33,5.53-.65,8.47.52,16.71,3.25,24.72,1.03,3.02,2.3,5.96,3.44,8.95.22.56.53,1.19.46,1.74-.07.51-.49,1.2-.94,1.39-.44.18-1.18-.04-1.65-.32-.36-.22-.54-.79-.74-1.23-4.4-10.14-7.44-20.54-7.14-31.78.32-12.22,1.46-24.32,4.08-36.27.13-.59.2-1.2.27-1.81.01-.11-.07-.23-.19-.56-5.03-1.26-8.95-4.16-11.09-9.43-.69.53-1.29.9-1.78,1.39-1.73,1.75-3.39,3.58-5.13,5.31-4.13,4.12-8.54,3.98-12.71,1.18-2.23-1.5-4.31-3.31-6.13-5.28-2.93-3.15-5.58-6.56-8.37-9.85-.62-.73-1.32-1.38-2.57-2.68.47,2.22.76,3.62,1.07,5.02,1.56,7.21,3.21,14.41,4.66,21.65.53,2.64.62,5.38.85,8.07,1.08,12.68.79,25.34-.61,37.98-.18,1.59-.47,3.17-.86,4.72-.82,3.2-2.95,5.04-6.19,5.54-1.93.3-3.88.48-5.91.73.03.49-.04.86.08,1.15,3.52,7.96,5.24,16.38,6.24,24.96.79,6.72,1.45,13.46,2.18,20.19.1.95.28,1.9.4,2.7.87.57,1.36.08,1.85-.23,2.64-1.66,5.53-2.73,8.56-3.3,1.55-.29,3.21-.43,4.76-.2,4.05.6,5.87,4.46,3.91,8.06-1.26,2.32-3.14,4.09-5.33,5.53-2.63,1.72-5.54,2.68-8.63,3.05-3.65.44-5.17-.88-6.57-4.39-1.95-4.9-2.04-10.05-2.56-15.14-.94-9.18-1.79-18.38-3.74-27.42-1.09-5.07-2.79-9.92-5.16-14.81-12.15-.19-24.18-1.98-36.3-3.53-1.08.8-1.08,2.12-1.42,3.25-1.53,5.01-3.81,9.6-7.29,13.55-5.41,6.17-12.08,10-20.31,10.94-.57.07-1.13.2-2,.36.5,1,.89,1.74,1.22,2.49.98,2.25,2.1,4.46,2.88,6.78,1.2,3.62,1.11,7.28-.49,10.81-.45.99-1.08,1.95-1.8,2.77-2.44,2.72-6.2,2.33-8.06-.85-1.14-1.94-1.76-4.1-1.77-6.34-.02-3.69.09-7.38.25-11.07.07-1.59.39-3.17.66-4.75.21-1.24.7-2.34,1.67-3.21.7-.64,1.46-.95,2.35-.61,3.35,1.27,6.62.34,9.74-.67,8.85-2.84,14.9-8.84,18.49-17.35.9-2.13,1.73-4.3,1.96-6.81-1.07-.35-1.98-.7-2.91-.94-5.28-1.33-10.25-3.46-15.13-5.83-.55-.27-1.1-.56-1.62-.89-2.37-1.47-3.1-3.14-2.55-5.91.89-4.48,2.2-8.84,3.87-13.08,4.7-11.9,9.49-23.77,14.11-35.7,2.31-5.95,4.33-12.01,6.46-17.96-.85-.65-1.03-.03-1.27.31-3.6,5.19-7.95,9.71-12.49,14.06-9.09,8.71-18.8,16.65-29.28,23.64-2.76,1.84-5.66,3.46-8.67,5.28.11.94,1.06,1.43,1.58,2.18.49.71,1.04,1.37,1.6,2.03,2.36,2.8,3,6.12,2.96,9.66,0,.49-.07.99-.17,1.47-.69,3.42-2.91,4.67-6.26,3.51-.56-.19-1.08-.47-1.71-.75-1.69,1.88-3.07,4.18-6.05,3.55-2.11-.44-2.98-1.57-3.81-4.83-.75-.47-1.38.06-2.05.25-.59.17-1.19.34-1.79.4-3.09.33-4.37-1.1-3.73-4.14.1-.47.31-.92.49-1.42-.24-.3-.41-.65-.69-.84-2.59-1.8-2.89-2.7-1.73-5.47.14-.34.38-.63.53-.97.09-.22.1-.47.16-.78-.34-.3-.7-.62-1.07-.93-1.13-.93-1.17-2.11-.72-3.35,1.49-4.02,5.93-6.82,10.2-6.47,2.38.19,4.56.99,6.55,2.3.92.61,1.79,1.28,2.69,1.92,2.98-.78,5.49-2.39,7.93-4,14.54-9.61,27.93-20.6,39.47-33.73,1.38-1.57,2.53-3.33,3.76-5.02.27-.37.4-.84.62-1.33-3.57-1.3-7.03-2.5-10.43-3.82-3.45-1.35-6.68-3.15-9.72-5.26-3.06-2.11-5.79-4.61-8.13-7.48-2.33-2.85-4.43-5.89-6.84-9.13-.48.06-1.3.19-2.13.26-6.02.54-11.23-1.07-15.07-5.95-1.87-2.38-2.81-5.15-2.89-8.22-.09-3.61.46-7.08,2.22-10.42-.66-.67-1.27-1.26-1.85-1.88-2.8-3-3.71-6.58-3.23-10.58.3-2.5,1.31-4.47,3.95-5.23.34-.1.62-.39,1.14-.73-.11-1.6-.17-3.31-.37-5.01-.27-2.41.31-4.64,1.21-6.82.95-2.29,2.77-3.71,5.17-4.75-.17-2.26-.47-4.44-.46-6.61.01-2.08.35-4.15.54-6.11-2.54-2.72-4.96-5.31-7.52-8.05-.71.2-1.55.34-2.32.66-4.54,1.89-8.94,1.29-13.17-.85-3.76-1.9-4.87-4.18-4.36-8.42.06-.48.16-.96.28-1.62-.73-.41-1.45-.81-2.17-1.23-2.23-1.31-3.34-3.27-3.11-5.84.55-5.93,2.28-11.34,7.08-15.31.27-.23.47-.54.7-.8-.33-1.35-.79-2.63-.95-3.95-.79-6.57,3.06-9.85,8.15-10.64,1.21-.19,2.46-.08,3.69-.1.84-.01,1.68,0,2.67,0,.18-.89.34-1.58.47-2.29.11-.6.12-1.23.26-1.82,1-4.04,3.27-5.54,7.34-4.71,1.31.27,2.6.74,3.84,1.28,2.26.98,4.46,2.08,6.92,3.24.39-.68.78-1.38,1.19-2.07,1.24-2.11,2.82-2.59,4.95-1.44.64.35,1.28.78,1.77,1.31,1.73,1.92,3.5,3.81,5.05,5.86,1.9,2.5,2.94,5.37,2.94,8.58,0,1.59.15,3.18.23,4.63,4.94,5.33,6.15,6.65,7.16,17.6.67.25,1.44.53,2.13.79.3-.25.56-.36.66-.56.55-1.1,1-2.25,1.59-3.33,2.62-4.86,7.35-6.66,12.48-4.64,1.69.66,3.24,1.66,5.01,2.59.56-.8,1.12-1.59,1.66-2.39,2.31-3.39,5.59-5.02,9.62-5.43,3.85-.39,7.31.64,10.56,2.57,1.05.62,2.07,1.28,3.21,1.98,3.06-2.51,6.6-3.22,10.4-3.13,6.11.15,9.26,2.69,10.59,8.66.08.35.24.67.45,1.23.7-.09,1.39-.2,2.08-.26,1.59-.13,3.19-.33,4.78-.33,4.11,0,6.35,3.23,6.53,6.22.08,1.21.15,2.42.23,3.8,1.33.16,2.57.18,3.75.46,1.79.42,3.62.81,5.27,1.58,3.23,1.52,5.14,4.13,5.46,7.77.06.72.08,1.45.12,2.07,6.28,4.32,7.01,6.72,3.76,12.71,2.14,1.56,4.17,3.35,4.82,6.14.62,2.69.39,5.36-.42,8.14.87.54,1.7,1.02,2.5,1.54,2.45,1.57,3.73,3.85,4.06,6.71.46,3.94-.35,7.58-2.52,10.92-1.96,3.02-4.3,5.71-7.16,7.9-1.17.89-1.78,1.91-1.97,3.36-1.37,10.07-5.94,18.67-12.32,26.41-5.71,6.92-12.37,12.67-20.52,16.58-.32.15-.57.44-1.07.83.42.46.75.92,1.16,1.28,3.41,3.06,6.12,6.74,9.04,10.23,1.9,2.26,3.76,4.58,5.85,6.65,1.64,1.63,3.48,3.16,5.46,4.34,2.94,1.76,5.28,1.33,7.43-.76,2.91-2.83,5.71-5.77,8.46-8.76.62-.67.91-1.72,1.16-2.64.97-3.69,1.76-7.42,2.83-11.08.59-1.99,1.44-3.94,2.48-5.73,2.72-4.67,5.59-5.75,10.88-4.28.79-1.95.76-4.05,1.04-6.08.5-3.53.97-7.07,1.34-10.62.59-5.75,1.14-11.51,1.04-17.31-.22-12.59-1.91-25.02-4.06-37.4-1.18-6.79-2.28-13.6-3.03-20.45-.83-7.61-.46-15.26.76-22.83.52-3.26,1.34-6.47,2.07-9.9-.81-.4-1.68-.79-2.51-1.25-1.07-.59-2.2-1.14-3.15-1.89-1.8-1.44-1.94-3-.52-4.8.69-.87,1.52-1.61,2.27-2.43,1.66-1.8,3.32-3.6,5.12-5.55-1.02-.69-1.83-1.22-2.62-1.78-4.73-3.33-9.77-6.3-14.09-10.09-6.21-5.44-11.61-11.71-16.06-18.73-2.25-3.55-4.16-7.26-5.46-11.27-2.6-7.98-2.6-15.9.13-23.91,3.25-9.56,9.12-17.1,17.19-22.97,3.48-2.53,7.09-4.91,10.84-7.02,12.9-7.26,25.94-6.74,38.78.06,7.87,4.16,14.09,10.3,18.86,17.83,3.63,5.74,5.27,12.13,5.7,18.88.68,10.69-1.85,20.52-7.72,29.46-1.89,2.88-3.85,5.74-6.07,8.35-4.31,5.06-8.88,9.89-14.14,14.02-3.9,3.05-8.03,5.7-12.68,7.46-1.88.71-3.52,1.72-4.72,3.41Zm-15.79,169.88h1.3c0-.06-.01-.11-.02-.17-.44.05-.87.1-1.3.15-.04-.46.07-1-.14-1.35-.98-1.63-.92-3.26-.19-4.93.29-.66.58-1.32.75-1.73-.45-1.27-1.09-2.29-1.08-3.3.01-.99.69-1.97.92-2.56-.95-1.08-1.67-1.91-2.39-2.73-.67-.75-.04-2.15-1.43-2.93-.59,2.28-1.17,4.27-1.6,6.3-.26,1.19-.34,2.43-.44,3.65-.28,3.19.91,5.75,3.35,7.77.75.62,1.51,1.23,2.27,1.84Zm-84.73-107.86c-.61,1.15-1.12,2.08-1.61,3.03-.96,1.87-2.08,3.64-3.65,5.06-1.94,1.76-4.15,2.09-6.49.97-.98-.47-1.85-1.2-2.72-1.87-.66-.51-1.25-1.12-2.09-1.88-.25.83-.49,1.38-.57,1.95-.93,6.05-4.65,8.97-9.75,9.34-.54.04-1.07.3-1.67.48.13.7.2,1.18.31,1.65,1.44,6-.2,9.99-5.42,13.14-.6.36-1.19.75-1.82,1.16.24.78.42,1.36.6,1.93,1.06,3.41.13,6.32-2.31,8.78-2.33,2.35-5.15,3.76-8.46,4.1-1.05.11-2.12.16-3.31.25.09,1.71.75,3.04,1.33,4.36,1.72,3.94,3.46,7.88,5.24,11.79.35.77.92,1.45,1.42,2.15,7.01,9.79,16.74,15.38,28.23,18.17,10.27,2.49,20.73,2.84,31.2,2.08,8.05-.58,15.69-2.84,22.71-7.04,7.09-4.25,12.8-9.94,17.71-16.5,2.82-3.76,5.19-7.8,6.83-12.2,3.92-10.46,4.05-21.17,1.83-31.99-.53-2.59-1.54-3.17-4.19-2.59-4.28.94-7.79-.22-10.42-3.76-.81-1.08-1.47-2.27-2.23-3.38-.39-.57-.84-1.09-1.3-1.66-.61.37-1.02.63-1.44.87-3.75,2.15-6.68,1.86-9.59-1.26-1.32-1.42-2.3-3.17-3.36-4.82-.65-1.01-1.16-2.12-1.79-3.31-1.02.75-1.88,1.44-2.79,2.05-3.23,2.18-6.5,2.05-9.67-.04-1.11-.74-2.01-1.79-3.04-2.67-.41-.35-.9-.61-1.28-.87-1.28,1.96-2.28,3.82-3.6,5.42-2.16,2.62-5,3.03-7.91,1.31-1.05-.62-1.97-1.46-2.91-2.25-.64-.54-1.21-1.18-1.99-1.97Zm-49.15,45.25c1.52-.25,2.61-.41,3.69-.62,2.36-.46,4.42-1.49,6.08-3.26,1.97-2.1,2.16-4.67.55-7.07-.34-.51-.83-.92-1.17-1.42-.74-1.08-.38-2.29.83-2.66.82-.25,1.7-.3,2.51-.56,3.94-1.29,7.06-5.25,5.23-10.22-.34-.92-.78-1.8-1.11-2.73-.57-1.61.04-2.7,1.7-2.97,1.46-.23,2.94-.3,4.4-.47,3.86-.43,5.67-3.06,6.06-6.37.23-1.94.12-3.93.13-5.9.01-1.23-.1-2.47,0-3.69.15-1.97,1.3-3.4,2.82-4.53.53-.4,1.23-.34,1.66.2.28.35.39.85.48,1.3.04.2-.11.48-.24.68-1.3,2.05-.82,4.08.3,5.93.95,1.55,2.08,3.06,3.41,4.31,1.94,1.83,3.71,1.65,5.3-.54,1.22-1.67,2.11-3.59,3.08-5.43.51-.97.82-2.06,1.35-3.02.69-1.25,2.12-1.43,3.08-.41.67.71,1.17,1.59,1.86,2.29,1.12,1.14,2.22,2.32,3.51,3.23,1.59,1.12,2.95.83,4.2-.69,1.51-1.83,2.49-3.94,3.14-6.22.24-.82.46-1.66.82-2.44.41-.88,1.92-1.02,2.52-.24.52.68.9,1.47,1.37,2.19,1.08,1.66,2.28,3.22,3.94,4.35,2.31,1.56,4.65,1.46,6.82-.27,1.08-.86,1.91-1.91,2.34-3.25.23-.7.4-1.42.67-2.11.3-.76.92-1.29,1.71-1.07.49.14.98.68,1.23,1.17.27.52.25,1.19.35,1.8.57,3.36,2.14,6.27,4.03,9.03.55.8,1.28,1.51,2.04,2.11,1.41,1.11,2.98,1.16,4.44.11.89-.64,1.63-1.48,2.46-2.22,1.21-1.07,2.25-.98,3.09.32.59.93,1,1.97,1.57,2.92.81,1.37,1.61,2.77,2.57,4.04,1.63,2.16,3.82,2.88,6.52,2.43,2.27-.38,4.6-.67,6.89-.58,1.58.06,2.61-.54,3.48-1.56,2.49-2.93,1.81-8.33-1.29-10.57-.79-.58-1.71-.98-2.49-1.57-1-.76-1.19-1.88-.49-2.94.54-.82,1.24-1.53,1.79-2.34.92-1.38.88-2.83-.28-4.05-.74-.78-1.7-1.37-2.64-1.92-.51-.3-1.18-.34-1.76-.53-1.8-.58-2.14-1.24-1.17-2.93,1.02-1.76.64-3.3-.37-4.8-.85-1.26-2.08-2.16-3.51-2.58-1.52-.45-3.1-.73-4.67-.95-1.09-.16-2.22-.04-3.32-.15-1.99-.19-2.62-.98-2.4-2.9.07-.61.29-1.21.31-1.82.03-.86.03-1.73-.13-2.56-.37-1.9-1.38-2.88-3.27-2.87-1.7,0-3.41.29-5.09.58-.96.16-1.86.64-2.81.87-1.26.3-2.19-.37-2.33-1.67-.12-1.1-.06-2.22-.22-3.31-.3-2.19-1.26-4.02-3.39-4.94-2.59-1.12-5.28-.91-7.99-.51-1.97.29-3.26,1.36-4.37,3-1.16,1.7-2.08,1.5-3.78-.18-3.53-3.48-7.68-5.16-12.73-4.41-2.75.41-4.83,1.73-6.33,4.01-.61.92-1.08,1.93-1.64,2.88-1.14,1.91-2.03,2.11-3.9.93-1.45-.92-2.81-2.06-4.38-2.71-3.68-1.52-7.39-1.01-9.19,3.29-.42,1.02-.82,2.05-1.21,3.09-.22.57-.36,1.18-.62,1.73-.4.85-1.25,1.25-2.13,1.05-.36-.08-.7-.23-1.04-.37-6.07-2.41-11.32-.67-16.06,3.3-3,2.51-3.82,5.9-3.61,9.63.04.73.27,1.46.25,2.18-.04,1.52-1.02,2.13-2.48,1.6-.45-.16-.88-.41-1.34-.63-4.49,1.69-6.32,5.3-7.01,9.6-.45,2.81.01,5.63.54,8.44.39,2.06.11,2.61-1.99,3.26-3.07.96-4.16,3.23-4.54,6.09-.11.85-.06,1.72-.03,2.58.04,1.11.15,2.21.18,3.32.11,3.78-.22,4.26-3.78,5.72-.21.09-.38.29-.57.44-1.76,5.34-.2,9.2,4.66,11.58.66.32,1.33.65,1.92,1.08,3.67,2.67,7.32,5.38,10.98,8.07ZM193.44,3.4c-6.65.02-11.22,1.03-16.96,4.31-3.94,2.26-7.79,4.73-11.46,7.41-7.89,5.76-13.4,13.27-16.2,22.73-1.47,4.95-1.77,9.91-.93,14.96.98,5.93,3.41,11.29,6.72,16.26,6.55,9.85,14.56,18.27,24.58,24.67,1.87,1.19,3.72,2.41,5.63,3.53,3.84,2.26,7.74,2.67,11.92.71,3.36-1.57,6.52-3.42,9.55-5.55,4.27-3,7.73-6.84,11.37-10.51,3.91-3.95,7.27-8.33,10.17-13.09,4.75-7.79,7.01-16.19,6.68-25.32-.32-8.92-3.05-16.9-8.92-23.71-3.72-4.31-7.9-8.11-12.82-11.03-5.95-3.52-12.38-5.39-19.31-5.37Zm-114.84,319.11c.61-.45,1.03-.7,1.38-1.02,2.17-2,4.83-2.89,7.65-3.41,3.06-.56,5.61.41,7.52,2.84.91,1.15,1.58,2.49,2.39,3.72.39.58.45,1.47,1.54,1.55.82-.57,1.7-1.22,2.62-1.81,2.12-1.36,4.43-2.08,6.96-2.14,2.41-.05,4.3.86,5.63,2.88.59.89,1.16,1.8,1.81,2.81,2.94-2.72,6.29-3.7,9.99-3.63,2.43.05,4.59.73,6.32,2.55.44.47.72,1.36,1.82.98,2.56-22.38.14-44.35-5.87-66.01-.18-.63-.57-1.21-1.06-2.22-.45,1.27-.75,2.07-1.02,2.88-.31.93-.52,1.9-.88,2.82-1.11,2.86-2.51,3.37-5.11,1.91-.64-.36-1.24-.8-1.84-1.23-1.82-1.3-3.3-2.93-4.64-4.72-.31-.42-.84-.67-1.35-1.06-.91,1.62-1.72,3-2.47,4.41-.46.87-.81,1.79-1.25,2.67-.44.88-.84,1.79-1.4,2.59-.85,1.22-2.38,1.48-3.56.53-.94-.76-1.77-1.71-2.51-2.68-1.64-2.15-3.12-4.42-4.8-6.54-1.06-1.34-2.31-2.54-3.58-3.7-.51-.47-1.25-.83-1.93-.94-1.54-.25-3.12-.31-4.56-.44-.26.47-.42.68-.49.91-2.94,9.78-6.53,19.33-10.38,28.79-3.75,9.23-7.33,18.52-10.95,27.79-.29.74-.4,1.56-.61,2.44,8.82-1.42,11.37,1.35,14.61,6.49ZM44.33,96.18c-.33,1.22-.58,2.16-.84,3.09-.58,2.08-1.54,2.47-3.53,1.42-.65-.35-1.25-.79-1.91-1.11-2.55-1.22-5.05-2.55-7.68-3.57-3.65-1.43-4.95-.56-5.37,3.38-.14,1.34,0,2.7-.06,4.05-.06,1.12-.87,1.82-1.99,1.67-.85-.11-1.66-.45-2.51-.56-2.58-.33-5.15-.52-7.57.78-1.76.95-2.74,2.36-2.85,4.41-.11,2.06.22,3.91,1.79,5.39.44.41.88.87,1.16,1.39.32.6.1,1.27-.46,1.61-.51.31-1.14.42-1.74.55-1.24.29-2.29.88-3.09,1.87-2.79,3.47-4.34,7.4-4.34,11.87,0,1.66.61,2.43,2.25,2.95.81.26,1.68.35,2.52.54,1.88.43,2.25,1.2,1.39,2.84-.45.86-.96,1.71-1.29,2.63-.57,1.57-.08,2.91,1.22,3.93,2.1,1.64,4.53,2.39,7.17,2.58,2.41.17,4.53-.5,6.41-1.93-.55-1.82-1.18-3.44-1.51-5.11-.79-3.91,1.47-7.09,5.41-7.77.84-.15,1.71-.18,2.57-.19,3.95-.05,7.86.31,11.69,1.31.69.18,1.41.27,2.2.42.62-1.44.23-2.8.19-4.11-.18-4.94.13-9.83,1.36-14.64.33-1.3.8-2.59,1.42-3.78.69-1.32,1.96-1.85,3.43-1.65.96.13,1.89.46,2.84.7.75-5.4-2.24-10.95-8.28-14.98Zm16.58,231.2c.93,1.28,2.25,1.7,3.45,2.3,7.77,3.92,16.04,6.2,24.64,7.31,5.86.75,11.73,1.37,17.59,2.11,7.24.92,14.48.74,21.73.15,2.75-.22,4.72-1.3,5.04-4.44-.67-1.35-1.32-2.8-2.11-4.18-1.04-1.79-2.55-3.04-4.71-3.12-3.62-.13-6.86.66-8.95,4-.2.31-.37.65-.59.93-1.16,1.47-2.71,1.26-3.39-.49-.54-1.37-.87-2.83-1.51-4.15-1.01-2.12-2.15-2.59-4.5-2.26-2.68.38-4.76,1.83-6.74,3.55-2.61,2.27-3.67,1.98-5.26-1.12-.73-1.42-1.51-2.82-2.32-4.19-1.29-2.19-3.21-2.86-5.67-2.39-1.97.38-3.78,1.06-5.32,2.38-.65.56-1.25,1.2-1.94,1.7-1.76,1.29-3.19,1.08-4.4-.69-.62-.91-1.04-1.96-1.64-2.88-1.45-2.22-4.74-3.72-7.02-3.02-3.18.98-5.84,2.63-6.19,6.42-.07.72-.12,1.45-.17,2.07Zm-16.78-188.05c-.89-1.09-2.16-1.53-3.47-1.89-3.1-.84-6.24-1.36-9.46-1.36-1.11,0-2.22-.06-3.32.08-2.4.31-3.48,1.7-3.14,4.07.16,1.08.43,2.21.93,3.16,1.71,3.26,3.54,6.47,6.35,8.96.63.56,1.32,1.04,2.04,1.6,1.36-1.25,2.53-2.54,3.92-3.52,1.37-.96,2.96-1.61,4.19-2.26.67-3.01,1.27-5.75,1.96-8.84Zm-11.4,178.37c.72-1.28.76-2.47.68-3.71-.23-3.85-2.38-6.63-5.09-9.03-.82-.73-1.55-1.45-2.26-2.3-2.1-2.53-4.78-4.19-8.15-4.51-1.55-.15-2.93.26-4.13,1.2-1.03.81-2.14,1.61-2.14,3.27.77.26,1.45.49,2.14.72,1.02.33,2.4.29,2.6,1.66.23,1.62-1.24,1.89-2.33,2.38-.9.41-1.82.8-1.92,2.25.6,0,1.19.11,1.72-.03.7-.18,1.35-.56,2.03-.84,1.57-.63,2.46-.53,2.89.38.55,1.15-.2,1.8-.98,2.47-1.27,1.1-2.51,2.25-3.28,4.24.79-.12,1.3-.07,1.66-.27,1.38-.78,2.74-1.61,4.06-2.48.71-.47,1.31-1.11,2.02-1.58.57-.38,1.28-.29,1.65.24.31.44.51,1.14.39,1.64-.16.69-.75,1.26-1.01,1.94-.43,1.14-.82,2.3-1.06,3.49-.07.34.32.97.66,1.14.35.17,1.02.1,1.32-.14,1.2-.96,1.66-2.38,2.07-3.81.2-.7.4-1.41.74-2.04.4-.74,1.79-.81,2.21-.1.43.73.65,1.57,1.03,2.33.45.89.99,1.73,2.45,1.5Zm14.97-181.77c3.74-2.57,7.49-4.25,11.77-4.6.92-2.82.2-5.43-.5-8.01-.73-2.69-2.29-4.89-4.5-6.54-1.6-1.19-3.02-2.86-5.23-2.92-2.4,4.99-3.24,16.37-1.55,22.07Zm136.46,139.94c1.07-.21,1.75-.14,2.15-.45,1.99-1.55,3.52-3.47,3.77-6.09.23-2.45.42-4.91.43-7.36,0-1.32-.28-2.7-.7-3.96-.7-2.09-1.59-4.13-2.47-6.16-.19-.44-.68-.74-1.42-1.52,0,1.2.09,1.81-.02,2.39-.22,1.16-1.27,1.62-2.19,1-.51-.34-.92-.82-1.41-1.17-1.42-1.01-2.78-.89-3.92.38-.41.45-.75.98-1.01,1.53-.57,1.17-.2,2.28,1.04,2.69,1.15.39,2.39.48,3.56.82.4.12.95.56.99.91.07.54-.08,1.28-.43,1.65-.58.6-1.44.92-2.11,1.46-.3.24-.41.7-.79,1.4.89-.07,1.36-.09,1.82-.15.91-.12,1.75-.08,2.16.92.35.85-.02,1.47-1.3,2.29-.52.33-1.12.55-1.56.96-1.01.92-1.91,1.93-1.6,3.68.53.09,1.13.31,1.68.25.72-.09,1.4-.45,2.11-.61,1.05-.23,2.04.6,1.92,1.64-.11.96-.36,1.91-.68,3.52Zm-142.09-49.62c.84-1.29.61-2.33.16-3.4-.77-1.81-1.87-3.58-2.17-5.47-.55-3.54-2.66-5.62-5.54-7.26-.96-.55-1.84-1.24-2.74-1.87-.99-.7-2.01-.81-3.07-.31-1.32,3.04-1.79,6.36-1.26,9.01.63,3.15,2.15,5.76,4.95,7.47,3.04,1.86,6.31,2.57,9.68,1.83Zm120.65-40.84c.14,1.15.27,2.24.42,3.33.13.97.3,1.94.4,2.91.11,1.1.17,2.2.22,3.3.05.98.04,1.96.12,2.94.09,1.04-.17,2.13.29,3.2,3.53-2.23,6.49-6.51,7.31-10.31.39-1.84.32-3.64-.17-5.45-.38-1.38-1.24-2.37-2.4-3.12-1.1-.7-2.3-.72-3.54-.45-1.15.25-1.48,1.1-1.78,2.09-.17.57-.57,1.06-.86,1.57Zm-26.5,216.25c4.77-.06,8.84-1.7,12.02-5.33.87-.99,1.97-2.11,1.31-3.59-.74-1.69-2.39-1.52-3.85-1.39-2.98.27-5.74,1.28-8.37,2.69-1.83.99-3.13,2.36-3.36,4.63.68.91,1.41,1.87,2.25,2.99Zm-87.33-32.59c-.76,5.02-1.19,9.36-.87,13.74.08,1.09.34,2.18.62,3.23.18.7.49,1.39.86,2.01.61,1.03,2.02,1.17,2.8.26.55-.64,1.02-1.37,1.38-2.14,1.13-2.43,1.12-5.02.49-7.53-.75-2.97-2.02-5.76-3.73-8.32-.24-.36-.69-.57-1.54-1.26ZM187.47,102.49c-1.6,1.75-2.89,3.05-4.05,4.45-1.2,1.46-3.06,2.4-3.7,4.39,1.33,1.18,2.82,2.1,4.33,2.11,1.96.01,3.7.63,5.52,1.07.16.04.39-.2.88-.47-.6-3.67-.64-7.56-2.99-11.55Zm-89.7,154.99c2.72,3.27,4.54,6.61,7.14,9.48,2.89-4.25,4.5-7.71,4.68-9.96-3.43,0-6.85,0-10.28.01-.33,0-.66.19-1.54.47Zm16.73-1.14c2.22,3.4,4,6.45,7.73,7.91,1.25-2.91,1.89-5.76,2.49-8.62.11-.52,0-1.08-.02-1.77-3.34.81-6.41,1.55-10.2,2.47Zm68.33-8.09c.5-1.93-.41-3.06-1.63-3.94-.41-.3-1.26-.4-1.69-.18-.95.48-1.97,1.08-2.59,1.91-1.01,1.35-1.75,2.91-2.52,4.42-.23.45-.5,1.1.26,1.46q3.34-3.13,8.18-3.67Z"/><path class="cls-2" d="m110.18,227.03c-7.27-.1-11.26-3.74-12.57-11.32-.15-.9.12-1.94.44-2.82.27-.72,1.09-1.1,1.83-.75.47.22.83.81,1.09,1.31.15.28-.04.72-.04,1.08.13,6.4,4.13,9.73,10.19,9.18,2.38-.22,4.49-1.14,6.52-2.34,1.33-.79,2.28-1.9,2.65-3.38.38-1.54.61-3.12.87-4.69.1-.6.05-1.23.13-1.83.17-1.2.9-1.94,1.84-1.91.95.03,1.73.92,1.56,2.08-.36,2.42-.74,4.84-1.31,7.22-.56,2.37-2.07,4.11-4.18,5.35-2.92,1.73-6.19,2.8-9.03,2.82Z"/><path class="cls-2" d="m76.63,202.26c.21-.55.47-1.78,1.1-2.78,1.21-1.91,3.52-2.38,5.5-1.3.43.23.8.57,1.22.82,2.77,1.66,2.46,4.51.89,6.67-1.66,2.29-4.64,3.1-6.78,1.75-1.66-1.05-1.93-2.73-1.94-5.16Z"/><path class="cls-2" d="m130.6,193.87c.03-3.24,1.39-4.8,3.95-5.18,2.41-.37,4.23.93,4.86,3.46.76,3.05-.46,5.53-3.23,6.58-2.19.83-3.96.17-4.84-1.97-.46-1.11-.61-2.35-.74-2.89Z"/><path class="cls-2" d="m156.43,50.11c.6-7.1,1.92-13.95,5.26-20.28,1.38-2.61,2.74-5.23,4.23-7.78.95-1.61,3.48-2.43,5.15-1.89,1.64.53,3.23,2.81,3,4.64-.26,2.07-.63,4.14-1.17,6.15-1.27,4.76-2.95,9.38-5.18,13.8-1.16,2.3-2.05,4.75-3.17,7.07-.8,1.66-1.71,3.26-2.69,4.82-.55.87-1.45,1.35-2.54,1.16-1.25-.21-1.95-1.05-2.15-2.23-.31-1.81-.51-3.64-.75-5.46Zm4.2,2.24c.37-.71.77-1.4,1.1-2.13,1.07-2.35,2.01-4.76,3.18-7.06,2.07-4.07,3.56-8.36,4.82-12.73.47-1.64.69-3.37.94-5.07.11-.71.12-1.56-.83-1.78-.86-.2-1.34.4-1.75,1.04-.13.21-.27.41-.4.62-4.7,7.83-7.68,16.19-7.88,25.41-.01.6-.09,1.25.81,1.69Z"/><path class="cls-2" d="m159.72,61.3c2.05-1.09,3.99-1.14,5.92-.77.79.15,1.64.61,2.22,1.17,1.51,1.48,1.52,4.55.15,6.88-1.07,1.83-3.34,2.66-5.41,1.98-2.14-.7-3.75-3.07-3.55-5.44.1-1.21.41-2.4.67-3.81Zm5.9,3.73c.03-.8-.49-1.31-1.35-1.32-1.27-.03-1.9.52-1.88,1.65.02,1.18.64,1.98,1.59,2.07.93.08,1.58-.88,1.64-2.4Z"/><path class="cls-1" d="m176.06,47.49l3.06-9.11c.14-.4.3-.66.47-.79.18-.13.47-.19.89-.19h.33c.42,0,.67.07.77.21.1.14.08.4-.06.77l-3.29,9.97c-.24.69-.24,1.19-.01,1.5.23.31.72.46,1.47.46h5.58v-7.15c0-.4.07-.66.21-.8.14-.14.41-.21.8-.21h.27c.39,0,.66.07.8.21.14.14.21.41.21.8v12.52c0,.4-.07.66-.21.8-.14.14-.41.21-.8.21h-.27c-.4,0-.66-.07-.8-.21-.14-.14-.21-.41-.21-.8v-3.2h-5.55c-1.84,0-3.05-.4-3.63-1.2s-.59-2.06-.01-3.78Z"/><path class="cls-1" d="m195.96,56.98c-2.39,0-4.13-.59-5.22-1.76-1.09-1.18-1.63-3.03-1.63-5.56v-5.13c0-2.55.54-4.41,1.62-5.59,1.08-1.18,2.82-1.76,5.24-1.76s4.16.58,5.23,1.75c1.08,1.17,1.62,3.04,1.62,5.61v5.13c0,2.55-.54,4.41-1.62,5.58-1.08,1.17-2.82,1.75-5.23,1.75Zm4.51-7.33v-5.13c0-1.86-.34-3.19-1.02-4-.68-.81-1.84-1.22-3.48-1.22s-2.75.41-3.44,1.22c-.69.81-1.04,2.15-1.04,4v5.13c0,1.86.35,3.18,1.04,3.97.69.79,1.84,1.19,3.44,1.19s2.8-.39,3.48-1.17c.68-.78,1.02-2.11,1.02-3.99Z"/><path class="cls-1" d="m205.96,47.49l3.06-9.11c.14-.4.3-.66.47-.79.18-.13.47-.19.89-.19h.33c.42,0,.67.07.77.21.1.14.08.4-.06.77l-3.29,9.97c-.24.69-.24,1.19-.01,1.5.23.31.72.46,1.47.46h5.58v-7.15c0-.4.07-.66.21-.8.14-.14.41-.21.8-.21h.27c.39,0,.66.07.8.21.14.14.21.41.21.8v12.52c0,.4-.07.66-.21.8-.14.14-.41.21-.8.21h-.27c-.4,0-.66-.07-.8-.21-.14-.14-.21-.41-.21-.8v-3.2h-5.55c-1.84,0-3.05-.4-3.63-1.2s-.59-2.06-.01-3.78Z"/><path class="cls-1" d="m95.2,298.71c.2-.72.36-1.44.51-2.16.14-.7.34-1.38.45-2.08.03-.18.07-.36.13-.53.04-.12.1-.2.26-.18.39.05.78.07,1.17.11.09,0,.16,0,.17.15.07.93.11,1.86.17,2.79.04.65.16,1.31.09,1.96,0,.08.05.13.08.22.19-.43.21-.89.33-1.32.18-.67.33-1.35.48-2.03.11-.48.19-.97.32-1.45.04-.16.1-.17.23-.15.37.04.74.08,1.11.09.23,0,.26.11.21.29-.1.4-.22.8-.32,1.2-.18.74-.36,1.47-.54,2.21-.13.55-.27,1.1-.4,1.65-.15.61-.3,1.21-.45,1.82-.18.7-.35,1.41-.54,2.11-.13.44-.14.44-.62.4-.24-.02-.47-.04-.71-.06-.08,0-.2,0-.2-.13-.03-.54-.07-1.09-.1-1.63-.04-.61-.06-1.23-.1-1.84-.04-.54-.13-1.07-.15-1.61-.19.42-.26.86-.37,1.29-.16.65-.32,1.29-.46,1.94-.12.51-.23,1.02-.33,1.54-.04.21-.1.31-.34.27-.31-.05-.62-.06-.92-.08-.16-.01-.24-.03-.26-.24-.08-.69-.11-1.39-.17-2.09-.1-1.09-.19-2.18-.27-3.28-.09-1.16-.16-2.32-.25-3.47-.02-.24-.06-.48-.06-.72,0-.14.02-.21.19-.19.39.05.78.08,1.17.1.15,0,.17.07.18.21.06.77.08,1.55.15,2.32.08.78.08,1.57.12,2.36,0,.08-.03.17.08.22Z"/><path class="cls-1" d="m112.44,297.2c-.05.87-.01,1.76-.39,2.59-.13.29-.32.52-.56.71-.11.08-.14.15-.11.3.23,1.32.44,2.64.66,3.96.03.19.03.28-.21.25-.37-.05-.74-.08-1.11-.1-.19-.01-.27-.08-.3-.27-.14-.95-.29-1.9-.43-2.85-.1-.7-.09-.69-.79-.76-.24-.02-.3.05-.31.27-.08,1.05-.18,2.1-.27,3.15-.02.22-.09.28-.3.25-.33-.05-.66-.07-.99-.09-.18,0-.24-.08-.21-.25,0-.03,0-.06,0-.09.27-3.06.54-6.13.8-9.19.02-.25.09-.33.35-.3.7.08,1.4.11,2.1.2.6.08,1.17.25,1.59.73.32.37.44.81.44,1.3-.01.07-.06.14.02.19Zm-3.24.77c-.02.24-.04.47-.06.71q-.08.92.86.94c.37,0,.71-.25.81-.61.16-.54.17-1.1.18-1.65.02-.61-.24-.84-.86-.9-.18-.02-.37-.02-.55-.05-.19-.03-.25.04-.26.23-.03.44-.07.88-.11,1.32Z"/><path class="cls-1" d="m115.56,298.72c.6-.97,1.21-1.95,1.81-2.92.09-.14.18-.22.37-.2.44.05.88.08,1.37.13-.22.36-.43.69-.64,1.03-.56.91-1.13,1.82-1.7,2.72-.06.09-.04.16-.01.25.5,1.58.99,3.16,1.48,4.74.1.32.17.64.29.95.06.15.02.16-.1.15-.47-.04-.95-.09-1.42-.12-.18-.01-.21-.15-.24-.27-.28-.96-.56-1.92-.84-2.89-.09-.3-.18-.59-.28-.96-.22.38-.49.66-.52,1.09-.06.85-.15,1.71-.21,2.56-.02.24-.09.29-.32.26-.32-.05-.64-.07-.96-.09-.18,0-.25-.06-.23-.26.28-3.12.55-6.25.82-9.37.01-.17.06-.23.24-.21.34.04.68.07,1.02.09.2,0,.26.06.24.27-.1,1.01-.18,2.01-.27,3.02-.03.05-.05.14,0,.15.07.02.12-.05.11-.13Z"/><path class="cls-1" d="m106.24,299.54c-.08.9-.14,1.81-.24,2.71-.11,1.01-.79,1.82-1.78,2.06-1.57.38-2.73-.65-2.94-2.08-.03-.17.03-.35.04-.53.16-1.87.3-3.73.49-5.6.04-.43.33-.79.63-1.11.86-.93,2.42-.82,3.22-.12.59.51.88,1.18.82,1.98-.07.89-.15,1.79-.23,2.68Zm-3.24-.3h0c-.08.89-.15,1.79-.24,2.68-.04.45.13.67.48.87.52.29,1.17-.14,1.23-.79.16-1.73.29-3.45.46-5.18.05-.53-.31-.99-.8-1.04-.51-.05-.86.28-.91.87-.08.86-.15,1.73-.23,2.59Z"/><path class="cls-1" d="m122.23,295.95c.6.01,1.11.15,1.54.54.5.45.66,1.04.72,1.68.01.11-.01.2-.19.21-.36.02-.72.09-1.09.08-.11,0-.15-.03-.18-.17-.07-.34-.06-.75-.44-.94-.39-.2-.81-.2-1.07.26-.31.53-.25,1.06.01,1.59.3.6.79,1.05,1.25,1.53.91.95,1.53,2.04,1.24,3.41-.22,1.04-.87,1.75-2.08,1.85-.75.06-1.39-.15-1.93-.67-.43-.41-.62-.94-.73-1.5-.03-.15-.04-.32-.04-.48-.01-.39-.03-.4.36-.35.3.04.59-.04.89,0,.1.02.14.03.16.16.06.35.07.72.3,1.03.22.3.5.47.82.41.35-.06.74-.47.8-.8.14-.76-.2-1.33-.69-1.86-.64-.68-1.27-1.37-1.75-2.18-.51-.88-.46-2.47.37-3.28.49-.48,1.08-.69,1.73-.54Z"/><path class="cls-1" d="m92.38,289.18c-1.07-.09-2.14-.19-3.21-.28-.2-.02-.29-.09-.33-.27-.44-1.8-.88-3.6-1.34-5.39-.47-1.84-.95-3.68-1.42-5.51-.11-.41-.09-.43.34-.39.04,0,.08,0,.12.01.29.05.67-.06.86.13.17.17.17.52.23.79.49,1.99.99,3.98,1.52,5.97.3,1.13.56,2.28.84,3.42.03.14.06.27.26.16.04-.03.12,0,.18,0,1.75.15,3.49.31,5.24.45.24.02.3.09.26.32-.04.2-.05.41-.05.62,0,.21-.07.27-.29.25-1.07-.11-2.14-.19-3.21-.29Z"/><path class="cls-1" d="m119.45,290.44c.97-2.15,1.93-4.31,2.9-6.46.47-1.04.95-2.08,1.4-3.13.08-.18.17-.25.36-.23.31.04.62.07.92.08.28,0,.19.14.12.29-.41.91-.81,1.81-1.21,2.72-.78,1.73-1.56,3.45-2.33,5.17-.38.84-.75,1.68-1.12,2.53-.07.17-.17.2-.34.19-2.13-.19-4.26-.38-6.38-.56-.21-.02-.29-.07-.25-.29.04-.23.06-.47.06-.71,0-.17.08-.2.23-.19,1.79.16,3.58.32,5.37.48.07,0,.15-.01.18.08-.02.04,0,.07.04.08.05,0,.06-.02.06-.06Z"/><path class="cls-1" d="m89.21,298.82c-.11,1.28-.23,2.57-.33,3.85-.02.26-.1.33-.36.29-.25-.04-.51-.05-.77-.07q-.39-.03-.35-.44c.19-2.17.38-4.34.57-6.5.04-.4.06-.8.11-1.2.02-.19-.03-.25-.22-.26-.37-.02-.74-.07-1.11-.09-.17,0-.24-.06-.21-.24.04-.35.07-.7.09-1.05.01-.15.04-.22.22-.2,1.41.13,2.81.25,4.22.37.17.01.21.07.19.23-.04.36-.07.72-.09,1.08,0,.17-.09.2-.24.18-.34-.04-.68-.04-1.02-.1-.27-.04-.35.02-.37.3-.1,1.29-.22,2.57-.33,3.85Z"/><path class="cls-1" d="m111.7,285.2c.1-1.74-.22-3.38-1.09-4.89-.12-.2-.06-.25.11-.32.21-.09.41-.22.6-.35.17-.11.28-.05.37.1.65,1.08,1.12,2.23,1.31,3.49.14.94.17,1.86,0,2.79-.31,1.7-1.04,3.2-2.18,4.5-.17.19-.33.28-.54.04-.14-.15-.33-.27-.5-.39-.14-.09-.14-.16-.03-.29.83-.93,1.35-2.03,1.69-3.21.13-.47.26-.97.27-1.47Z"/><path class="cls-1" d="m99.72,278.51c.12.09.25.15.34.26.16.18.46.27.5.46.05.21-.24.37-.37.56-.69.97-1.26,2.01-1.46,3.18-.24,1.43-.32,2.87.17,4.29.21.6.46,1.17.75,1.72.07.14.11.24-.11.31-.18.06-.34.17-.49.28-.26.19-.42.09-.56-.15-.5-.9-.96-1.82-1.15-2.85-.16-.85-.21-1.7-.15-2.56.12-1.93.9-3.58,2.09-5.07.13-.16.29-.28.43-.43Z"/><path class="cls-1" d="m85.02,297.69c-.14,1.54-.28,3.08-.4,4.62-.02.24-.08.32-.33.28-.33-.05-.66-.07-.99-.09-.15,0-.2-.07-.18-.21.02-.15.03-.31.04-.46.26-2.95.52-5.89.77-8.84.02-.26.09-.36.36-.31.28.05.57.07.86.08.23,0,.29.08.27.31-.15,1.54-.28,3.08-.41,4.62Z"/><path class="cls-1" d="m102.53,287.38c.89-.28,1.71-.63,2.47-1.11.84-.54,1.53-1.21,2.06-2.04.7-1.08,1.11-2.29,1.44-3.53.02-.06.06-.11.07-.17.1-.35.1-.35.46-.2.57.23.58.24.42.82-.44,1.65-1.11,3.19-2.2,4.51-.71.86-1.6,1.48-2.6,1.96-.39.19-.79.35-1.19.5-.24.09-.41.07-.52-.16-.1-.2-.27-.36-.42-.58Z"/><path class="cls-1" d="m101.87,308.26c.1.03.15-.03.19-.08.33-.37.74-.27,1.15-.22.18.02.26.2.33.34.08.16.17.18.27.07.34-.39.77-.31,1.19-.25.38.05.54.4.43.86-.14.6-.33,1.18-.52,1.76-.03.1-.06.19-.08.29-.06.26-.31.38-.54.25-.07-.04-.09-.09-.05-.2.22-.68.43-1.36.63-2.05.04-.14.11-.32-.05-.43-.18-.13-.4-.13-.61-.07-.41.12-.66.4-.78.81-.17.54-.36,1.08-.51,1.63-.08.3-.29.18-.44.15-.21-.04-.09-.19-.05-.31.21-.64.41-1.28.6-1.93.04-.14.1-.32-.05-.43-.18-.14-.39-.13-.61-.07-.5.14-.7.56-.86.98-.16.42-.25.87-.38,1.31-.04.12-.03.29-.22.33-.31.05-.42-.07-.33-.36.26-.84.54-1.68.76-2.53.1-.38.34-.2.49-.17.27.04-.01.22.04.35Z"/><path class="cls-1" d="m92.04,307.46c.35-.21.6-.47,1.01-.4.36.06.68.12.75.53.1.04.14-.02.18-.06.36-.41.83-.34,1.29-.26.32.05.49.49.37.89-.2.69-.4,1.39-.61,2.08-.08.27-.33.18-.49.18-.24,0-.08-.21-.05-.3.18-.62.4-1.22.57-1.84.05-.16.14-.39-.02-.52-.17-.16-.42-.14-.64-.08-.42.13-.65.45-.78.85-.16.48-.29.97-.44,1.45-.04.13-.06.27-.24.31-.27.05-.39-.06-.31-.32.19-.64.4-1.28.59-1.92.05-.16.12-.37-.07-.48-.21-.11-.45-.13-.68-.02-.46.22-.63.66-.78,1.1-.14.43-.29.85-.41,1.29-.08.29-.28.2-.44.17-.2-.04-.08-.22-.06-.3.2-.73.42-1.45.64-2.17.04-.14.09-.28.13-.43.04-.13.1-.2.26-.18.35.03.36.03.21.44Z"/><path class="cls-1" d="m107.74,311.16c-.35.24-.68.33-1.05.37-.38.03-.7-.22-.89-.51-.17-.25-.13-.69.05-.92.26-.34.6-.46,1.02-.47.36-.01.73.06,1.09,0,.15-.02.24-.08.25-.21.02-.17.12-.37-.07-.52-.36-.28-1.13-.16-1.38.22-.16.25-.36.09-.51.01-.16-.08.01-.19.06-.27.29-.44.71-.61,1.23-.54.33.04.67.03.96.25.29.22.36.51.28.84-.18.67-.48,1.31-.48,2.02,0,.21-.2.12-.3.16-.1.03-.24,0-.25-.15,0-.07,0-.14,0-.28Zm.29-1.13c-.46.01-.89,0-1.31.05-.41.04-.59.46-.36.8.17.25.48.29.89.17.49-.15.61-.57.79-1.02Z"/><path class="cls-1" d="m123.04,311.88c-.28.67-1.23,1.2-1.96.88-.48-.21-.72-.6-.75-1.08-.05-.87.38-1.75,1.23-2.01.86-.26,1.87.12,1.75,1.29-.05.49-.05.49-.55.45-.52-.05-1.05-.08-1.57-.14-.22-.03-.27.05-.3.25-.04.33.1.57.32.78.21.19.56.15.9-.08.06-.04.13-.08.16-.14.18-.33.46-.26.77-.21Zm-1.07-.96h0c.23.02.45.04.68.06.06,0,.14.04.17-.07.09-.24-.1-.72-.33-.82-.54-.23-1.14.01-1.37.56-.05.12-.04.19.11.2.25.02.49.04.74.06Z"/><path class="cls-1" d="m113.81,307.72c-.16.52-.31,1.03-.46,1.54.12.05.17-.06.23-.11.38-.28.81-.26,1.23-.15.38.11.54.57.36,1.05-.23.62-.39,1.26-.58,1.89-.08.26-.26.23-.42.2-.23-.04-.12-.18-.08-.32.2-.67.38-1.35.56-2.03.07-.27-.06-.38-.33-.42-.64-.09-1.01.29-1.18.76-.19.52-.35,1.05-.52,1.57-.04.12-.08.25-.23.29-.26.07-.4-.06-.32-.31.27-.88.56-1.76.82-2.65.09-.32.19-.63.3-.95.15-.43.14-.43.63-.36Z"/><path class="cls-1" d="m82.46,308.01c.1-.67.38-1.25,1.01-1.59.52-.28,1.08-.2,1.56.08.42.25.51.7.47,1.18-.08.83-.43,1.52-1.26,1.75-.78.21-1.51.09-1.77-.92-.04-.17.03-.32,0-.5Zm2.47-.37c.06-.31.06-.65-.28-.81-.33-.15-.7-.22-1.03.04-.23.18-.38.4-.48.68-.12.33-.15.66-.11.99.03.26.22.5.48.53.36.04.72,0,.99-.32.26-.32.44-.67.44-1.11Z"/><path class="cls-1" d="m97.08,309.99c.31-.46.57-.85.84-1.24.22-.33.45-.65.66-.98.18-.27.41-.06.67-.12-.39.57-.74,1.09-1.09,1.61-.45.66-.9,1.32-1.36,1.98-.27.39-.6.65-1.13.54-.18-.04-.22-.1-.2-.27.02-.16.03-.25.25-.24.49.03.91-.36.9-.86-.01-.6-.07-1.19-.12-1.79-.03-.39-.06-.78-.09-1.18,0,0,.02-.02.04-.02.53.03.51.03.52.56.02.63.07,1.27.11,2Z"/><path class="cls-1" d="m118.03,309.78c.25-.15.43-.35.7-.4.37-.07.75-.1,1.04.18.25.24.23.56.12.9-.21.62-.37,1.27-.54,1.9-.03.12-.09.18-.22.16-.11-.02-.22,0-.34.04-.05-.33.1-.61.19-.88.16-.44.24-.9.39-1.33.05-.14.14-.36-.07-.48-.26-.14-.55-.15-.82-.03-.45.2-.61.62-.75,1.04-.16.46-.29.93-.44,1.4-.09.28-.29.1-.43.09-.18-.01-.09-.14-.06-.25.27-.86.55-1.72.79-2.59.08-.3.27-.26.43-.2.17.06.07.21.01.32-.01.02,0,.06,0,.13Z"/><path class="cls-1" d="m87.84,307.04c-.4-.11-.88.33-1.04.67-.24.51-.33,1.07-.52,1.6-.04.12-.04.25-.18.32-.14.07-.29.06-.41-.01-.14-.09,0-.21.03-.3.25-.88.53-1.74.78-2.62.06-.21.17-.12.28-.12.11,0,.26-.04.22.18-.04.21.09.21.21.1.36-.32.78-.27,1.19-.2.32.05.55.52.45.89-.12.43-.25.85-.38,1.27-.07.25-.15.5-.22.75-.04.16-.4.32-.54.25-.14-.07-.04-.17-.02-.23.18-.61.37-1.23.57-1.84.05-.14.06-.29.05-.42-.02-.28-.27-.25-.47-.28Z"/><path class="cls-1" d="m127.22,282.69c-.51-.04-1.03-.1-1.54-.13-.17-.01-.22-.07-.22-.25.04-.79.03-.79.81-.73.83.07,1.66.15,2.49.21.22.02.3.07.27.31-.07.73-.06.73-.8.67-.34-.03-.68-.06-1.02-.09Z"/><path class="cls-1" d="m83.78,278.88c-.5-.04-1.01-.09-1.51-.13-.17-.01-.22-.06-.21-.24.05-.8.04-.8.83-.73.82.07,1.64.15,2.46.21.22.02.3.06.27.31-.08.73-.06.74-.8.67-.35-.03-.7-.06-1.05-.09Z"/><path class="cls-1" d="m111.73,310.84c-.23.68-1.06,1.27-1.88.93-.43-.18-.71-.59-.67-1.21.04-.69.3-1.3.89-1.72.49-.36,1.4-.27,1.79.16.09.1.14.2.16.32.02.13.11.29,0,.37-.12.09-.3,0-.45,0-.07,0-.07-.05-.08-.1-.14-.55-.7-.71-1.15-.36-.23.18-.38.42-.46.69-.09.31-.22.62-.13.97.14.6.52.63,1.01.4.1-.05.22-.13.25-.22.14-.4.42-.33.72-.22Z"/><path class="cls-1" d="m102.09,279.98c.14,0,.16.08.19.16.33.79.59,1.6.81,2.43.04.16-.02.22-.15.27-.25.09-.54.28-.76.23-.28-.07-.16-.46-.24-.7-.21-.63-.38-1.27-.63-1.88-.06-.15-.05-.23.13-.28.23-.06.45-.15.65-.22Z"/><path class="cls-1" d="m104.87,279.58c.11,0,.18.05.21.15.3.8.58,1.6.77,2.43.03.15,0,.21-.14.25-.02,0-.03.02-.05.03-.25.07-.54.26-.74.18-.21-.08-.15-.45-.21-.7-.17-.64-.33-1.29-.61-1.89-.09-.19-.02-.25.13-.29.21-.06.43-.11.64-.16Z"/><path class="cls-1" d="m116.49,309.19c.27-.03.35.01.25.29-.29.85-.51,1.72-.79,2.57-.09.28-.29.22-.45.19-.2-.04-.09-.18-.05-.31.27-.88.54-1.77.79-2.65.06-.22.2-.06.25-.09Z"/><path class="cls-1" d="m116.93,307.98c.08.04.26-.06.22.17-.06.37-.15.47-.43.44-.12-.01-.23-.03-.22-.19.03-.36.11-.45.42-.42Z"/></g></svg>